<svg width="179" height="126" viewBox="0 0 179 126" fill="none" xmlns="http://www.w3.org/2000/svg">
<path d="M92.0723 46.0876C91.7845 45.474 92.0506 44.7474 92.6665 44.4646L111.105 36.0005C111.721 35.7177 112.454 35.9859 112.741 36.5995C113.029 37.2131 112.763 37.9397 112.147 38.2225L93.7086 46.6866C93.0927 46.9694 92.3601 46.7012 92.0723 46.0876Z" fill="#212B36"/>
<path d="M101.643 41.3034C102.927 44.5157 102.337 47.7583 100.324 48.5461C98.3111 49.3338 95.6382 47.3684 94.3539 44.1561C93.0695 40.9439 93.6601 37.7012 95.6729 36.9135C97.6858 36.1257 100.359 38.0912 101.643 41.3034Z" fill="#212B36"/>
<path fill-rule="evenodd" clip-rule="evenodd" d="M101.727 45.7425C101.946 44.5373 101.79 43.0187 101.177 41.4856C100.565 39.9526 99.6281 38.7394 98.6347 38.009C97.6346 37.2736 96.6465 37.0694 95.8586 37.3778C95.0707 37.6861 94.4911 38.5038 94.2702 39.7171C94.0507 40.9222 94.2065 42.4409 94.8195 43.9739C95.4324 45.507 96.3689 46.7201 97.3623 47.4506C98.3624 48.186 99.3505 48.3902 100.138 48.0818C100.926 47.7735 101.506 46.9558 101.727 45.7425ZM100.324 48.5461C102.337 47.7583 102.927 44.5157 101.643 41.3034C100.359 38.0912 97.6858 36.1257 95.6729 36.9135C93.6601 37.7012 93.0695 40.9439 94.3539 44.1561C95.6382 47.3684 98.3111 49.3338 100.324 48.5461Z" fill="white"/>
<path d="M173.838 107.975C173.923 107.975 174.003 107.924 174.037 107.841C177.729 98.6912 179.323 88.849 178.772 78.5854C178.766 78.4688 178.664 78.3785 178.547 78.3851C178.429 78.3917 178.338 78.4914 178.344 78.608C178.892 88.8095 177.309 98.5924 173.639 107.684C173.595 107.792 173.649 107.916 173.759 107.96C173.785 107.97 173.812 107.975 173.838 107.975Z" fill="#212B36"/>
<path d="M163.918 118.046C163.986 118.046 164.054 118.013 164.095 117.952C172.599 105.48 176.096 90.5836 174.209 74.8722C174.194 74.7565 174.087 74.6738 173.971 74.6869C173.853 74.701 173.769 74.8064 173.784 74.9221C175.658 90.5309 172.186 105.328 163.741 117.714C163.674 117.811 163.701 117.943 163.799 118.009C163.836 118.033 163.877 118.045 163.919 118.045L163.918 118.046Z" fill="#212B36"/>
<path d="M117.407 33.2238L124.26 48.9014L130.684 47.2064L120.62 31.9531L117.407 33.2238Z" fill="white"/>
<path d="M124.26 49.1129C124.278 49.1129 124.297 49.111 124.315 49.1053L130.74 47.4104C130.806 47.3935 130.859 47.3446 130.884 47.2816C130.909 47.2186 130.901 47.1471 130.863 47.0897L120.799 31.8364C120.742 31.7517 120.635 31.7179 120.54 31.7555L117.327 33.0262C117.274 33.0478 117.231 33.0892 117.209 33.1419C117.188 33.1946 117.188 33.2538 117.21 33.3065L124.063 48.984C124.098 49.063 124.177 49.1119 124.26 49.1119V49.1129ZM130.344 47.0765L124.384 48.6492L117.691 33.3394L120.536 32.2135L130.343 47.0765H130.344Z" fill="#212B36"/>
<path d="M112.041 122.91L115.081 117.269C115.894 116.143 117.207 115.475 118.606 115.475H146.453C147.638 115.475 148.769 115.97 149.565 116.84L153.425 121.057L112.041 122.91Z" fill="white"/>
<path d="M112.041 123.122C112.041 123.122 112.048 123.122 112.051 123.122L153.434 121.269C153.517 121.265 153.59 121.215 153.623 121.139C153.655 121.063 153.64 120.977 153.584 120.916L149.724 116.699C148.889 115.787 147.697 115.264 146.453 115.264H118.606C117.141 115.264 115.759 115.968 114.907 117.148C114.901 117.155 114.896 117.163 114.893 117.171L111.853 122.811C111.817 122.878 111.82 122.959 111.861 123.023C111.9 123.085 111.968 123.122 112.041 123.122ZM152.961 120.867L112.407 122.682L115.263 117.382C116.035 116.32 117.284 115.687 118.606 115.687H146.453C147.576 115.687 148.652 116.159 149.406 116.982L152.961 120.866V120.867Z" fill="#212B36"/>
<path d="M151.799 125.594H114.44C113.115 125.594 112.041 124.531 112.041 123.221V122.596C112.041 121.286 113.115 120.223 114.44 120.223H151.799C153.123 120.223 154.197 121.286 154.197 122.596V123.221C154.197 124.531 153.123 125.594 151.799 125.594Z" fill="white"/>
<path d="M114.44 125.805H151.8C153.24 125.805 154.412 124.645 154.412 123.22V122.594C154.412 121.169 153.24 120.01 151.8 120.01H114.44C112.999 120.01 111.827 121.169 111.827 122.594V123.22C111.827 124.645 112.999 125.805 114.44 125.805ZM151.8 120.434C153.004 120.434 153.985 121.404 153.985 122.594V123.22C153.985 124.412 153.004 125.381 151.8 125.381H114.44C113.235 125.381 112.255 124.412 112.255 123.22V122.594C112.255 121.403 113.235 120.434 114.44 120.434H151.8Z" fill="#212B36"/>
<path d="M134.626 61.7993C136.339 64.2213 138.339 66.5097 140.729 68.6156L156.478 70.7583L148.407 59.4629L134.627 61.8002L134.626 61.7993Z" fill="#212B36"/>
<path d="M132.468 101.605L134.635 110.858L130.799 112.981L128.117 102.93L132.468 101.605Z" fill="white"/>
<path d="M130.799 113.192C130.835 113.192 130.871 113.182 130.904 113.164L134.74 111.041C134.823 110.995 134.865 110.9 134.843 110.809L132.676 101.557C132.662 101.499 132.625 101.45 132.574 101.421C132.523 101.391 132.461 101.385 132.404 101.402L128.052 102.727C127.942 102.761 127.879 102.873 127.908 102.984L130.591 113.035C130.608 113.098 130.653 113.15 130.714 113.176C130.741 113.187 130.769 113.193 130.798 113.193L130.799 113.192ZM134.39 110.75L130.936 112.661L128.376 103.071L132.312 101.873L134.391 110.749L134.39 110.75Z" fill="#212B36"/>
<path d="M135.097 110.309C135.224 111.203 136.037 112.899 136.054 114.387C136.065 115.322 135.355 116.11 134.419 116.229C131.77 116.566 125.155 116.897 120.036 116.438C119.685 116.407 119.066 116.154 118.893 115.288C118.314 112.382 123.424 111.67 129.028 109.561C129.248 109.478 129.496 109.527 129.665 109.689L130.269 110.267C130.873 110.847 131.77 111.011 132.544 110.684L134.382 109.909C134.695 109.777 135.048 109.975 135.096 110.308L135.097 110.309Z" fill="white"/>
<path d="M125.718 116.874C129.401 116.874 132.854 116.641 134.447 116.439C135.497 116.305 136.281 115.422 136.269 114.385C136.258 113.416 135.921 112.363 135.65 111.516C135.491 111.02 135.355 110.592 135.31 110.278C135.278 110.053 135.144 109.861 134.945 109.749C134.745 109.637 134.51 109.625 134.299 109.713L132.461 110.488C131.764 110.781 130.963 110.636 130.419 110.114L129.815 109.535C129.588 109.318 129.251 109.25 128.954 109.361C127.646 109.853 126.389 110.261 125.173 110.656C121.28 111.921 118.205 112.918 118.685 115.327C118.865 116.229 119.516 116.602 120.018 116.647C121.827 116.81 123.805 116.872 125.719 116.872L125.718 116.874ZM134.585 110.08C134.637 110.08 134.687 110.093 134.734 110.118C134.816 110.164 134.872 110.244 134.885 110.338C134.934 110.686 135.077 111.129 135.241 111.644C135.504 112.463 135.83 113.484 135.84 114.39C135.85 115.213 135.227 115.912 134.391 116.019C131.987 116.324 125.315 116.699 120.055 116.226C119.927 116.215 119.275 116.114 119.103 115.247C118.696 113.205 121.469 112.306 125.305 111.061C126.526 110.665 127.787 110.255 129.104 109.759C129.246 109.705 129.408 109.738 129.516 109.842L130.12 110.42C130.788 111.061 131.772 111.24 132.628 110.88L134.466 110.105C134.504 110.089 134.544 110.081 134.584 110.081L134.585 110.08Z" fill="#212B36"/>
<path d="M135.909 114.104C135.909 114.104 135.912 114.254 135.913 114.327C135.923 115.262 135.214 116.051 134.277 116.169C131.629 116.506 125.153 116.899 120.035 116.44C119.684 116.409 119.065 116.156 118.892 115.291C118.839 115.025 118.872 114.547 118.872 114.547L119.235 114.564C124.408 114.816 129.591 114.694 134.745 114.198L135.91 114.104L135.909 114.104Z" fill="white"/>
<path d="M125.282 116.861C129.113 116.861 132.703 116.582 134.306 116.378C135.357 116.245 136.14 115.362 136.129 114.324L136.125 114.099C136.124 114.04 136.098 113.985 136.055 113.945C136.011 113.906 135.953 113.886 135.894 113.892L134.729 113.985C129.6 114.479 124.392 114.603 119.247 114.352L118.884 114.334C118.77 114.325 118.667 114.415 118.66 114.531C118.658 114.552 118.626 115.041 118.683 115.33C118.863 116.232 119.514 116.604 120.016 116.649C121.71 116.801 123.522 116.86 125.282 116.86V116.861ZM135.7 114.333C135.708 115.154 135.086 115.853 134.251 115.958C131.927 116.253 125.399 116.708 120.055 116.228C119.927 116.217 119.276 116.115 119.104 115.249C119.079 115.123 119.075 114.926 119.078 114.768L119.225 114.776C124.391 115.028 129.62 114.904 134.766 114.408L135.7 114.334V114.333Z" fill="#212B36"/>
<path d="M156.872 76.9272C156.872 76.9272 140.891 85.4159 128.002 78.5685C127.622 78.3662 127.217 78.798 127.448 79.1591C128.096 80.174 129.951 82.6684 130.919 85.2673C132.11 88.4661 133.811 100.891 134.64 106.042C134.715 106.507 134.361 106.931 133.884 106.947L128.929 107.106C128.615 107.116 128.326 106.943 128.19 106.663C126.402 102.978 114.953 79.8627 115.399 74.46C115.881 68.62 129.124 67.2374 131.935 67.0596C134.844 66.8752 152.118 67.4198 152.118 67.4198L156.871 76.9272H156.872Z" fill="#212B36"/>
<path d="M137.791 104.336L139.959 113.589L136.123 115.711L133.44 105.661L137.791 104.336Z" fill="white"/>
<path d="M136.123 115.921C136.159 115.921 136.195 115.912 136.227 115.894L140.063 113.771C140.145 113.725 140.188 113.63 140.166 113.539L137.998 104.285C137.985 104.228 137.948 104.179 137.897 104.149C137.845 104.12 137.784 104.113 137.727 104.13L133.375 105.456C133.265 105.489 133.202 105.602 133.23 105.712L135.913 115.763C135.931 115.827 135.976 115.879 136.037 115.904C136.064 115.916 136.092 115.921 136.121 115.921H136.123ZM139.714 113.48L136.26 115.391L133.699 105.801L137.634 104.602L139.714 113.479V113.48Z" fill="#212B36"/>
<path d="M140.419 113.043C140.547 113.938 141.359 115.634 141.377 117.122C141.387 118.057 140.678 118.845 139.741 118.963C137.092 119.3 130.477 119.631 125.358 119.172C125.007 119.141 124.388 118.888 124.215 118.023C123.636 115.116 128.747 114.404 134.351 112.295C134.57 112.213 134.818 112.262 134.988 112.423L135.591 113.002C136.196 113.581 137.092 113.745 137.866 113.419L139.704 112.643C140.017 112.512 140.371 112.709 140.418 113.042L140.419 113.043Z" fill="white"/>
<path d="M131.039 119.608C134.722 119.608 138.175 119.376 139.769 119.173C140.819 119.04 141.603 118.157 141.591 117.119C141.58 116.15 141.243 115.097 140.972 114.251C140.813 113.755 140.676 113.327 140.631 113.014C140.599 112.789 140.466 112.596 140.266 112.485C140.066 112.373 139.832 112.361 139.621 112.449L137.783 113.224C137.086 113.518 136.284 113.371 135.74 112.85L135.137 112.272C134.91 112.054 134.572 111.987 134.275 112.098C132.967 112.589 131.71 112.998 130.495 113.392C126.602 114.656 123.526 115.654 124.006 118.063C124.186 118.964 124.836 119.337 125.339 119.382C127.148 119.544 129.125 119.607 131.039 119.607V119.608ZM139.908 112.814C139.959 112.814 140.009 112.827 140.056 112.853C140.139 112.899 140.194 112.979 140.207 113.072C140.257 113.421 140.399 113.864 140.564 114.378C140.826 115.198 141.152 116.218 141.163 117.124C141.172 117.947 140.549 118.647 139.714 118.753C137.309 119.059 130.635 119.432 125.377 118.961C125.249 118.95 124.598 118.847 124.426 117.981C124.019 115.939 126.791 115.04 130.627 113.794C131.847 113.398 133.109 112.988 134.427 112.494C134.569 112.44 134.73 112.472 134.838 112.575L135.442 113.154C136.11 113.794 137.095 113.974 137.95 113.614L139.788 112.839C139.826 112.823 139.867 112.814 139.907 112.814H139.908Z" fill="#212B36"/>
<path d="M141.233 116.84C141.233 116.84 141.236 116.99 141.236 117.064C141.247 117.999 140.538 118.787 139.601 118.905C136.952 119.242 130.477 119.635 125.359 119.176C125.008 119.145 124.389 118.892 124.216 118.027C124.163 117.762 124.196 117.283 124.196 117.283L124.559 117.301C129.731 117.553 134.915 117.431 140.069 116.934L141.234 116.841L141.233 116.84Z" fill="white"/>
<path d="M130.604 119.597C134.436 119.597 138.026 119.318 139.629 119.115C140.679 118.981 141.463 118.098 141.451 117.061L141.447 116.835C141.447 116.777 141.421 116.721 141.377 116.682C141.333 116.642 141.275 116.622 141.216 116.628L140.052 116.721C134.921 117.216 129.713 117.339 124.57 117.088L124.206 117.07C124.091 117.06 123.99 117.152 123.982 117.267C123.98 117.288 123.948 117.777 124.006 118.066C124.186 118.967 124.836 119.341 125.339 119.386C127.032 119.537 128.844 119.596 130.604 119.596V119.597ZM141.023 117.069C141.03 117.89 140.408 118.589 139.574 118.694C137.25 118.99 130.722 119.444 125.378 118.964C125.249 118.953 124.598 118.85 124.426 117.984C124.401 117.858 124.398 117.662 124.4 117.504L124.548 117.511C129.712 117.763 134.941 117.64 140.089 117.143L141.023 117.069Z" fill="#212B36"/>
<path d="M165.394 75.4294C165.988 74.1906 166.322 72.8061 166.322 71.3435C166.322 66.8786 162.271 60.5307 157.955 58.9768C157.225 58.5733 156.956 59.149 156.085 58.879L137.382 61.0216L148.109 66.1271C147.776 66.9407 147.517 67.7825 147.334 68.6243C140.952 68.946 133.08 69.6966 131.343 69.8076C128.532 69.9863 120.74 69.6881 120.259 75.5291C119.813 80.9317 131.725 105.717 133.514 109.402C133.65 109.681 133.939 109.854 134.253 109.844L139.208 109.684C139.684 109.669 140.039 109.245 139.964 108.779C139.135 103.629 137.434 91.2038 136.242 88.0049C135.275 85.4061 133.42 82.9126 132.771 81.8968C132.54 81.5356 132.894 81.2901 133.326 81.3061C141.385 81.6005 145.65 80.9468 152.541 81.0804C154.031 81.1095 155.399 81.0418 156.648 80.8847C156.657 80.8847 156.667 80.8847 156.676 80.8847C158.736 80.8847 160.645 80.2432 162.211 79.155C163.762 78.2285 164.83 76.9776 165.395 75.4275L165.394 75.4294Z" fill="#212B36"/>
<path d="M132.591 107.777C132.621 107.777 132.65 107.772 132.679 107.758C132.786 107.711 132.835 107.584 132.786 107.478C126.949 94.6497 120.22 78.5875 120.471 75.5428C120.935 69.921 129.283 69.3924 132.026 69.2184L132.079 69.2147C132.329 69.1987 132.703 69.178 133.223 69.1488C134.668 69.0679 137.358 68.9184 141.726 68.6306C141.844 68.623 141.933 68.5215 141.926 68.4048C141.918 68.2882 141.816 68.2016 141.698 68.2073C137.333 68.4951 134.643 68.6447 133.199 68.7256C132.677 68.7547 132.302 68.7754 132.052 68.7914L131.999 68.7952C129.165 68.9748 120.539 69.5213 120.045 75.508C119.712 79.5384 130.275 102.992 132.396 107.652C132.433 107.731 132.51 107.777 132.591 107.777Z" fill="white"/>
<path d="M144.666 49.3379L131.673 57.7128C133.205 59.9335 134.751 61.8739 136.31 63.8811C137.05 64.8358 138.654 65.6108 139.871 65.607C147.126 65.5892 151.464 62.6649 157.856 59.2704C152.621 56.2944 148.004 53.072 144.666 49.3379Z" fill="white"/>
<path d="M139.864 65.8188H139.872C146.27 65.8028 150.403 63.5548 155.635 60.7096C156.383 60.3023 157.154 59.8828 157.957 59.4567C158.026 59.42 158.069 59.3504 158.071 59.2733C158.071 59.1962 158.031 59.1247 157.963 59.0861C152.005 55.6991 147.831 52.5567 144.827 49.1969C144.757 49.1179 144.639 49.1019 144.55 49.1593L131.557 57.5342C131.508 57.5652 131.475 57.6141 131.464 57.6706C131.452 57.727 131.464 57.7844 131.497 57.8314C132.811 59.7361 134.16 61.4677 135.465 63.1419L136.141 64.01C136.917 65.0089 138.586 65.8197 139.865 65.8197L139.864 65.8188ZM157.416 59.2639C156.733 59.6288 156.072 59.9881 155.428 60.338C150.25 63.1551 146.159 65.3795 139.87 65.3946H139.864C138.721 65.3946 137.173 64.643 136.48 63.7504L135.804 62.8814C134.544 61.2645 133.242 59.594 131.974 57.7703L144.629 49.6136C147.598 52.8943 151.673 55.97 157.416 59.2629V59.2639Z" fill="#212B36"/>
<path d="M128.008 29.6197C131.169 27.9041 130.136 28.4412 135.772 28.4835C138.297 28.5023 140.589 29.9555 141.645 32.2251C146.471 42.5997 149.14 48.3344 152.115 51.633C141.117 57.425 136.952 60.3145 130.661 59.1124L125.617 52.6413C124.749 51.6433 123.085 50.1375 122.4 49.0643C120.74 46.4664 122.333 43.813 122.654 40.1062C122.936 36.8631 125.123 31.1849 128.008 29.6197Z" fill="white"/>
<path d="M133.413 59.5972C137.664 59.5972 141.466 57.5618 148.363 53.87C149.575 53.221 150.828 52.5504 152.215 51.8196C152.273 51.7885 152.314 51.734 152.326 51.67C152.337 51.6061 152.318 51.5402 152.274 51.4913C149.317 48.2143 146.66 42.5041 141.838 32.1362C140.755 29.8082 138.374 28.2911 135.773 28.2713C134.43 28.261 133.45 28.2224 132.734 28.1942C130.385 28.1011 130.34 28.1124 127.977 29.3953L127.904 29.4339C124.952 31.0366 122.732 36.7196 122.44 40.0887C122.34 41.2475 122.117 42.2878 121.901 43.2942C121.437 45.4594 121.037 47.3293 122.218 49.1784C122.674 49.8933 123.555 50.7962 124.332 51.5929C124.755 52.0256 125.154 52.4347 125.454 52.7799L130.491 59.2417C130.523 59.283 130.568 59.3103 130.62 59.3207C131.593 59.5069 132.514 59.5981 133.413 59.5981V59.5972ZM151.775 51.5713C150.481 52.2541 149.302 52.8853 148.159 53.4966C139.935 57.8985 136.16 59.9198 130.781 58.9181L125.786 52.5109C125.471 52.1478 125.067 51.734 124.641 51.2966C123.878 50.515 123.014 49.629 122.58 48.9499C121.493 47.2465 121.858 45.5403 122.321 43.3798C122.539 42.3611 122.765 41.3077 122.867 40.1226C123.144 36.9246 125.325 31.315 128.111 29.8035L128.183 29.764C129.704 28.9382 131.216 28.5551 132.717 28.6146C133.436 28.6429 134.42 28.6824 135.77 28.6927C138.206 28.7115 140.435 30.1318 141.45 32.3111C146.193 42.5079 148.849 48.2162 151.776 51.5694L151.775 51.5713Z" fill="#212B36"/>
<path d="M150.521 15.3803L109.726 36.9044C109.169 37.1951 108.596 37.8765 108.715 38.4888C108.896 39.4209 109.888 39.4293 110.737 38.9891L151.887 17.9612C152.565 17.6095 152.843 16.7921 152.517 16.1064L152.481 16.0312C152.134 15.3003 151.243 15.0041 150.521 15.3803Z" fill="#212B36"/>
<path d="M144.101 19.3738L143.164 18.4417C142.958 18.2366 143.026 17.8914 143.294 17.7776L145.956 16.6489C146.272 16.5154 146.61 16.8004 146.52 17.1286C146.307 17.8961 145.771 18.6617 144.628 19.4236C144.463 19.5337 144.242 19.513 144.101 19.3738Z" fill="white"/>
<path d="M144.395 19.7049C144.517 19.7049 144.64 19.6701 144.747 19.5986C145.828 18.8772 146.475 18.0881 146.726 17.1832C146.79 16.9537 146.716 16.7139 146.534 16.5568C146.35 16.3979 146.096 16.3584 145.872 16.4534L143.21 17.582C143.019 17.6629 142.881 17.8322 142.841 18.0345C142.801 18.2367 142.866 18.4445 143.012 18.5903L143.95 19.5224C144.071 19.6428 144.232 19.7049 144.396 19.7049H144.395ZM146.12 16.8258C146.188 16.8258 146.236 16.8616 146.253 16.8757C146.28 16.9001 146.342 16.9669 146.313 17.0704C146.091 17.8727 145.501 18.5847 144.508 19.2459C144.428 19.2995 144.321 19.2892 144.253 19.2224L143.316 18.2903C143.268 18.2433 143.249 18.1793 143.262 18.1144C143.274 18.0495 143.317 17.9968 143.378 17.9714L146.041 16.8427C146.069 16.8305 146.096 16.8258 146.12 16.8258Z" fill="#212B36"/>
<path d="M138.153 37.1178C142.763 40.5603 149.233 45.298 154.777 44.8757C156.877 43.0321 152.972 32.3369 147.31 25.5525C146.403 24.4661 147.239 21.5108 146.66 20.1696L144.259 21.8767C143.736 22.1617 143.106 21.7413 143.177 21.1553L142.826 18.8641C142.81 18.7596 142.68 18.7211 142.608 18.7992L141.629 19.8667C141.046 20.5025 140.867 21.4045 141.162 22.2106L141.656 23.5585L143.052 24.8508L145.08 32.2776C142.815 30.879 138.415 29.5631 136.575 29.517L138.154 37.1187L138.153 37.1178Z" fill="white"/>
<path d="M154.072 45.1132C154.314 45.1132 154.554 45.1048 154.793 45.0859C154.839 45.0822 154.883 45.0634 154.918 45.0333C155.99 44.0918 155.704 41.0857 154.154 36.9914C152.602 32.8961 150.105 28.5694 147.474 25.4166C147.024 24.8777 147.053 23.7358 147.083 22.6325C147.108 21.6534 147.133 20.7288 146.857 20.0864C146.831 20.0271 146.78 19.9829 146.717 19.966C146.654 19.9481 146.587 19.9603 146.534 19.998L144.144 21.6966C143.973 21.7851 143.775 21.7747 143.614 21.6666C143.449 21.5565 143.364 21.375 143.388 21.1793C143.39 21.1605 143.39 21.1417 143.388 21.1229L143.037 18.8317C143.017 18.7019 142.926 18.5975 142.799 18.5598C142.671 18.5213 142.537 18.5589 142.448 18.6567L141.47 19.7243C140.832 20.4194 140.637 21.4004 140.96 22.2826L141.453 23.6305C141.465 23.6615 141.484 23.6907 141.509 23.7132L142.861 24.9642L144.736 31.8323C142.344 30.5155 138.34 29.3492 136.58 29.305C136.511 29.3021 136.452 29.3313 136.41 29.3812C136.368 29.431 136.351 29.4968 136.364 29.5599L137.943 37.1616C137.954 37.2124 137.982 37.2566 138.024 37.2876C142.234 40.431 148.508 45.1151 154.072 45.1151V45.1132ZM154.684 44.6693C149.156 45.0464 142.668 40.2232 138.346 36.996L136.839 29.7414C138.786 29.8966 142.878 31.1664 144.966 32.455C145.042 32.501 145.137 32.4973 145.207 32.4455C145.277 32.3938 145.309 32.3045 145.286 32.2198L143.258 24.793C143.247 24.7554 143.227 24.7206 143.197 24.6933L141.837 23.4358L141.361 22.1359C141.092 21.4013 141.255 20.5849 141.785 20.0064L142.64 19.0743L142.959 21.1577C142.93 21.4972 143.087 21.8246 143.374 22.0164C143.67 22.214 144.048 22.2309 144.361 22.0607C144.368 22.0569 144.375 22.0522 144.383 22.0475L146.548 20.5078C146.696 21.0683 146.675 21.8556 146.655 22.6203C146.624 23.8017 146.591 25.0244 147.144 25.6856C152.81 32.4756 156.48 42.8483 154.684 44.6683V44.6693Z" fill="#212B36"/>
<path d="M128.516 35.4854L139.756 40.5335C142.865 35.7995 142.521 32.7878 141.806 28.7744L134.004 28.2401C133.701 28.0643 128.437 28.6634 130.042 30.5709L128.516 35.4854H128.516Z" fill="white"/>
<path d="M139.756 40.7475C139.827 40.7475 139.895 40.7127 139.936 40.6515C143.02 35.9562 142.78 33.0197 142.017 28.7401C142 28.6442 141.919 28.5727 141.821 28.5652L134.03 28.0319C133.432 27.9068 130.618 28.2642 129.783 29.2377C129.578 29.4775 129.318 29.9676 129.806 30.6166L128.312 35.4248C128.277 35.5367 128.341 35.6552 128.454 35.69C128.566 35.7239 128.687 35.6618 128.721 35.5499L130.247 30.6354C130.268 30.5667 130.253 30.4924 130.207 30.4378C129.849 30.0118 129.943 29.754 130.044 29.5979C130.644 28.6771 133.59 28.3601 133.914 28.4354C133.938 28.4466 133.963 28.4523 133.989 28.4542L141.624 28.9771C142.337 33.0197 142.531 35.8509 139.676 40.2678L136.974 39.0545C136.867 39.0055 136.74 39.0535 136.691 39.1598C136.643 39.2661 136.69 39.3921 136.798 39.4401L139.668 40.7296C139.696 40.7428 139.727 40.7484 139.756 40.7484V40.7475Z" fill="#212B36"/>
<path d="M147.649 38.9105C147.687 38.9105 147.725 38.9002 147.761 38.8795C147.861 38.8183 147.894 38.6885 147.832 38.5888C146.782 36.8798 145.926 34.7372 145.287 32.2211C145.258 32.1073 145.141 32.0387 145.027 32.0669C144.912 32.0951 144.843 32.2108 144.871 32.3237C145.521 34.882 146.393 37.0632 147.466 38.8089C147.506 38.8748 147.577 38.9105 147.649 38.9105Z" fill="#212B36"/>
<path d="M131.664 16.3907C134.211 17.193 134.287 18.7007 137.074 15.6486C138.39 14.2076 137.066 11.1093 134.636 10.0032C132.208 8.8971 130.114 9.60159 129.293 11.3652C128.473 13.1287 129.739 15.784 131.664 16.3897V16.3907Z" fill="#212B36"/>
<path d="M119.747 16.9463C119.848 16.1111 120.356 15.3775 121.109 14.9843L124.347 13.2941C126.176 12.3394 128.378 12.4175 130.133 13.4954C130.928 14.9175 131.881 16.2578 132.901 17.5445C133.022 18.2415 133.02 18.9648 132.875 19.6853L132.612 20.988C132.215 22.9623 130.775 24.5716 128.843 25.2018L120.316 18.3384C119.897 18.0017 119.682 17.4749 119.746 16.9454L119.747 16.9463Z" fill="#212B36"/>
<path d="M128.489 19.2193C128.304 19.3359 128.059 19.2654 127.969 19.0669C127.54 18.1207 126.301 16.6807 124.985 16.4258C123.3 16.1003 121.394 16.6713 121.015 17.941C120.683 19.049 121.061 19.6999 119.886 21.1597C119.773 21.2998 119.881 21.5143 120.029 21.6168L120.818 22.2272C120.985 22.342 121.136 22.7436 121.162 22.9421C121.243 23.5572 121.365 24.8665 121.588 25.0283C122.023 25.3452 124.136 25.1496 124.136 25.1496L126.017 30.8156C126.088 31.031 125.965 31.2615 125.745 31.3235C125.745 31.3235 122.619 36.8203 125.76 36.8203C125.793 36.8203 129.187 38.233 130.829 30.1111C131.118 28.6805 129.031 25.9425 128.616 23.1669C128.593 23.007 128.658 22.8461 128.786 22.7455C129.276 22.3599 130.593 21.2274 130.321 20.1298C130.032 18.9634 129.131 18.8148 128.491 19.2165L128.489 19.2193Z" fill="white"/>
<path d="M126.373 37.1279C126.737 37.1279 127.198 37.0442 127.703 36.7536C129.206 35.8882 130.328 33.6675 131.038 30.1545C131.2 29.3512 130.705 28.2376 130.132 26.9481C129.613 25.7789 129.023 24.4546 128.826 23.1369C128.814 23.0522 128.848 22.9666 128.918 22.913C129.64 22.3449 130.811 21.2209 130.527 20.0809C130.339 19.3219 129.931 19.0153 129.622 18.893C129.227 18.7359 128.772 18.7895 128.375 19.0397C128.324 19.0708 128.278 19.0642 128.253 19.0566C128.23 19.0501 128.187 19.0303 128.165 18.9786C127.721 17.9976 126.453 16.4917 125.027 16.217C123.336 15.8897 121.243 16.4334 120.81 17.88C120.702 18.2421 120.666 18.5525 120.632 18.8535C120.557 19.5044 120.491 20.0678 119.719 21.0262C119.644 21.1193 119.613 21.2388 119.631 21.3629C119.654 21.5238 119.76 21.6865 119.906 21.789L120.686 22.3929C120.782 22.4596 120.925 22.7785 120.949 22.9685C120.962 23.0626 120.975 23.1726 120.989 23.293C121.133 24.4781 121.235 25.034 121.46 25.1986C121.884 25.5071 123.397 25.4215 123.983 25.3754L125.812 30.8825C125.829 30.9314 125.824 30.9831 125.8 31.0283C125.775 31.0734 125.734 31.1064 125.685 31.1205C125.631 31.1355 125.585 31.1713 125.558 31.2202C125.473 31.3688 123.495 34.8818 124.374 36.3689C124.63 36.8025 125.085 37.0254 125.726 37.0329C125.865 37.0762 126.089 37.127 126.373 37.127V37.1279ZM129.155 19.2297C129.262 19.2297 129.365 19.2485 129.462 19.2871C129.772 19.4103 129.997 19.7197 130.112 20.1825C130.346 21.1259 129.169 22.1747 128.651 22.5819C128.463 22.7296 128.369 22.9666 128.403 23.1999C128.609 24.5741 129.209 25.9257 129.74 27.1193C130.284 28.3429 130.753 29.3992 130.618 30.0717C129.764 34.293 128.444 35.8365 127.487 36.3877C126.711 36.8345 126.078 36.7028 125.841 36.6257C125.819 36.6191 125.782 36.6106 125.759 36.6106C125.256 36.6106 124.924 36.462 124.744 36.1563C124.131 35.1189 125.332 32.505 125.893 31.4958C126.015 31.4403 126.115 31.3471 126.178 31.2277C126.257 31.08 126.273 30.9107 126.219 30.7508L124.338 25.0848C124.306 24.9907 124.215 24.9296 124.114 24.9399C123.271 25.018 121.969 25.0443 121.715 24.8591C121.593 24.7142 121.468 23.6843 121.415 23.245C121.4 23.1237 121.387 23.0108 121.374 22.9158C121.347 22.708 121.186 22.2254 120.941 22.0552L120.161 21.4514C120.079 21.394 120.048 21.3131 120.054 21.2915C120.902 20.238 120.981 19.5589 121.057 18.9033C121.089 18.6212 121.123 18.3286 121.221 18.0023C121.574 16.8218 123.433 16.3421 124.945 16.6347C126.207 16.8783 127.379 18.2816 127.775 19.1535C127.842 19.3031 127.973 19.4169 128.131 19.4639C128.291 19.5119 128.464 19.4874 128.606 19.3981C128.784 19.2861 128.974 19.2297 129.157 19.2297H129.155Z" fill="#212B36"/>
<path d="M116.144 34.2606L116.265 33.273C116.333 32.7237 116.718 32.2628 117.249 32.0925C118.755 31.6119 120.285 31.2385 121.856 31.0494C122.122 31.0175 122.319 31.2912 122.196 31.5282L121.904 32.0925C121.427 33.0162 120.545 33.6727 119.512 33.8561C118.587 34.0198 117.452 34.1533 116.143 34.2615L116.144 34.2606Z" fill="white"/>
<path d="M116.143 34.4717C116.149 34.4717 116.155 34.4717 116.162 34.4717C117.513 34.3598 118.653 34.2225 119.551 34.0635C120.637 33.8707 121.588 33.17 122.096 32.188L122.388 31.6237C122.48 31.445 122.466 31.2314 122.349 31.0668C122.232 30.9013 122.033 30.8129 121.831 30.8383C120.372 31.0142 118.853 31.3584 117.185 31.8898C116.575 32.0845 116.131 32.6169 116.053 33.2462L115.931 34.2338C115.924 34.2968 115.945 34.3607 115.989 34.4059C116.03 34.4473 116.085 34.4708 116.143 34.4708V34.4717ZM121.899 31.2578C121.955 31.2578 121.987 31.2935 121.998 31.3095C122.011 31.3264 122.036 31.3735 122.007 31.4308L121.715 31.9952C121.268 32.8596 120.43 33.4775 119.476 33.6468C118.649 33.7936 117.611 33.9215 116.389 34.0278L116.479 33.2988C116.537 32.8323 116.865 32.4382 117.317 32.2952C118.959 31.7713 120.452 31.4327 121.883 31.2606C121.889 31.2606 121.895 31.2597 121.9 31.2597L121.899 31.2578Z" fill="#212B36"/>
<path d="M0 72.498C0 67.5275 4.02944 63.498 9 63.498H95.1638C100.134 63.498 104.164 67.5275 104.164 72.498V110.528C104.164 115.498 100.134 119.528 95.1638 119.528H9C4.02944 119.528 0 115.498 0 110.528V72.498Z" fill="#212B36"/>
<path d="M21.3613 105.508V86.0145H16.7173V83.0445C18.2053 83.0445 19.4053 82.9065 20.3173 82.6305C21.2413 82.3425 21.9313 81.9345 22.3873 81.4065C22.8433 80.8665 23.1133 80.2245 23.1973 79.4805H26.6893V105.508H21.3613Z" fill="#C8FACD"/>
<path d="M53.6797 105.508H48.2257L43.9957 95.4825H38.7217V105.508H33.4837V79.4805H44.4637C46.5397 79.4805 48.2377 79.8105 49.5577 80.4705C50.8777 81.1305 51.8497 82.0485 52.4737 83.2245C53.0977 84.3885 53.4097 85.7325 53.4097 87.2565C53.4097 88.6245 53.1937 89.7825 52.7617 90.7305C52.3417 91.6665 51.7837 92.4465 51.0877 93.0705C50.4037 93.6945 49.6537 94.2045 48.8377 94.6005L53.6797 105.508ZM43.5277 91.4325C44.9317 91.4325 46.0417 91.0545 46.8577 90.2985C47.6857 89.5425 48.0997 88.5705 48.0997 87.3825C48.0997 86.1825 47.7037 85.2345 46.9117 84.5385C46.1197 83.8425 45.1177 83.4945 43.9057 83.4945H38.7217V91.4325H43.5277Z" fill="#C8FACD"/>
<path d="M58.5501 105.508V79.4805H66.1821L72.1401 98.0385L78.1521 79.4805H85.7661V105.508H80.4561V85.6005L74.1921 105.508H70.0701L63.8421 85.6905V105.508H58.5501Z" fill="#C8FACD"/>
<path d="M66.6567 13.0709C66.5352 13.0709 66.4265 12.9862 66.401 12.8638C66.3721 12.7241 66.4647 12.5879 66.6058 12.5604C68.9012 12.1049 71.2439 11.7398 73.5705 11.4765C73.7128 11.4593 73.8424 11.5612 73.8586 11.7031C73.8748 11.8451 73.7718 11.9721 73.6295 11.9881C71.3168 12.2502 68.9879 12.6131 66.7076 13.0664C66.6903 13.0698 66.6729 13.0709 66.6556 13.0709H66.6567Z" fill="#212B36"/>
<path d="M30.1048 30.1101C30.0284 30.1101 29.9532 30.0781 29.9023 30.0151C29.8121 29.9041 29.8294 29.7427 29.9405 29.6523C34.0036 26.3925 38.4185 23.4806 43.0612 20.9979C50.4864 17.0273 58.4078 14.1887 66.6058 12.5599C66.7481 12.5313 66.8846 12.6229 66.9124 12.7614C66.9413 12.901 66.8488 13.0372 66.7076 13.0647C58.5617 14.6832 50.6888 17.5046 43.3088 21.4501C38.6938 23.9178 34.3067 26.8114 30.2691 30.0506C30.2205 30.0895 30.1626 30.1078 30.1048 30.1078V30.1101Z" fill="#212B36"/>
<path d="M34.5967 17.4772C34.5374 17.4772 34.4771 17.4536 34.4356 17.4081C34.3593 17.3259 34.3696 17.2008 34.4591 17.13C38.3493 14.0375 42.6249 11.3141 47.1663 9.0359C55.1106 5.05139 63.6599 2.50554 72.5758 1.47005C72.6907 1.45781 72.7982 1.53303 72.8123 1.64147C72.8265 1.74992 72.7445 1.84787 72.6276 1.86098C63.7635 2.89122 55.2651 5.42221 47.367 9.3831C42.852 11.6473 38.6019 14.355 34.7334 17.4291C34.6938 17.4606 34.6439 17.4763 34.5958 17.4763L34.5967 17.4772Z" fill="#212B36"/>
<path d="M9.34028 10.5038C9.11347 10.5038 8.9257 10.3236 8.92199 10.0992L8.87366 7.89569C8.86808 7.66762 9.05212 7.47817 9.28265 7.47266H9.29196C9.51876 7.47266 9.70467 7.6529 9.71025 7.87729L9.75858 10.0808C9.76416 10.3088 9.58011 10.4983 9.34959 10.5038H9.34028Z" fill="#212B36"/>
<path d="M9.50729 18.2168C9.28048 18.2168 9.09457 18.0366 9.08899 17.8122L9.04065 15.6087C9.03507 15.3806 9.21913 15.1912 9.44965 15.1857C9.67646 15.1802 9.87167 15.3622 9.87724 15.5903L9.92558 17.7938C9.93116 18.0219 9.74711 18.2113 9.51658 18.2168H9.50729Z" fill="#212B36"/>
<path d="M4.46371 13.2974C4.23318 13.2974 4.04727 13.1134 4.04541 12.8872C4.04541 12.6573 4.22946 12.4715 4.45998 12.4697L6.65373 12.4531H6.65744C6.88797 12.4531 7.07388 12.6371 7.07573 12.8633C7.07573 13.0914 6.89169 13.279 6.66116 13.2808L4.46743 13.2974H4.46371Z" fill="#212B36"/>
<path d="M12.1434 13.2368C11.9129 13.2368 11.727 13.0529 11.7251 12.8266C11.7251 12.5986 11.9091 12.411 12.1397 12.4091L14.3334 12.3926H14.3371C14.5677 12.3926 14.7536 12.5765 14.7554 12.8027C14.7554 13.0326 14.5714 13.2184 14.3408 13.2203L12.1471 13.2368H12.1434Z" fill="#212B36"/>
<path d="M27.3269 23.5947C27.0804 23.5947 26.834 23.5489 26.5968 23.4585C26.082 23.2605 25.6759 22.8713 25.4549 22.3643C25.0026 21.3273 25.4723 20.1117 26.5008 19.655C26.9971 19.4341 27.5478 19.4204 28.0546 19.6149C28.5694 19.813 28.9755 20.2021 29.1965 20.7092C29.6488 21.7462 29.1791 22.9618 28.1506 23.4185C27.8868 23.5352 27.6068 23.5947 27.3269 23.5947ZM26.7148 20.1243C25.9443 20.4665 25.5938 21.3799 25.9339 22.1594C26.0994 22.5394 26.4025 22.8301 26.7866 22.9778C27.1614 23.122 27.571 23.1117 27.9389 22.948C28.7094 22.6058 29.0599 21.6924 28.7198 20.9129C28.5544 20.5329 28.2512 20.2422 27.8671 20.0945C27.4923 19.9503 27.0827 19.9606 26.7148 20.1243Z" fill="#212B36"/>
<path d="M166.61 10.016C168.867 15.6616 166.108 21.8475 161.725 23.563C157.341 25.2786 152.992 21.8742 150.735 16.2287C148.478 10.5831 148.643 5.19798 153.026 3.48241C157.41 1.76684 164.352 4.3705 166.61 10.016Z" fill="#212B36"/>
<path d="M166.831 9.69005C169.088 15.3356 167.834 21.1191 164.03 22.6079C160.226 24.0967 155.312 20.727 153.055 15.0815C150.797 9.43598 152.051 3.65246 155.856 2.16365C159.66 0.67484 164.574 4.04453 166.831 9.69005Z" fill="#212B36"/>
<path fill-rule="evenodd" clip-rule="evenodd" d="M167.213 17.6001C167.697 15.3716 167.462 12.6154 166.365 9.87227C165.268 7.12912 163.534 4.96004 161.64 3.66165C159.744 2.3611 157.741 1.96273 156.041 2.62791C154.342 3.2931 153.156 4.9393 152.672 7.17148C152.189 9.39996 152.423 12.1561 153.52 14.8993C154.617 17.6424 156.352 19.8115 158.245 21.1099C160.142 22.4105 162.145 22.8088 163.844 22.1436C165.544 21.4785 166.729 19.8323 167.213 17.6001ZM164.03 22.6079C167.834 21.1191 169.088 15.3356 166.831 9.69005C164.574 4.04453 159.66 0.67484 155.856 2.16365C152.051 3.65246 150.797 9.43598 153.055 15.0815C155.312 20.727 160.226 24.0967 164.03 22.6079Z" fill="white"/>
<path d="M167.343 9.3958C169.093 13.7738 168.171 18.2389 165.284 19.3688C162.397 20.4988 158.638 17.8657 156.887 13.4877C155.137 9.10963 156.058 4.64455 158.945 3.51462C161.832 2.38469 165.592 5.01778 167.343 9.3958Z" fill="#212B36"/>
<path fill-rule="evenodd" clip-rule="evenodd" d="M167.562 15.4975C167.912 13.8009 167.721 11.6894 166.877 9.57802C166.033 7.46662 164.712 5.79757 163.283 4.79706C161.851 3.7937 160.367 3.49498 159.131 3.97889C157.894 4.46279 157.019 5.68447 156.668 7.38593C156.318 9.08254 156.508 11.194 157.353 13.3054C158.197 15.4168 159.518 17.0859 160.946 18.0864C162.379 19.0898 163.862 19.3885 165.099 18.9046C166.335 18.4207 167.21 17.199 167.562 15.4975ZM165.284 19.3688C168.171 18.2389 169.093 13.7738 167.343 9.3958C165.592 5.01778 161.832 2.38469 158.945 3.51462C156.058 4.64455 155.137 9.10963 156.887 13.4877C158.638 17.8657 162.397 20.4988 165.284 19.3688Z" fill="white"/>
<path d="M106.853 38.8823C108.707 43.5204 107.87 48.1964 104.983 49.3263C102.096 50.4562 98.2518 47.6123 96.3973 42.9742C94.5429 38.3361 95.3801 33.6602 98.2673 32.5302C101.155 31.4003 104.998 34.2442 106.853 38.8823Z" fill="#212B36"/>
<path fill-rule="evenodd" clip-rule="evenodd" d="M107.202 45.3299C107.522 43.5451 107.285 41.3111 106.387 39.0646C105.489 36.818 104.117 35.0285 102.65 33.9429C101.175 32.8521 99.6765 32.5157 98.4529 32.9945C97.2294 33.4734 96.3688 34.7332 96.0477 36.5267C95.7281 38.3115 95.9647 40.5454 96.863 42.792C97.7612 45.0385 99.1333 46.8281 100.601 47.9136C102.075 49.0044 103.574 49.3409 104.797 48.862C106.021 48.3832 106.881 47.1233 107.202 45.3299ZM104.983 49.3263C107.87 48.1964 108.707 43.5204 106.853 38.8823C104.998 34.2442 101.155 31.4003 98.2673 32.5302C95.3801 33.6602 94.5429 38.3361 96.3973 42.9742C98.2518 47.6123 102.096 50.4562 104.983 49.3263Z" fill="white"/>
<path d="M168.389 9.2878C169.673 12.5 169.082 15.7427 167.07 16.5304C165.057 17.3182 162.384 15.3528 161.099 12.1405C159.815 8.92826 160.406 5.68562 162.419 4.89786C164.431 4.11011 167.104 6.07555 168.389 9.2878Z" fill="#212B36"/>
<path fill-rule="evenodd" clip-rule="evenodd" d="M168.472 13.7268C168.692 12.5217 168.536 11.0031 167.923 9.47002C167.31 7.93696 166.374 6.72382 165.38 5.99337C164.38 5.25797 163.392 5.05378 162.604 5.36213C161.816 5.67048 161.237 6.48818 161.016 7.70147C160.796 8.90659 160.952 10.4252 161.565 11.9583C162.178 13.4913 163.114 14.7045 164.108 15.4349C165.108 16.1703 166.096 16.3745 166.884 16.0662C167.672 15.7578 168.251 14.9401 168.472 13.7268ZM167.07 16.5304C169.082 15.7427 169.673 12.5 168.389 9.2878C167.104 6.07555 164.431 4.11011 162.419 4.89786C160.406 5.68562 159.815 8.92826 161.099 12.1405C162.384 15.3528 165.057 17.3182 167.07 16.5304Z" fill="white"/>
<path d="M162.381 10.3925C162.065 9.71727 162.357 8.91771 163.035 8.60659L171.071 4.91797C171.748 4.60684 172.554 4.90198 172.871 5.57718C173.188 6.25237 172.895 7.05193 172.217 7.36305L164.182 11.0517C163.504 11.3628 162.698 11.0677 162.381 10.3925Z" fill="#212B36"/>
<path d="M112.221 36.7037C114.478 42.3493 113.224 48.1328 109.42 49.6216C105.616 51.1104 100.702 47.7407 98.4445 42.0952C96.1873 36.4497 97.4413 30.6661 101.246 29.1773C105.05 27.6885 109.964 31.0582 112.221 36.7037Z" fill="#212B36"/>
<path fill-rule="evenodd" clip-rule="evenodd" d="M112.603 44.6138C113.087 42.3853 112.852 39.6291 111.755 36.8859C110.658 34.1428 108.924 31.9737 107.03 30.6753C105.134 29.3748 103.131 28.9764 101.431 29.6416C99.7315 30.3068 98.546 31.953 98.062 34.1851C97.5788 36.4136 97.8134 39.1698 98.9102 41.913C100.007 44.6561 101.742 46.8252 103.635 48.1236C105.532 49.4241 107.534 49.8225 109.234 49.1573C110.934 48.4921 112.119 46.8459 112.603 44.6138ZM109.42 49.6216C113.224 48.1328 114.478 42.3493 112.221 36.7037C109.964 31.0582 105.05 27.6885 101.246 29.1773C97.4413 30.6661 96.1873 36.4497 98.4445 42.0952C100.702 47.7407 105.616 51.1104 109.42 49.6216Z" fill="white"/>
<path d="M105.374 39.9802C105.086 39.3666 105.352 38.6399 105.968 38.3572L112.692 35.2704C113.308 34.9877 114.041 35.2559 114.328 35.8695C114.616 36.4831 114.35 37.2097 113.734 37.4925L107.01 40.5792C106.394 40.862 105.661 40.5937 105.374 39.9802Z" fill="#212B36"/>
<path fill-rule="evenodd" clip-rule="evenodd" d="M105.925 38.2667L112.65 35.1799C113.316 34.8741 114.108 35.1642 114.419 35.8278C114.731 36.4914 114.443 37.2772 113.777 37.583L107.052 40.6698C106.386 40.9755 105.594 40.6855 105.283 40.0219C104.972 39.3583 105.259 38.5724 105.925 38.2667ZM105.968 38.3572C105.352 38.6399 105.086 39.3665 105.374 39.9801C105.661 40.5937 106.394 40.862 107.01 40.5792L113.734 37.4924C114.35 37.2097 114.616 36.4831 114.328 35.8695C114.041 35.2559 113.308 34.9877 112.692 35.2704L105.968 38.3572Z" fill="white"/>
<path d="M108.245 38.6569C107.958 38.046 108.223 37.3226 108.836 37.0411L115.465 33.9985C115.539 33.9641 115.618 33.9376 115.698 33.9194C117.088 33.6034 117.773 35.5432 116.484 36.1484L109.884 39.2488C109.269 39.5375 108.533 39.2716 108.245 38.6569Z" fill="#212B36"/>
<path d="M69 60.8973C69 59.0038 70.535 57.4688 72.4286 57.4688H90.5714C92.465 57.4688 94 59.0038 94 60.8973V71.0402C94 72.9337 92.465 74.4688 90.5714 74.4688H72.4286C70.535 74.4688 69 72.9337 69 71.0402V60.8973Z" fill="white"/>
<path fill-rule="evenodd" clip-rule="evenodd" d="M90.5714 58.3259H72.4286C71.0084 58.3259 69.8571 59.4772 69.8571 60.8973V71.0402C69.8571 72.4603 71.0084 73.6116 72.4286 73.6116H90.5714C91.9916 73.6116 93.1429 72.4603 93.1429 71.0402V60.8973C93.1429 59.4772 91.9916 58.3259 90.5714 58.3259ZM72.4286 57.4688C70.535 57.4688 69 59.0038 69 60.8973V71.0402C69 72.9337 70.535 74.4688 72.4286 74.4688H90.5714C92.465 74.4688 94 72.9337 94 71.0402V60.8973C94 59.0038 92.465 57.4688 90.5714 57.4688H72.4286Z" fill="#212B36"/>
<path d="M81.2433 69.4686H79.9343L77.5528 65.4866L76.2328 67.0211V69.4686H75.0063V61.5156H76.2328V65.5031L79.6153 61.5156H81.0013L78.4053 64.6286L81.2433 69.4686Z" fill="#212B36"/>
<path d="M84.8668 71.3496C83.9428 71.3496 83.2278 71.2195 82.7218 70.9591C82.2158 70.7025 81.9628 70.3431 81.9628 69.8811C81.9628 69.6795 82.0105 69.509 82.1058 69.3696C82.2048 69.2266 82.3203 69.1093 82.4523 69.0176C82.588 68.926 82.7126 68.8545 82.8263 68.8031C82.94 68.7481 83.0133 68.7096 83.0463 68.6876C82.984 68.651 82.9033 68.6051 82.8043 68.5501C82.709 68.4915 82.6228 68.4145 82.5458 68.3191C82.4688 68.2201 82.4303 68.0918 82.4303 67.9341C82.4303 67.7508 82.5165 67.5821 82.6888 67.4281C82.8648 67.2705 83.127 67.155 83.4753 67.0816C83.1306 66.913 82.863 66.6856 82.6723 66.3996C82.4853 66.1136 82.3918 65.8093 82.3918 65.4866C82.3918 65.1163 82.4963 64.7973 82.7053 64.5296C82.9143 64.2583 83.2077 64.0511 83.5853 63.9081C83.9667 63.7651 84.414 63.6936 84.9273 63.6936C85.3013 63.6936 85.6148 63.7358 85.8678 63.8201C86.1208 63.9045 86.3537 64.0218 86.5663 64.1721C86.636 64.1465 86.735 64.108 86.8633 64.0566C86.9916 64.0016 87.1328 63.943 87.2868 63.8806C87.4445 63.8183 87.593 63.7578 87.7323 63.6991C87.8753 63.6405 87.9908 63.5928 88.0788 63.5561L88.0733 64.5791L87.0833 64.7606C87.1347 64.8706 87.175 64.9916 87.2043 65.1236C87.2373 65.2556 87.2538 65.3766 87.2538 65.4866C87.2538 65.8166 87.164 66.121 86.9843 66.3996C86.8047 66.6746 86.5351 66.8946 86.1758 67.0596C85.8165 67.2246 85.3673 67.3071 84.8283 67.3071C84.777 67.3071 84.711 67.3071 84.6303 67.3071C84.5496 67.3035 84.4818 67.298 84.4268 67.2906C84.0858 67.3016 83.8511 67.342 83.7228 67.4116C83.5945 67.4776 83.5303 67.551 83.5303 67.6316C83.5303 67.7343 83.6128 67.804 83.7778 67.8406C83.9428 67.8773 84.2141 67.9085 84.5918 67.9341C84.7275 67.9451 84.8998 67.9561 85.1088 67.9671C85.3215 67.9781 85.5562 67.9928 85.8128 68.0111C86.4361 68.0478 86.911 68.2036 87.2373 68.4786C87.5673 68.7536 87.7323 69.1185 87.7323 69.5731C87.7323 70.0938 87.4958 70.5191 87.0228 70.8491C86.5498 71.1828 85.8312 71.3496 84.8668 71.3496ZM85.0703 70.6291C85.5726 70.6291 85.9503 70.5558 86.2033 70.4091C86.46 70.2661 86.5883 70.0516 86.5883 69.7656C86.5883 69.553 86.5058 69.3788 86.3408 69.2431C86.1758 69.1075 85.9301 69.0286 85.6038 69.0066L84.0858 68.9076C83.9355 68.9003 83.7851 68.9333 83.6348 69.0066C83.4881 69.08 83.3653 69.1826 83.2663 69.3146C83.171 69.443 83.1233 69.586 83.1233 69.7436C83.1233 70.0296 83.281 70.2478 83.5963 70.3981C83.9153 70.5521 84.4066 70.6291 85.0703 70.6291ZM84.8613 66.5866C85.2427 66.5866 85.5488 66.495 85.7798 66.3116C86.0145 66.1246 86.1318 65.857 86.1318 65.5086C86.1318 65.1493 86.0145 64.8725 85.7798 64.6781C85.5488 64.4801 85.2427 64.3811 84.8613 64.3811C84.4763 64.3811 84.1646 64.4801 83.9263 64.6781C83.6916 64.8761 83.5743 65.153 83.5743 65.5086C83.5743 65.846 83.6861 66.11 83.9098 66.3006C84.1371 66.4913 84.4543 66.5866 84.8613 66.5866Z" fill="#212B36"/>
<path d="M56 10.3918C56 8.77746 57.3087 7.46875 58.9231 7.46875H99.0769C100.691 7.46875 102 8.77746 102 10.3918V21.5457C102 23.16 100.691 24.4688 99.0769 24.4688H58.9231C57.3087 24.4688 56 23.16 56 21.5457V10.3918Z" fill="white"/>
<path fill-rule="evenodd" clip-rule="evenodd" d="M99.0769 8.19952H58.9231C57.7123 8.19952 56.7308 9.18105 56.7308 10.3918V21.5457C56.7308 22.7565 57.7123 23.738 58.9231 23.738H99.0769C100.288 23.738 101.269 22.7565 101.269 21.5457V10.3918C101.269 9.18105 100.288 8.19952 99.0769 8.19952ZM58.9231 7.46875C57.3087 7.46875 56 8.77746 56 10.3918V21.5457C56 23.16 57.3087 24.4688 58.9231 24.4688H99.0769C100.691 24.4688 102 23.16 102 21.5457V10.3918C102 8.77746 100.691 7.46875 99.0769 7.46875H58.9231Z" fill="#212B36"/>
<path d="M71.2907 11.5149L68.9642 19.4679H67.9302L66.2527 13.5664L64.5532 19.4679H63.5467L61.2422 11.5149H62.4192L64.1022 17.5539L65.8072 11.5149H66.7092L68.4142 17.5539L70.1192 11.5149H71.2907Z" fill="#212B36"/>
<path d="M72.7111 16.8994C72.7111 17.2404 72.7661 17.5466 72.8761 17.8179C72.9898 18.0856 73.1603 18.2983 73.3876 18.4559C73.615 18.6099 73.8973 18.6869 74.2346 18.6869C74.572 18.6869 74.8635 18.6099 75.1091 18.4559C75.3585 18.3019 75.5216 18.0728 75.5986 17.7684H76.6876C76.6216 18.1571 76.4658 18.4871 76.2201 18.7584C75.9781 19.0298 75.6848 19.2351 75.3401 19.3744C74.9955 19.5101 74.6343 19.5779 74.2566 19.5779C73.7176 19.5779 73.2428 19.4624 72.8321 19.2314C72.4215 18.9968 72.1006 18.6631 71.8696 18.2304C71.6423 17.7978 71.5286 17.2826 71.5286 16.6849C71.5286 16.0946 71.6331 15.5739 71.8421 15.1229C72.0511 14.6683 72.3536 14.3126 72.7496 14.0559C73.1456 13.7993 73.6223 13.6709 74.1796 13.6709C74.7296 13.6709 75.1916 13.7883 75.5656 14.0229C75.9433 14.2576 76.2293 14.5876 76.4236 15.0129C76.618 15.4346 76.7151 15.9333 76.7151 16.5089V16.8994H72.7111ZM72.7111 16.1349H75.5931C75.5931 15.8379 75.5418 15.5684 75.4391 15.3264C75.3365 15.0808 75.1788 14.8883 74.9661 14.7489C74.7571 14.6059 74.4931 14.5344 74.1741 14.5344C73.8478 14.5344 73.5765 14.6133 73.3601 14.7709C73.1438 14.9286 72.9806 15.1303 72.8706 15.3759C72.7643 15.6216 72.7111 15.8746 72.7111 16.1349Z" fill="#212B36"/>
<path d="M79.2721 13.7809V19.4679H78.1391V13.7809H79.2721ZM79.2941 11.5204V12.6809H78.1116V11.5204H79.2941Z" fill="#212B36"/>
<path d="M83.4043 21.3489C82.4803 21.3489 81.7653 21.2188 81.2593 20.9584C80.7533 20.7018 80.5003 20.3424 80.5003 19.8804C80.5003 19.6788 80.5479 19.5083 80.6433 19.3689C80.7423 19.2259 80.8578 19.1086 80.9898 19.0169C81.1254 18.9253 81.2501 18.8538 81.3638 18.8024C81.4774 18.7474 81.5508 18.7089 81.5838 18.6869C81.5214 18.6503 81.4408 18.6044 81.3418 18.5494C81.2464 18.4908 81.1603 18.4138 81.0833 18.3184C81.0063 18.2194 80.9678 18.0911 80.9678 17.9334C80.9678 17.7501 81.0539 17.5814 81.2263 17.4274C81.4023 17.2698 81.6644 17.1543 82.0128 17.0809C81.6681 16.9123 81.4004 16.6849 81.2098 16.3989C81.0228 16.1129 80.9293 15.8086 80.9293 15.4859C80.9293 15.1156 81.0338 14.7966 81.2428 14.5289C81.4518 14.2576 81.7451 14.0504 82.1228 13.9074C82.5041 13.7644 82.9514 13.6929 83.4648 13.6929C83.8388 13.6929 84.1523 13.7351 84.4053 13.8194C84.6583 13.9038 84.8911 14.0211 85.1038 14.1714C85.1734 14.1458 85.2724 14.1073 85.4008 14.0559C85.5291 14.0009 85.6703 13.9423 85.8243 13.8799C85.9819 13.8176 86.1304 13.7571 86.2698 13.6984C86.4128 13.6398 86.5283 13.5921 86.6163 13.5554L86.6108 14.5784L85.6208 14.7599C85.6721 14.8699 85.7124 14.9909 85.7418 15.1229C85.7748 15.2549 85.7913 15.3759 85.7913 15.4859C85.7913 15.8159 85.7014 16.1203 85.5218 16.3989C85.3421 16.6739 85.0726 16.8939 84.7133 17.0589C84.3539 17.2239 83.9048 17.3064 83.3658 17.3064C83.3144 17.3064 83.2484 17.3064 83.1678 17.3064C83.0871 17.3028 83.0193 17.2973 82.9643 17.2899C82.6233 17.3009 82.3886 17.3413 82.2603 17.4109C82.1319 17.4769 82.0678 17.5503 82.0678 17.6309C82.0678 17.7336 82.1503 17.8033 82.3153 17.8399C82.4803 17.8766 82.7516 17.9078 83.1293 17.9334C83.2649 17.9444 83.4373 17.9554 83.6463 17.9664C83.8589 17.9774 84.0936 17.9921 84.3503 18.0104C84.9736 18.0471 85.4484 18.2029 85.7748 18.4779C86.1048 18.7529 86.2698 19.1178 86.2698 19.5724C86.2698 20.0931 86.0333 20.5184 85.5603 20.8484C85.0873 21.1821 84.3686 21.3489 83.4043 21.3489ZM83.6078 20.6284C84.1101 20.6284 84.4878 20.5551 84.7408 20.4084C84.9974 20.2654 85.1258 20.0509 85.1258 19.7649C85.1258 19.5523 85.0433 19.3781 84.8783 19.2424C84.7133 19.1068 84.4676 19.0279 84.1413 19.0059L82.6233 18.9069C82.4729 18.8996 82.3226 18.9326 82.1723 19.0059C82.0256 19.0793 81.9028 19.1819 81.8038 19.3139C81.7084 19.4423 81.6608 19.5853 81.6608 19.7429C81.6608 20.0289 81.8184 20.2471 82.1338 20.3974C82.4528 20.5514 82.9441 20.6284 83.6078 20.6284ZM83.3988 16.5859C83.7801 16.5859 84.0863 16.4943 84.3173 16.3109C84.5519 16.1239 84.6693 15.8563 84.6693 15.5079C84.6693 15.1486 84.5519 14.8718 84.3173 14.6774C84.0863 14.4794 83.7801 14.3804 83.3988 14.3804C83.0138 14.3804 82.7021 14.4794 82.4638 14.6774C82.2291 14.8754 82.1118 15.1523 82.1118 15.5079C82.1118 15.8453 82.2236 16.1093 82.4473 16.2999C82.6746 16.4906 82.9918 16.5859 83.3988 16.5859Z" fill="#212B36"/>
<path d="M87.7938 19.4679V11.2949H88.9543V14.6114C89.0459 14.4611 89.1688 14.3181 89.3228 14.1824C89.4804 14.0468 89.6711 13.9368 89.8948 13.8524C90.1221 13.7644 90.3861 13.7204 90.6868 13.7204C91.0571 13.7204 91.3908 13.7901 91.6878 13.9294C91.9884 14.0651 92.2268 14.2631 92.4028 14.5234C92.5824 14.7801 92.6723 15.0863 92.6723 15.4419V19.4679H91.4953V15.6564C91.4953 15.3374 91.3853 15.0918 91.1653 14.9194C90.9453 14.7471 90.6629 14.6609 90.3183 14.6609C90.0873 14.6609 89.8673 14.7013 89.6583 14.7819C89.4529 14.8589 89.2861 14.9763 89.1578 15.1339C89.0331 15.2879 88.9708 15.4823 88.9708 15.7169V19.4679H87.7938Z" fill="#212B36"/>
<path d="M96.9651 14.6279H95.6891L95.6946 18.0214C95.6946 18.2084 95.713 18.3459 95.7496 18.4339C95.79 18.5183 95.8559 18.5733 95.9476 18.5989C96.0429 18.6209 96.1713 18.6319 96.3326 18.6319H96.9981V19.3964C96.9248 19.4258 96.8148 19.4514 96.6681 19.4734C96.5251 19.4954 96.34 19.5064 96.1126 19.5064C95.691 19.5064 95.3628 19.4496 95.1281 19.3359C94.8971 19.2223 94.7358 19.0591 94.6441 18.8464C94.5561 18.6301 94.5121 18.3698 94.5121 18.0654V14.6279H93.5881V13.7809H94.5451L94.8366 12.1089H95.6891V13.7754H96.9651V14.6279Z" fill="#212B36"/>
<path d="M0 37.9302C0 35.8869 1.65643 34.2305 3.69974 34.2305H60.3003C62.3436 34.2305 64 35.8869 64 37.9302V49.5262C64 51.5695 62.3436 53.226 60.3003 53.226H3.69974C1.65643 53.226 0 51.5695 0 49.5262V37.9302Z" fill="white"/>
<path fill-rule="evenodd" clip-rule="evenodd" d="M60.3003 35.1554H3.69974C2.16726 35.1554 0.924934 36.3977 0.924934 37.9302V49.5262C0.924934 51.0587 2.16726 52.301 3.69974 52.301H60.3003C61.8328 52.301 63.0751 51.0587 63.0751 49.5262V37.9302C63.0751 36.3977 61.8328 35.1554 60.3003 35.1554ZM3.69974 34.2305C1.65643 34.2305 0 35.8869 0 37.9302V49.5262C0 51.5695 1.65643 53.226 3.69974 53.226H60.3003C62.3436 53.226 64 51.5695 64 49.5262V37.9302C64 35.8869 62.3436 34.2305 60.3003 34.2305H3.69974Z" fill="#212B36"/>
<path d="M11.8253 47.4686H10.5878L9.17985 44.1411H7.18335V47.4686H6.00635V39.5156H9.16335C9.75368 39.5156 10.2432 39.6073 10.6318 39.7906C11.0205 39.9703 11.3102 40.227 11.5008 40.5606C11.6915 40.8943 11.7868 41.2885 11.7868 41.7431C11.7868 42.1721 11.7135 42.5296 11.5668 42.8156C11.4238 43.1016 11.2368 43.3345 11.0058 43.5141C10.7785 43.6938 10.5383 43.835 10.2853 43.9376L11.8253 47.4686ZM8.84435 43.1896C9.39801 43.1896 9.82701 43.0705 10.1313 42.8321C10.4357 42.5901 10.5878 42.2455 10.5878 41.7981C10.5878 41.3581 10.4485 41.0245 10.1698 40.7971C9.89485 40.5698 9.52085 40.4561 9.04785 40.4561H7.18335V43.1896H8.84435Z" fill="#212B36"/>
<path d="M14.0038 44.9001C14.0038 45.2411 14.0588 45.5473 14.1688 45.8186C14.2824 46.0863 14.4529 46.299 14.6803 46.4566C14.9076 46.6106 15.1899 46.6876 15.5273 46.6876C15.8646 46.6876 16.1561 46.6106 16.4018 46.4566C16.6511 46.3026 16.8143 46.0735 16.8913 45.7691H17.9803C17.9143 46.1578 17.7584 46.4878 17.5128 46.7591C17.2708 47.0305 16.9774 47.2358 16.6328 47.3751C16.2881 47.5108 15.9269 47.5786 15.5493 47.5786C15.0103 47.5786 14.5354 47.4631 14.1248 47.2321C13.7141 46.9975 13.3933 46.6638 13.1623 46.2311C12.9349 45.7985 12.8213 45.2833 12.8213 44.6856C12.8213 44.0953 12.9258 43.5746 13.1348 43.1236C13.3438 42.669 13.6463 42.3133 14.0423 42.0566C14.4383 41.8 14.9149 41.6716 15.4723 41.6716C16.0223 41.6716 16.4843 41.789 16.8583 42.0236C17.2359 42.2583 17.5219 42.5883 17.7163 43.0136C17.9106 43.4353 18.0078 43.934 18.0078 44.5096V44.9001H14.0038ZM14.0038 44.1356H16.8858C16.8858 43.8386 16.8344 43.5691 16.7318 43.3271C16.6291 43.0815 16.4714 42.889 16.2588 42.7496C16.0498 42.6066 15.7858 42.5351 15.4668 42.5351C15.1404 42.5351 14.8691 42.614 14.6528 42.7716C14.4364 42.9293 14.2733 43.131 14.1633 43.3766C14.0569 43.6223 14.0038 43.8753 14.0038 44.1356Z" fill="#212B36"/>
<path d="M19.3218 49.2396V41.7816H20.4988L20.5098 42.7276C20.5794 42.603 20.6693 42.4801 20.7793 42.3591C20.8893 42.2345 21.0194 42.1208 21.1698 42.0181C21.3238 41.9118 21.4979 41.8275 21.6923 41.7651C21.8903 41.7028 22.1084 41.6716 22.3468 41.6716C22.7941 41.6716 23.1883 41.7761 23.5293 41.9851C23.8739 42.1905 24.1416 42.5076 24.3323 42.9366C24.5266 43.362 24.6238 43.9028 24.6238 44.5591C24.6238 45.2191 24.5266 45.7728 24.3323 46.2201C24.1416 46.6675 23.8684 47.0066 23.5128 47.2376C23.1571 47.465 22.7354 47.5786 22.2478 47.5786C22.0131 47.5786 21.8023 47.5456 21.6153 47.4796C21.4283 47.4136 21.2633 47.3275 21.1203 47.2211C20.9773 47.1111 20.8544 46.9938 20.7518 46.8691C20.6528 46.7408 20.5703 46.6143 20.5043 46.4896V49.2396H19.3218ZM22.0003 46.6821C22.4366 46.6821 22.7941 46.5135 23.0728 46.1761C23.3551 45.8351 23.4963 45.3035 23.4963 44.5811C23.4963 43.9615 23.3661 43.472 23.1058 43.1126C22.8491 42.7496 22.4806 42.5681 22.0003 42.5681C21.5053 42.5681 21.1313 42.757 20.8783 43.1346C20.6253 43.5086 20.4988 43.9908 20.4988 44.5811C20.4988 44.9661 20.5538 45.3181 20.6638 45.6371C20.7774 45.9525 20.9461 46.2055 21.1698 46.3961C21.3934 46.5868 21.6703 46.6821 22.0003 46.6821Z" fill="#212B36"/>
<path d="M26.7762 44.9001C26.7762 45.2411 26.8312 45.5473 26.9412 45.8186C27.0549 46.0863 27.2254 46.299 27.4527 46.4566C27.6801 46.6106 27.9624 46.6876 28.2997 46.6876C28.6371 46.6876 28.9286 46.6106 29.1742 46.4566C29.4236 46.3026 29.5867 46.0735 29.6637 45.7691H30.7527C30.6867 46.1578 30.5309 46.4878 30.2852 46.7591C30.0432 47.0305 29.7499 47.2358 29.4052 47.3751C29.0606 47.5108 28.6994 47.5786 28.3217 47.5786C27.7827 47.5786 27.3079 47.4631 26.8972 47.2321C26.4866 46.9975 26.1657 46.6638 25.9347 46.2311C25.7074 45.7985 25.5937 45.2833 25.5937 44.6856C25.5937 44.0953 25.6982 43.5746 25.9072 43.1236C26.1162 42.669 26.4187 42.3133 26.8147 42.0566C27.2107 41.8 27.6874 41.6716 28.2447 41.6716C28.7947 41.6716 29.2567 41.789 29.6307 42.0236C30.0084 42.2583 30.2944 42.5883 30.4887 43.0136C30.6831 43.4353 30.7802 43.934 30.7802 44.5096V44.9001H26.7762ZM26.7762 44.1356H29.6582C29.6582 43.8386 29.6069 43.5691 29.5042 43.3271C29.4016 43.0815 29.2439 42.889 29.0312 42.7496C28.8222 42.6066 28.5582 42.5351 28.2392 42.5351C27.9129 42.5351 27.6416 42.614 27.4252 42.7716C27.2089 42.9293 27.0457 43.131 26.9357 43.3766C26.8294 43.6223 26.7762 43.8753 26.7762 44.1356Z" fill="#212B36"/>
<path d="M34.9599 42.6286H33.6839L33.6894 46.0221C33.6894 46.2091 33.7077 46.3466 33.7444 46.4346C33.7847 46.519 33.8507 46.574 33.9424 46.5996C34.0377 46.6216 34.1661 46.6326 34.3274 46.6326H34.9929V47.3971C34.9196 47.4265 34.8096 47.4521 34.6629 47.4741C34.5199 47.4961 34.3347 47.5071 34.1074 47.5071C33.6857 47.5071 33.3576 47.4503 33.1229 47.3366C32.8919 47.223 32.7306 47.0598 32.6389 46.8471C32.5509 46.6308 32.5069 46.3705 32.5069 46.0661V42.6286H31.5829V41.7816H32.5399L32.8314 40.1096H33.6839V41.7761H34.9599V42.6286Z" fill="#212B36"/>
<path d="M37.5911 41.7816V47.4686H36.4581V41.7816H37.5911ZM37.6131 39.5211V40.6816H36.4306V39.5211H37.6131Z" fill="#212B36"/>
<path d="M42.3827 42.6286H41.1067L41.1122 46.0221C41.1122 46.2091 41.1306 46.3466 41.1672 46.4346C41.2076 46.519 41.2736 46.574 41.3652 46.5996C41.4606 46.6216 41.5889 46.6326 41.7502 46.6326H42.4157V47.3971C42.3424 47.4265 42.2324 47.4521 42.0857 47.4741C41.9427 47.4961 41.7576 47.5071 41.5302 47.5071C41.1086 47.5071 40.7804 47.4503 40.5457 47.3366C40.3147 47.223 40.1534 47.0598 40.0617 46.8471C39.9737 46.6308 39.9297 46.3705 39.9297 46.0661V42.6286H39.0057V41.7816H39.9627L40.2542 40.1096H41.1067V41.7761H42.3827V42.6286Z" fill="#212B36"/>
<path d="M45.014 41.7816V47.4686H43.881V41.7816H45.014ZM45.036 39.5211V40.6816H43.8535V39.5211H45.036Z" fill="#212B36"/>
<path d="M49.0136 47.5786C48.4819 47.5786 48.0163 47.465 47.6166 47.2376C47.2206 47.0066 46.9126 46.673 46.6926 46.2366C46.4763 45.8003 46.3681 45.2723 46.3681 44.6526C46.3681 44.055 46.4708 43.5325 46.6761 43.0851C46.8851 42.6378 47.1876 42.2913 47.5836 42.0456C47.9796 41.7963 48.4581 41.6716 49.0191 41.6716C49.5544 41.6716 50.0183 41.789 50.4106 42.0236C50.8029 42.2546 51.1073 42.5938 51.3236 43.0411C51.5399 43.4848 51.6481 44.022 51.6481 44.6526C51.6481 45.2283 51.5454 45.7361 51.3401 46.1761C51.1384 46.6161 50.8414 46.9608 50.4491 47.2101C50.0604 47.4558 49.5819 47.5786 49.0136 47.5786ZM49.0191 46.6711C49.3418 46.6711 49.6113 46.5868 49.8276 46.4181C50.0476 46.2458 50.2126 46.0056 50.3226 45.6976C50.4326 45.386 50.4876 45.0266 50.4876 44.6196C50.4876 44.242 50.4381 43.8991 50.3391 43.5911C50.2438 43.2795 50.0879 43.032 49.8716 42.8486C49.6553 42.6653 49.3711 42.5736 49.0191 42.5736C48.6891 42.5736 48.4141 42.658 48.1941 42.8266C47.9741 42.9916 47.8073 43.2281 47.6936 43.5361C47.5836 43.8405 47.5286 44.2016 47.5286 44.6196C47.5286 44.99 47.5781 45.331 47.6771 45.6426C47.7761 45.9543 47.9356 46.2036 48.1556 46.3906C48.3756 46.5776 48.6634 46.6711 49.0191 46.6711Z" fill="#212B36"/>
<path d="M52.9126 47.4686V41.7816H54.0621V42.6011C54.1537 42.4471 54.2766 42.3023 54.4306 42.1666C54.5882 42.031 54.7808 41.921 55.0081 41.8366C55.2391 41.7523 55.5049 41.7101 55.8056 41.7101C56.1612 41.7101 56.4894 41.7816 56.7901 41.9246C57.0944 42.064 57.3382 42.284 57.5216 42.5846C57.7049 42.8816 57.7966 43.2666 57.7966 43.7396V47.4686H56.6196V43.8661C56.6196 43.4591 56.5096 43.1566 56.2896 42.9586C56.0732 42.7606 55.7927 42.6616 55.4481 42.6616C55.2171 42.6616 54.9971 42.7001 54.7881 42.7771C54.5791 42.8541 54.4104 42.9715 54.2821 43.1291C54.1537 43.2831 54.0896 43.4775 54.0896 43.7121V47.4686H52.9126Z" fill="#212B36"/>
</svg>
