<svg width="177" height="126" viewBox="0 0 177 126" fill="none" xmlns="http://www.w3.org/2000/svg">
<path fill-rule="evenodd" clip-rule="evenodd" d="M176 86.502H6V123.502H172C174.209 123.502 176 121.711 176 119.502V86.502ZM5 85.502V123.502C5 124.054 5.44772 124.502 6 124.502H172C174.761 124.502 177 122.263 177 119.502V85.502H5Z" fill="#212B36"/>
<path d="M87 18.502H129V20.502H87V18.502Z" fill="#212B36"/>
<path d="M115 45.502H148V47.502H115V45.502Z" fill="#212B36"/>
<path d="M96 72.502H129V74.502H96V72.502Z" fill="#212B36"/>
<path d="M0 80.502H170.155L177 85.502H5L0 80.502Z" fill="#212B36"/>
<path d="M64.0013 99.6602H66.0357C67.6286 99.6602 68.4238 100.724 68.4238 102.854C68.4238 103.667 68.3197 104.271 68.114 104.665C67.9071 105.059 67.5421 105.357 67.0165 105.559C67.6173 105.818 68.0287 106.149 68.2508 106.553C68.4765 106.951 68.5894 107.552 68.5894 108.356C68.5894 110.557 67.7139 111.658 65.9629 111.658H64V99.6615L64.0013 99.6602ZM65.4161 104.943C65.9981 104.943 66.4019 104.799 66.629 104.508C66.8547 104.203 66.9676 103.667 66.9676 102.9C66.9676 101.605 66.5349 100.958 65.6682 100.958H65.4876C65.4487 100.958 65.4249 100.961 65.4148 100.966V104.945L65.4161 104.943ZM65.4161 110.274C66.0319 110.274 66.4571 110.132 66.6929 109.847C66.9287 109.562 67.0466 109.046 67.0466 108.301C67.0466 107.555 66.9237 106.997 66.6791 106.692C66.4383 106.382 66.0181 106.226 65.4161 106.226V110.275V110.274Z" fill="#212B36"/>
<path d="M71.7165 99.6602H72.8855L75.2737 111.657H73.7874L73.3684 109.318H71.1596L70.7344 111.657H69.2908L71.7153 99.6602H71.7165ZM73.1527 108.067L72.8203 106.156C72.5996 104.855 72.4189 103.467 72.2797 101.991C72.212 102.711 72.1254 103.44 72.0201 104.179C71.9147 104.918 71.7893 105.701 71.6451 106.529L71.3704 108.067H73.1527Z" fill="#212B36"/>
<path d="M79.8703 99.9125V101.49C79.4138 101.137 79.0024 100.962 78.6361 100.962C78.241 100.962 77.9187 101.112 77.6691 101.413C77.4182 101.698 77.2941 102.079 77.2941 102.555C77.2941 102.975 77.3831 103.335 77.5612 103.636C77.6528 103.797 77.8033 104.004 78.0128 104.257C78.2222 104.511 78.4931 104.816 78.8243 105.174C79.4351 105.843 79.8515 106.419 80.0723 106.907C80.293 107.378 80.4047 107.956 80.4047 108.639C80.4047 109.567 80.1613 110.33 79.6759 110.931C79.1905 111.517 78.5671 111.809 77.807 111.809C77.1674 111.809 76.6205 111.62 76.169 111.242V109.641C76.7033 110.061 77.1887 110.271 77.6264 110.271C78.0353 110.271 78.3552 110.125 78.586 109.832C78.8167 109.539 78.9321 109.142 78.9321 108.639C78.9321 108.205 78.8431 107.813 78.665 107.466C78.5734 107.3 78.4455 107.109 78.2824 106.895C78.1194 106.68 77.9149 106.439 77.6691 106.176C77.289 105.772 76.9742 105.414 76.7234 105.104C76.4725 104.793 76.2881 104.52 76.1677 104.288C75.9369 103.832 75.8215 103.258 75.8215 102.564C75.8215 101.626 76.0473 100.882 76.5001 100.334C76.9566 99.7802 77.57 99.502 78.3401 99.502C78.8744 99.502 79.3837 99.6397 79.8703 99.9138V99.9125Z" fill="#212B36"/>
<path d="M83.4209 99.6602H84.5899L86.978 111.657H85.4917L85.0728 109.318H82.864L82.4388 111.657H80.9951L83.4196 99.6602H83.4209ZM84.857 108.067L84.5247 106.156C84.3039 104.855 84.1233 103.467 83.9828 101.991C83.9151 102.711 83.8285 103.44 83.7232 104.179C83.6178 104.918 83.4924 105.701 83.3481 106.529L83.0734 108.067H84.8558H84.857Z" fill="#212B36"/>
<path d="M87.8589 99.6602H89.3603V110.29H91.8136V111.658H87.8589V99.6615V99.6602Z" fill="#212B36"/>
<path d="M96.339 99.6602H97.6234L98.6042 104.556C98.7246 105.167 98.8338 105.779 98.9329 106.394C99.0319 107.008 99.121 107.651 99.2038 108.325C99.2138 108.237 99.2201 108.168 99.2251 108.12C99.2301 108.071 99.2351 108.036 99.2401 108.014L99.4496 106.64L99.6378 105.334L99.8033 104.471L100.676 99.6615H101.976L103 111.658H101.564L101.312 107.586C101.302 107.38 101.295 107.2 101.287 107.05C101.28 106.9 101.276 106.776 101.276 106.677L101.211 105.069L101.174 103.593C101.174 103.582 101.174 103.56 101.17 103.527C101.168 103.493 101.164 103.448 101.159 103.39L101.123 103.631C101.084 103.916 101.049 104.164 101.019 104.376C100.987 104.588 100.96 104.768 100.936 104.912L100.748 106.007L100.675 106.419L99.7368 111.657H98.7272L97.8466 107.134C97.7262 106.538 97.6196 105.933 97.5255 105.32C97.4315 104.706 97.3462 104.063 97.2697 103.389L96.8369 111.657H95.4221L96.339 99.6602Z" fill="#212B36"/>
<path d="M104.24 99.6602H108.232V101.028H105.742V104.827H107.951V106.195H105.742V110.29H108.232V111.658H104.24V99.6615V99.6602Z" fill="#212B36"/>
<path d="M108.722 99.6602H113.608V101.074H111.926V111.657H110.453V101.074H108.721V99.6602H108.722Z" fill="#212B36"/>
<path d="M115.815 99.6602H116.984L119.373 111.657H117.886L117.467 109.318H115.259L114.833 111.657H113.39L115.814 99.6602H115.815ZM117.252 108.067L116.919 106.156C116.698 104.855 116.518 103.467 116.379 101.991C116.311 102.711 116.224 103.44 116.119 104.179C116.014 104.918 115.888 105.701 115.744 106.529L115.469 108.067H117.252Z" fill="#212B36"/>
<path d="M120.255 99.6602H122.289C123.882 99.6602 124.677 100.724 124.677 102.854C124.677 103.667 124.573 104.271 124.367 104.665C124.16 105.059 123.795 105.357 123.27 105.559C123.871 105.818 124.282 106.149 124.504 106.553C124.73 106.951 124.843 107.552 124.843 108.356C124.843 110.557 123.967 111.658 122.216 111.658H120.253V99.6615L120.255 99.6602ZM121.669 104.943C122.251 104.943 122.655 104.799 122.882 104.508C123.108 104.203 123.221 103.667 123.221 102.9C123.221 101.605 122.788 100.958 121.922 100.958H121.741C121.702 100.958 121.678 100.961 121.668 100.966V104.945L121.669 104.943ZM121.669 110.274C122.285 110.274 122.711 110.132 122.946 109.847C123.182 109.562 123.3 109.046 123.3 108.301C123.3 107.555 123.177 106.997 122.933 106.692C122.692 106.382 122.272 106.226 121.669 106.226V110.275V110.274Z" fill="#212B36"/>
<path d="M131.873 105.959C131.873 108.078 131.653 109.582 131.216 110.474C130.778 111.365 130.044 111.811 129.014 111.811C127.932 111.811 127.169 111.331 126.727 110.374C126.289 109.436 126.069 107.771 126.069 105.378C126.069 103.244 126.286 101.735 126.719 100.849C127.157 99.9574 127.898 99.5117 128.942 99.5117C129.875 99.5117 130.567 99.8561 131.02 100.545C131.318 101.007 131.534 101.662 131.67 102.511C131.804 103.299 131.872 104.448 131.872 105.962L131.873 105.959ZM130.3 106.13C130.3 104.053 130.213 102.676 130.04 101.997C129.867 101.313 129.514 100.972 128.979 100.972C128.445 100.972 128.089 101.285 127.911 101.912C127.738 102.544 127.651 103.813 127.651 105.719C127.651 107.474 127.743 108.692 127.926 109.37C128.114 110.013 128.465 110.333 128.979 110.333C129.494 110.333 129.831 110.033 130.018 109.432C130.206 108.837 130.299 107.736 130.299 106.13H130.3Z" fill="#212B36"/>
<path d="M133.359 99.6602H134.86V110.29H137.314V111.658H133.359V99.6615V99.6602Z" fill="#212B36"/>
<path d="M138.252 99.6602H139.753V111.657H138.252V99.6602Z" fill="#212B36"/>
<path d="M145.843 99.8571V101.31C145.458 101.108 145.136 101.008 144.876 101.008C144.52 101.008 144.215 101.102 143.959 101.291C143.705 101.48 143.494 101.772 143.328 102.165C143.163 102.559 143.04 103.058 142.961 103.661C142.882 104.265 142.842 104.978 142.842 105.802C142.842 108.765 143.547 110.246 144.956 110.246C145.202 110.246 145.498 110.164 145.844 109.998V111.482C145.483 111.7 145.079 111.809 144.632 111.809C142.375 111.809 141.248 109.825 141.248 105.857C141.248 103.713 141.523 102.118 142.074 101.071C142.625 100.025 143.468 99.502 144.604 99.502C145.023 99.502 145.436 99.6208 145.846 99.8598L145.843 99.8571Z" fill="#212B36"/>
<path d="M150.166 99.6602H152.143C152.961 99.6602 153.569 99.8695 153.969 100.289C154.475 100.834 154.727 101.664 154.727 102.784C154.727 103.644 154.594 104.334 154.327 104.854C154.06 105.374 153.678 105.697 153.183 105.821L155.232 111.657H153.71L151.668 105.782V111.657H150.166V99.6602ZM151.668 104.974C152.25 104.974 152.661 104.83 152.902 104.539C153.143 104.249 153.263 103.76 153.263 103.071C153.263 102.699 153.238 102.38 153.188 102.115C153.138 101.851 153.057 101.636 152.949 101.47C152.842 101.304 152.701 101.182 152.531 101.105C152.36 101.027 152.157 100.989 151.921 100.989H151.669V104.976L151.668 104.974Z" fill="#212B36"/>
<path d="M157.982 99.6602H159.151L161.539 111.657H160.052L159.634 109.318H157.425L157 111.657H155.556L157.98 99.6602H157.982ZM159.418 108.067L159.085 106.156C158.865 104.855 158.684 103.467 158.544 101.991C158.476 102.711 158.389 103.44 158.284 104.179C158.179 104.918 158.053 105.701 157.909 106.529L157.634 108.067H159.417H159.418Z" fill="#212B36"/>
<path d="M161.294 99.6602H166.18V101.074H164.498V111.657H163.025V101.074H161.293V99.6602H161.294Z" fill="#212B36"/>
<path d="M167.009 99.6602H171V101.028H168.51V104.827H170.719V106.195H168.51V110.29H171V111.658H167.009V99.6615V99.6602Z" fill="#212B36"/>
<path d="M74.5178 23.2639C72.575 21.3211 72.575 18.1711 74.5178 16.2283L84.726 6.02008C86.6689 4.07723 89.8188 4.07723 91.7617 6.02007L101.97 16.2283C103.913 18.1711 103.913 21.3211 101.97 23.2639L91.7617 33.4721C89.8188 35.415 86.6689 35.415 84.726 33.4721L74.5178 23.2639Z" fill="#212B36"/>
<path fill-rule="evenodd" clip-rule="evenodd" d="M85.3123 6.60638L75.1041 16.8146C73.4851 18.4336 73.4851 21.0586 75.1041 22.6776L85.3123 32.8858C86.9314 34.5048 89.5563 34.5048 91.1754 32.8858L101.384 22.6776C103.003 21.0586 103.003 18.4336 101.384 16.8146L91.1754 6.60638C89.5563 4.98734 86.9314 4.98734 85.3123 6.60638ZM74.5178 16.2283C72.575 18.1711 72.575 21.3211 74.5178 23.2639L84.726 33.4721C86.6689 35.415 89.8188 35.415 91.7617 33.4721L101.97 23.2639C103.913 21.3211 103.913 18.1711 101.97 16.2283L91.7617 6.02007C89.8188 4.07723 86.6689 4.07723 84.726 6.02008L74.5178 16.2283Z" fill="white"/>
<path d="M89.5178 50.2639C87.575 48.3211 87.575 45.1711 89.5178 43.2283L99.726 33.0201C101.669 31.0772 104.819 31.0772 106.762 33.0201L116.97 43.2283C118.913 45.1711 118.913 48.3211 116.97 50.2639L106.762 60.4721C104.819 62.415 101.669 62.415 99.726 60.4721L89.5178 50.2639Z" fill="#212B36"/>
<path fill-rule="evenodd" clip-rule="evenodd" d="M100.312 33.6064L90.1041 43.8146C88.4851 45.4336 88.4851 48.0586 90.1041 49.6776L100.312 59.8858C101.931 61.5048 104.556 61.5048 106.175 59.8858L116.384 49.6776C118.003 48.0586 118.003 45.4336 116.384 43.8146L106.175 33.6064C104.556 31.9873 101.931 31.9873 100.312 33.6064ZM89.5178 43.2283C87.575 45.1711 87.575 48.3211 89.5178 50.2639L99.726 60.4721C101.669 62.415 104.819 62.415 106.762 60.4721L116.97 50.2639C118.913 48.3211 118.913 45.1711 116.97 43.2283L106.762 33.0201C104.819 31.0772 101.669 31.0772 99.726 33.0201L89.5178 43.2283Z" fill="white"/>
<path d="M74.5178 77.2639C72.575 75.3211 72.575 72.1711 74.5178 70.2283L84.726 60.0201C86.6689 58.0772 89.8188 58.0772 91.7617 60.0201L101.97 70.2283C103.913 72.1711 103.913 75.3211 101.97 77.2639L91.7617 87.4721C89.8188 89.415 86.6689 89.415 84.726 87.4721L74.5178 77.2639Z" fill="#212B36"/>
<path fill-rule="evenodd" clip-rule="evenodd" d="M85.3123 60.6064L75.1041 70.8146C73.4851 72.4336 73.4851 75.0586 75.1041 76.6776L85.3123 86.8858C86.9314 88.5048 89.5563 88.5048 91.1754 86.8858L101.384 76.6776C103.003 75.0586 103.003 72.4336 101.384 70.8146L91.1754 60.6064C89.5563 58.9873 86.9314 58.9873 85.3123 60.6064ZM74.5178 70.2283C72.575 72.1711 72.575 75.3211 74.5178 77.2639L84.726 87.4721C86.6689 89.415 89.8188 89.415 91.7617 87.4721L101.97 77.2639C103.913 75.3211 103.913 72.1711 101.97 70.2283L91.7617 60.0201C89.8188 58.0772 86.6689 58.0772 84.726 60.0201L74.5178 70.2283Z" fill="white"/>
<path d="M85.053 24.5025V15.1035H88.459C89.6896 15.1035 90.6018 15.3158 91.1955 15.7405C91.7935 16.1608 92.0925 16.7697 92.0925 17.567C92.0925 18.035 91.9733 18.4423 91.735 18.789C91.4966 19.1314 91.072 19.4303 90.461 19.686C90.8553 19.7857 91.1738 19.92 91.4165 20.089C91.6591 20.258 91.8455 20.4465 91.9755 20.6545C92.1055 20.8582 92.1943 21.0727 92.242 21.298C92.2896 21.519 92.3135 21.7378 92.3135 21.9545C92.3135 22.8212 92.0188 23.4625 91.4295 23.8785C90.8401 24.2945 89.902 24.5025 88.615 24.5025H85.053ZM86.9445 23.0335H88.654C89.226 23.0335 89.6571 22.9187 89.9475 22.689C90.2421 22.4593 90.3895 22.1517 90.3895 21.766C90.3895 21.4887 90.318 21.2568 90.175 21.0705C90.032 20.8798 89.837 20.7368 89.59 20.6415C89.3473 20.5462 89.07 20.4985 88.758 20.4985H86.9445V23.0335ZM86.9445 18.9905H88.758C88.953 18.9905 89.1393 18.9688 89.317 18.9255C89.499 18.8778 89.6593 18.8063 89.798 18.711C89.941 18.6157 90.0536 18.4943 90.136 18.347C90.2183 18.1953 90.2595 18.0177 90.2595 17.814C90.2595 17.4067 90.1056 17.099 89.798 16.891C89.4946 16.6787 89.1046 16.5725 88.628 16.5725H86.9445V18.9905Z" fill="#C8FACD"/>
<path d="M98.053 51.5025V42.1035H100.809L102.96 48.805L105.131 42.1035H107.881V51.5025H105.963V44.3135L103.701 51.5025H102.213L99.964 44.346V51.5025H98.053Z" fill="#C8FACD"/>
<path d="M91.346 78.5025H89.3765L87.849 74.882H85.9445V78.5025H84.053V69.1035H88.018C88.7676 69.1035 89.3808 69.2227 89.8575 69.461C90.3341 69.6993 90.6851 70.0308 90.9105 70.4555C91.1358 70.8758 91.2485 71.3612 91.2485 71.9115C91.2485 72.4055 91.1705 72.8237 91.0145 73.166C90.8628 73.504 90.6613 73.7857 90.41 74.011C90.163 74.2363 89.8921 74.4205 89.5975 74.5635L91.346 78.5025ZM87.68 73.4195C88.187 73.4195 88.5878 73.283 88.8825 73.01C89.1815 72.737 89.331 72.386 89.331 71.957C89.331 71.5237 89.188 71.1813 88.902 70.93C88.616 70.6787 88.2541 70.553 87.8165 70.553H85.9445V73.4195H87.68Z" fill="#C8FACD"/>
<path d="M177 46.502C177 56.9954 168.493 65.502 158 65.502C147.507 65.502 139 56.9954 139 46.502C139 36.0085 147.507 27.502 158 27.502C168.493 27.502 177 36.0085 177 46.502Z" fill="white"/>
<path fill-rule="evenodd" clip-rule="evenodd" d="M158 65.002C168.217 65.002 176.5 56.7192 176.5 46.502C176.5 36.2847 168.217 28.002 158 28.002C147.783 28.002 139.5 36.2847 139.5 46.502C139.5 56.7192 147.783 65.002 158 65.002ZM158 65.502C168.493 65.502 177 56.9954 177 46.502C177 36.0085 168.493 27.502 158 27.502C147.507 27.502 139 36.0085 139 46.502C139 56.9954 147.507 65.502 158 65.502Z" fill="#212B36"/>
<path d="M164.696 39.167C164.607 39.0826 164.461 38.9589 164.369 38.8769C164.238 38.7709 164.075 38.6356 163.939 38.5366C162.235 37.2425 160.08 36.5224 157.917 36.5031C152.686 36.4257 148.288 40.3032 147.559 45.2496H146.5L147.465 46.7471L148.43 48.2445L149.395 46.7471L150.36 45.2496H149.244C149.256 45.1367 149.27 45.0238 149.286 44.9108C149.659 42.2918 151.304 39.9087 153.628 38.5559C154.923 37.7917 156.418 37.3508 157.931 37.2773C159.822 37.1807 161.727 37.6502 163.348 38.6255L163.529 38.7346L163.706 38.8506C163.753 38.8823 163.836 38.9341 163.881 38.9682C163.935 39.0061 164.089 39.1167 164.139 39.1523C164.233 39.2257 164.381 39.3364 164.472 39.4122C165.826 40.5105 166.858 41.9639 167.441 43.5975C166.964 41.9206 165.997 40.3643 164.694 39.167H164.696Z" fill="#212B36"/>
<path fill-rule="evenodd" clip-rule="evenodd" d="M164.695 39.1685C164.696 39.1688 164.696 39.1692 164.696 39.1695C164.732 39.2019 164.767 39.2345 164.801 39.2673C165.666 40.0866 166.376 41.0656 166.885 42.1315C167.112 42.6052 167.298 43.0961 167.441 43.5979C167.265 43.1065 167.05 42.6314 166.796 42.1775C166.208 41.1221 165.419 40.1805 164.473 39.4125C164.413 39.3632 164.33 39.2991 164.253 39.2401C164.211 39.2085 164.172 39.1783 164.139 39.1527C164.113 39.1343 164.06 39.0958 164.006 39.0578C163.957 39.0222 163.907 38.9869 163.881 38.9686C163.849 38.9445 163.798 38.9115 163.755 38.883C163.737 38.8713 163.72 38.8603 163.706 38.851L163.529 38.735L163.348 38.6259C161.727 37.6506 159.822 37.1811 157.931 37.2777C156.418 37.3512 154.923 37.7921 153.628 38.5563C151.304 39.9091 149.659 42.2922 149.287 44.9112C149.275 44.9908 149.265 45.0704 149.255 45.15C149.252 45.1833 149.248 45.2167 149.244 45.25H150.36L148.43 48.2449L146.5 45.25H147.559C148.288 40.3036 152.686 36.4261 157.917 36.5035C160.08 36.5228 162.235 37.2429 163.939 38.537C164.047 38.6157 164.172 38.7173 164.285 38.809C164.314 38.8326 164.342 38.8556 164.369 38.8773C164.401 38.9057 164.439 38.9392 164.48 38.9743C164.515 39.0048 164.551 39.0366 164.586 39.0673C164.626 39.1023 164.663 39.136 164.694 39.1651C164.694 39.1655 164.695 39.1658 164.695 39.1662C164.696 39.1666 164.696 39.167 164.696 39.1673H164.694C164.694 39.1677 164.695 39.1681 164.695 39.1685ZM164.946 39.2673H164.947L164.765 39.0948C164.706 39.0384 164.619 38.9633 164.542 38.8962C164.502 38.8617 164.465 38.8293 164.435 38.8026L164.432 38.7995C164.405 38.7784 164.378 38.7558 164.349 38.7325C164.237 38.641 164.109 38.5371 163.999 38.4567C162.277 37.1497 160.101 36.4231 157.919 36.4035C152.667 36.326 148.247 40.1954 147.473 45.15H146.317L148.43 48.4295L150.543 45.15H149.356C149.365 45.0752 149.375 45.0004 149.385 44.9256C149.753 42.3381 151.38 39.9808 153.678 38.6427C154.959 37.887 156.439 37.4503 157.936 37.3776C159.808 37.2819 161.693 37.7466 163.297 38.7116M163.297 38.7116L163.476 38.8196L163.65 38.9342C163.65 38.9341 163.65 38.9343 163.65 38.9342C163.666 38.945 163.685 38.9572 163.704 38.9695C163.747 38.9971 163.792 39.0265 163.821 39.0485L163.824 39.0503C163.847 39.0666 163.896 39.102 163.947 39.138C164 39.1761 164.054 39.215 164.08 39.233C164.114 39.2598 164.154 39.2902 164.195 39.3216C164.27 39.3797 164.351 39.4412 164.409 39.4895L164.41 39.4902C165.749 40.5771 166.77 42.0153 167.347 43.6314L167.537 43.5705C167.078 41.9554 166.169 40.4519 164.946 39.2673" fill="#212B36"/>
<path d="M169.498 47.9383L168.533 46.4408L167.568 44.9434L166.603 46.4408L165.638 47.9383H166.753C166.742 48.0512 166.728 48.1641 166.711 48.2771C166.339 50.8961 164.694 53.2792 162.37 54.632C161.075 55.3962 159.58 55.8371 158.067 55.9105C156.175 56.0072 154.271 55.5377 152.649 54.5624L152.468 54.4533L152.292 54.3373C152.245 54.3056 152.162 54.2537 152.117 54.2197C152.063 54.1826 151.909 54.0712 151.858 54.0356C151.765 53.9621 151.617 53.8515 151.525 53.7757C150.172 52.6774 149.14 51.224 148.557 49.5904C149.034 51.2673 150.001 52.8236 151.304 54.0209C151.393 54.1052 151.539 54.229 151.631 54.311C151.763 54.417 151.925 54.5523 152.061 54.6513C153.765 55.9453 155.92 56.6655 158.083 56.6848C163.314 56.7621 167.711 52.8847 168.441 47.9383H169.5H169.498Z" fill="#212B36"/>
<path fill-rule="evenodd" clip-rule="evenodd" d="M169.498 47.9393L167.568 44.9444L165.638 47.9393H166.753C166.75 47.9726 166.746 48.006 166.743 48.0393C166.733 48.1189 166.723 48.1985 166.711 48.2781C166.339 50.8971 164.694 53.2802 162.37 54.633C161.075 55.3972 159.58 55.8381 158.067 55.9116C156.175 56.0082 154.27 55.5387 152.649 54.5634L152.468 54.4543L152.292 54.3383C152.278 54.329 152.261 54.3181 152.243 54.3063C152.199 54.2778 152.149 54.2448 152.117 54.2207C152.086 54.1993 152.021 54.1532 151.963 54.1111C151.92 54.0803 151.88 54.0517 151.858 54.0366C151.826 54.011 151.786 53.9808 151.745 53.9491C151.668 53.8902 151.585 53.8261 151.525 53.7768C150.579 53.0088 149.79 52.0672 149.201 51.0118C148.948 50.5579 148.732 50.0828 148.557 49.5915C148.7 50.0931 148.886 50.584 149.113 51.0578C149.643 52.1674 150.391 53.1828 151.304 54.022C151.362 54.077 151.445 54.1489 151.521 54.215C151.561 54.2501 151.6 54.2836 151.631 54.312C151.658 54.3337 151.686 54.3567 151.715 54.3803C151.828 54.4719 151.953 54.5736 152.061 54.6523C153.765 55.9464 155.92 56.6665 158.083 56.6858C163.314 56.7632 167.711 52.8857 168.441 47.9393H169.498ZM158.082 56.7858C163.333 56.8633 167.752 52.9939 168.527 48.0393H169.5V47.9378L169.582 47.8851L167.568 44.7598L165.455 48.0393H166.642C166.633 48.1141 166.623 48.1889 166.612 48.2637C166.245 50.8512 164.618 53.2085 162.32 54.5466C161.039 55.3023 159.559 55.739 158.062 55.8117C156.19 55.9074 154.305 55.4427 152.701 54.4777L152.522 54.3697L152.348 54.2551C152.348 54.255 152.348 54.2551 152.348 54.2551C152.331 54.2443 152.313 54.2321 152.294 54.2198C152.251 54.1922 152.206 54.1628 152.177 54.1408L152.173 54.1384C152.142 54.1169 152.081 54.0729 152.024 54.0319C151.982 54.0018 151.942 53.9732 151.918 53.9563C151.884 53.9295 151.844 53.8991 151.803 53.8677C151.728 53.8096 151.647 53.7481 151.589 53.6998L151.588 53.6991C150.249 52.6122 149.228 51.174 148.651 49.5579L148.461 49.6188C148.943 51.3136 149.92 52.8856 151.236 54.0951C151.295 54.1514 151.381 54.2262 151.458 54.2931C151.498 54.3276 151.535 54.36 151.565 54.3867L151.569 54.3898C151.595 54.4109 151.622 54.4334 151.651 54.4568C151.763 54.5483 151.891 54.6522 152.002 54.7326" fill="#212B36"/>
<path d="M161 73.502C161 83.9954 152.27 92.502 141.5 92.502C130.73 92.502 122 83.9954 122 73.502C122 63.0085 130.73 54.502 141.5 54.502C152.27 54.502 161 63.0085 161 73.502Z" fill="white"/>
<path fill-rule="evenodd" clip-rule="evenodd" d="M161.5 73.502C161.5 84.2837 152.533 93.002 141.5 93.002C130.467 93.002 121.5 84.2837 121.5 73.502C121.5 62.7202 130.467 54.002 141.5 54.002C152.533 54.002 161.5 62.7202 161.5 73.502ZM141.5 92.502C152.27 92.502 161 83.9954 161 73.502C161 63.0085 152.27 54.502 141.5 54.502C130.73 54.502 122 63.0085 122 73.502C122 83.9954 130.73 92.502 141.5 92.502Z" fill="#212B36"/>
<g clip-path="url(#clip0_1850_24445)">
<path d="M152.528 77.5914C152.574 77.3453 152.604 77.1001 152.619 76.8566L154 76.6832L153.767 74.6924L152.387 74.8649C152.244 74.3911 152.041 73.9409 151.785 73.5248L152.804 72.5439L151.486 71.0751L150.468 72.0552C150.09 71.7626 149.672 71.52 149.22 71.3361L149.488 69.9234L147.587 69.5371L147.319 70.9507C146.835 70.9437 146.359 71.005 145.903 71.1276L145.318 69.8218L143.56 70.6661L144.146 71.9728C143.758 72.2575 143.405 72.5956 143.1 72.9783L141.886 72.2785L140.944 74.0311L142.159 74.7318C142.084 74.963 142.022 75.2012 141.975 75.4473C141.929 75.6934 141.899 75.9387 141.885 76.1822L140.504 76.3547L140.736 78.3464L142.117 78.173C142.26 78.6477 142.463 79.0979 142.718 79.513L141.699 80.494L143.017 81.9636L144.035 80.9836C144.413 81.2752 144.831 81.5187 145.283 81.7018L145.016 83.1154L146.916 83.5016L147.184 82.088C147.669 82.095 148.145 82.0337 148.6 81.9111L149.186 83.217L150.943 82.3718L150.357 81.065C150.745 80.7804 151.098 80.4432 151.403 80.0596L152.617 80.7602L153.56 79.0077L152.344 78.307C152.42 78.0758 152.481 77.8366 152.528 77.5914Z" fill="#212B36"/>
<path d="M148.777 76.8288C148.612 77.7012 147.795 78.2696 146.952 78.0988C146.11 77.9271 145.561 77.0811 145.726 76.2087C145.892 75.3364 146.709 74.7671 147.551 74.9387C148.393 75.1095 148.942 75.9556 148.777 76.8288Z" fill="white"/>
<path d="M142.616 67.7989L143.495 67.5668L143.184 66.2994L142.305 66.5306C142.177 66.2416 142.012 65.9675 141.809 65.7161L142.388 64.9944L141.416 64.158L140.837 64.8805C140.561 64.7194 140.271 64.6003 139.973 64.5232L140.032 63.5869L138.772 63.502L138.713 64.4391C138.405 64.4759 138.101 64.5556 137.811 64.6765L137.327 63.8821L136.259 64.5801L136.744 65.3745C136.631 65.4822 136.523 65.5987 136.423 65.7249C136.322 65.8501 136.231 65.9815 136.149 66.1155L135.306 65.7678L134.839 66.9826L135.681 67.3303C135.62 67.6482 135.601 67.9714 135.622 68.292L134.742 68.5232L135.053 69.7905L135.932 69.5593C136.06 69.8484 136.226 70.1234 136.429 70.3739L135.849 71.0964L136.821 71.932L137.4 71.2103C137.676 71.3706 137.967 71.4897 138.264 71.5668L138.205 72.5039L139.465 72.5889L139.525 71.6508C139.832 71.6141 140.136 71.5344 140.426 71.4144L140.911 72.2079L141.978 71.5098L141.494 70.7154C141.607 70.6077 141.714 70.4912 141.815 70.366C141.915 70.2399 142.007 70.1094 142.089 69.9745L142.931 70.3222L143.399 69.1074L142.556 68.7597C142.617 68.4426 142.637 68.1186 142.616 67.7989Z" fill="#212B36"/>
<path d="M139.898 68.7168C139.541 69.1626 138.901 69.2239 138.471 68.8534C138.04 68.483 137.981 67.8208 138.339 67.375C138.697 66.9292 139.336 66.8679 139.766 67.2384C140.197 67.6097 140.256 68.271 139.898 68.7168Z" fill="white"/>
<path d="M139.667 80.0282L140.121 78.4263L139.01 78.09C139.052 77.6862 139.041 77.2737 138.976 76.8612L140.065 76.4574L139.522 74.8861L138.433 75.289C138.231 74.9273 137.986 74.6006 137.707 74.3159L138.359 73.3262L137.029 72.3856L136.376 73.3753C136.014 73.2089 135.631 73.0924 135.237 73.0293L135.203 71.832L133.592 71.8802L133.626 73.0784C133.435 73.1213 133.244 73.1773 133.054 73.2474C132.865 73.3175 132.683 73.3998 132.509 73.4926L131.801 72.5441L130.526 73.5636L131.233 74.5121C130.966 74.8196 130.742 75.162 130.564 75.5281L129.453 75.1909L129 76.7928L130.11 77.1292C130.069 77.5329 130.08 77.9463 130.145 78.3589L129.056 78.7617L129.599 80.3339L130.688 79.9301C130.889 80.2919 131.134 80.6185 131.414 80.9032L130.762 81.8929L132.092 82.8336L132.745 81.8439C133.107 82.0103 133.49 82.1276 133.884 82.1898L133.918 83.388L135.529 83.3389L135.494 82.1408C135.686 82.0979 135.877 82.0418 136.067 81.9717C136.256 81.9017 136.438 81.8193 136.612 81.7265L137.32 82.675L138.595 81.6556L137.888 80.707C138.154 80.3996 138.379 80.0571 138.557 79.691L139.667 80.0282Z" fill="#212B36"/>
<path d="M134.996 78.8713C134.324 79.12 133.583 78.7574 133.343 78.0611C133.102 77.3639 133.453 76.5976 134.125 76.3479C134.797 76.0992 135.538 76.4618 135.778 77.159C136.019 77.8553 135.668 78.6216 134.996 78.8713Z" fill="white"/>
</g>
<path d="M160 19.502C160 29.9954 151.27 38.502 140.5 38.502C129.73 38.502 121 29.9954 121 19.502C121 9.00854 129.73 0.501953 140.5 0.501953C151.27 0.501953 160 9.00854 160 19.502Z" fill="white"/>
<path fill-rule="evenodd" clip-rule="evenodd" d="M140.5 38.002C151.006 38.002 159.5 29.7071 159.5 19.502C159.5 9.29685 151.006 1.00195 140.5 1.00195C129.994 1.00195 121.5 9.29685 121.5 19.502C121.5 29.7071 129.994 38.002 140.5 38.002ZM140.5 38.502C151.27 38.502 160 29.9954 160 19.502C160 9.00854 151.27 0.501953 140.5 0.501953C129.73 0.501953 121 9.00854 121 19.502C121 29.9954 129.73 38.502 140.5 38.502Z" fill="#212B36"/>
<path d="M11.0213 35.6048C11.0213 35.6048 14.1923 35.0898 16.8263 33.7401C17.9141 33.1827 20.8431 32.176 22.6238 34.3507C23.927 35.9425 25.5857 38.0844 27.4726 39.9533C28.2558 40.7285 28.5116 41.9104 28.5116 41.9104C28.5116 41.9104 26.024 41.4442 21.4883 39.9523C16.9526 38.4592 11.0203 35.6048 11.0203 35.6048H11.0213Z" fill="#212B36"/>
<path d="M27.4283 42.9935C28.1777 42.9831 28.8124 42.4359 28.9348 41.6963L29.4142 38.7901C29.4638 38.509 29.6886 38.2905 29.9722 38.2504L31.6014 38.0163C31.9491 37.9661 32.22 37.6915 32.2652 37.3427L32.5665 35.0113C32.5665 35.0113 32.5693 35.0042 32.5721 35.0025L33.336 34.5599C33.4881 34.4722 33.5422 34.2782 33.4574 34.1243L32.5917 32.5508C32.4236 32.2447 32.1523 30.4945 31.8038 30.522C31.8038 30.522 25.8603 28.6487 24.2008 31.1377C23.7611 31.7966 23.7363 32.6503 24.0676 33.3701L24.4874 34.2801C24.9606 35.3054 25.0635 36.4786 24.7047 37.5493C24.6082 37.8345 24.4837 38.1119 24.3302 38.3763L22.7489 41.0044C22.4784 41.4542 22.7054 42.0398 23.2087 42.1874C24.3561 42.5226 26.242 43.0111 27.4275 42.9948L27.4283 42.9935Z" fill="white"/>
<path d="M27.8011 43.1838C27.6821 43.2107 27.5582 43.2256 27.4325 43.2279C26.2568 43.2441 24.4521 42.7928 23.1452 42.4109C22.8354 42.3208 22.59 42.0965 22.472 41.7955C22.3537 41.4934 22.3818 41.1604 22.5498 40.883L24.131 38.2549C24.2738 38.0104 24.3926 37.7462 24.4842 37.4729C24.8161 36.4857 24.7419 35.3866 24.2767 34.3769L23.8568 33.4669C23.4813 32.6525 23.5393 31.7097 24.0071 31.0063C25.6953 28.476 31.2987 30.1203 31.841 30.2862C32.2097 30.3097 32.3795 30.8929 32.617 31.8191C32.6818 32.0722 32.7554 32.3593 32.7977 32.4358L33.6623 34.0095C33.8067 34.273 33.7131 34.6099 33.4535 34.7611L32.7838 35.1486L32.497 37.3711C32.4389 37.8218 32.0796 38.1817 31.634 38.2464L30.0046 38.4795C29.8202 38.5059 29.6767 38.6461 29.644 38.8288L29.1651 41.7326C29.0446 42.4609 28.4955 43.0258 27.7999 43.183L27.8011 43.1838ZM26.1168 30.2217C25.3911 30.3856 24.7716 30.7063 24.3987 31.2663C24.0202 31.8351 23.976 32.6028 24.2835 33.2704L24.7034 34.1803C25.2194 35.2994 25.2996 36.5213 24.9293 37.6228C24.828 37.9255 24.6949 38.2179 24.5352 38.4935L22.9514 41.1243C22.8596 41.2768 22.8442 41.4588 22.9087 41.6239C22.9729 41.7879 23.1063 41.9113 23.2761 41.96C24.321 42.2651 26.2486 42.7746 27.4253 42.7581C28.063 42.749 28.6003 42.2858 28.7042 41.6571L29.1836 38.7509C29.2523 38.3664 29.5573 38.0743 29.9394 38.0174L31.5688 37.7843C31.8095 37.7517 32.0024 37.5558 32.0334 37.3125L32.3347 34.9811C32.3438 34.9105 32.3907 34.8389 32.452 34.8022L33.2198 34.3577C33.2621 34.3329 33.2764 34.2807 33.2527 34.2382L32.388 32.6644C32.321 32.5413 32.2625 32.3205 32.1643 31.9387C32.0765 31.5982 31.8974 30.9017 31.7673 30.7547C31.7571 30.7526 31.7468 30.7506 31.7363 30.7475C31.6929 30.7334 28.3865 29.7123 26.1175 30.2248L26.1168 30.2217Z" fill="#212B36"/>
<path d="M27.3906 33.4825C27.0557 32.5632 26.4813 32.2792 26.5651 31.8074C26.6111 31.5488 26.8289 31.3809 26.9533 31.2864C27.5697 30.8119 28.405 31.0663 30.0772 31.3309C32.1521 31.6591 32.3895 31.7132 32.7743 31.5479C33.7524 31.1289 34.2791 29.8962 34.2935 28.8957C34.2976 28.615 34.2786 27.1246 32.9896 26.3935C32.0587 25.8657 30.8358 25.9427 29.865 26.5866C29.7698 26.3 29.5778 25.8981 29.1794 25.7094C28.2329 25.2613 26.8738 26.3684 26.3988 26.7555C25.9586 27.114 25.1787 27.8563 24.6408 29.1405C24.4545 29.0432 23.7552 28.7069 23.0114 28.9686C21.9057 29.3577 21.671 30.7269 21.6513 30.8565C21.4165 32.3695 22.6939 33.6464 23.6589 34.6096C24.353 35.303 24.6129 35.4327 25.0766 35.7177C25.1468 35.6768 25.236 35.624 25.3281 35.5694C25.6037 35.407 25.6865 35.0465 25.51 34.7804L25.4983 34.7624C25.3116 34.4801 25.1798 34.1615 25.1324 33.8261C25.0947 33.5581 25.1072 33.2765 25.2767 33.1261C25.5484 32.884 26.0285 33.0249 26.097 33.0442C26.5352 33.1728 26.7781 33.5305 26.9061 33.813C26.9907 33.9996 27.505 33.7865 27.395 33.4826L27.3906 33.4825Z" fill="#212B36"/>
<path d="M40.2564 104.574L38.4502 110.468C40.0622 112.855 41.566 113.457 42.8543 110.486L45.4756 105.665L40.2575 104.574H40.2564Z" fill="white"/>
<path d="M40.9 112.727C40.0882 112.727 39.2222 112.029 38.2565 110.599C38.2172 110.54 38.2055 110.467 38.2268 110.399L40.033 104.505C40.068 104.39 40.189 104.32 40.3047 104.345L45.5228 105.436C45.5949 105.45 45.6565 105.499 45.6873 105.566C45.718 105.633 45.7159 105.712 45.6809 105.777L43.0596 110.598C42.4749 111.948 41.8084 112.649 41.0295 112.72C40.986 112.725 40.9425 112.727 40.9 112.727ZM38.7075 110.428C39.5809 111.699 40.3482 112.311 40.987 112.253C41.5718 112.199 42.1279 111.572 42.6394 110.392L45.1195 105.829L40.4193 104.846L38.7086 110.428H38.7075Z" fill="#212B36"/>
<path d="M37.5448 109.997C37.2604 110.805 36.7595 112.31 36.4677 113.688C36.2841 114.554 36.7956 115.406 37.6425 115.677C38.7854 116.042 42.175 116.808 44.3781 117.293C45.6782 117.579 47.0344 117.532 48.3185 117.158L50.1396 116.627C50.7222 116.457 51.2804 116.205 51.7792 115.859C52.2759 115.515 52.7428 115.071 52.6293 114.67C52.3289 113.614 51.0523 113.311 50.0048 113.246C48.8215 113.173 47.6775 112.82 46.6481 112.251C45.572 111.658 44.2561 110.918 43.3105 110.343C43.1227 110.229 42.885 110.234 42.6982 110.354L42.0307 110.787C41.3621 111.22 40.5004 111.219 39.8424 110.784L38.2813 109.749C38.016 109.573 37.6509 109.695 37.5448 109.996V109.997Z" fill="white"/>
<path d="M46.0807 117.711C45.4917 117.711 44.9038 117.647 44.3286 117.521C41.8634 116.978 38.6892 116.257 37.5717 115.899C36.6039 115.59 36.0308 114.618 36.2388 113.638C36.537 112.237 37.0464 110.705 37.3244 109.918C37.3987 109.706 37.5643 109.544 37.7786 109.472C37.993 109.4 38.2233 109.43 38.4111 109.553L39.9722 110.588C40.5538 110.973 41.3115 110.974 41.9037 110.59L42.5712 110.156C42.8312 109.988 43.1697 109.981 43.4319 110.142C44.404 110.732 45.7793 111.503 46.761 112.046C47.7819 112.609 48.9079 112.943 50.019 113.012C51.6055 113.11 52.5861 113.661 52.8546 114.606C52.9788 115.044 52.6625 115.531 51.9122 116.051C51.4113 116.398 50.8372 116.668 50.2047 116.852L48.3836 117.383C47.6333 117.601 46.8565 117.711 46.0797 117.711H46.0807ZM38.0111 109.903C37.9835 109.903 37.9548 109.907 37.9272 109.917C37.8508 109.942 37.7924 109.999 37.7659 110.074C37.4921 110.851 36.9891 112.36 36.6962 113.736C36.5381 114.478 36.9753 115.216 37.7128 115.453C38.8707 115.824 42.4173 116.621 44.4273 117.064C45.6849 117.34 47.0072 117.296 48.252 116.934L50.0731 116.403C50.6557 116.233 51.1842 115.985 51.6437 115.667C52.1786 115.295 52.4619 114.948 52.4025 114.735C52.1383 113.805 50.9444 113.54 49.9893 113.481C48.8092 113.409 47.6142 113.054 46.5328 112.458C45.5469 111.913 44.1662 111.139 43.1867 110.545C43.0763 110.478 42.9341 110.481 42.8238 110.553L42.1562 110.986C41.4081 111.471 40.4477 111.47 39.7112 110.982L38.1501 109.947C38.1076 109.919 38.0588 109.905 38.0089 109.905L38.0111 109.903Z" fill="#212B36"/>
<path d="M36.5138 113.48C36.5138 113.48 36.483 113.62 36.4682 113.688C36.2846 114.553 36.7961 115.406 37.6429 115.676C39.4142 116.244 42.878 117.188 46.5298 117.752C48.6077 118.074 51.56 116.568 52.1861 116.24C52.6223 116.012 52.8961 115.572 52.7507 115.11L52.5183 114.372C52.5183 114.372 48.6735 116.37 46.811 115.936C43.5084 115.164 40.4064 114.599 37.1473 113.664L36.5127 113.482L36.5138 113.48Z" fill="white"/>
<path d="M47.1473 118.032C46.9234 118.032 46.7048 118.017 46.4936 117.984C43.0563 117.452 39.6306 116.559 37.5707 115.9C36.6029 115.591 36.0298 114.618 36.2378 113.639L36.2834 113.43C36.2972 113.367 36.3365 113.312 36.3928 113.279C36.4479 113.246 36.5148 113.237 36.5774 113.256L37.212 113.437C39.4003 114.065 41.4793 114.517 43.6792 114.996C44.7139 115.221 45.7847 115.454 46.864 115.707C48.6182 116.116 52.3718 114.183 52.41 114.164C52.4716 114.132 52.5437 114.129 52.6085 114.155C52.6722 114.182 52.721 114.235 52.7422 114.302L52.9746 115.04C53.1444 115.58 52.8706 116.146 52.2954 116.448C51.3307 116.953 49.0501 118.031 47.1473 118.031V118.032ZM36.6888 113.776C36.5541 114.506 36.9892 115.223 37.714 115.454C39.7569 116.108 43.155 116.994 46.5658 117.522C48.4834 117.817 51.2692 116.457 52.0779 116.034C52.3623 115.885 52.6499 115.572 52.5278 115.181L52.3782 114.705C51.4804 115.145 48.4251 116.553 46.7589 116.163C45.6828 115.912 44.6142 115.679 43.5805 115.455C41.3721 114.974 39.2868 114.521 37.0836 113.889L36.6888 113.776Z" fill="#212B36"/>
<path d="M17.4199 71.4241C17.4199 71.4241 42.9246 69.9502 55.9184 74.7542C57.2015 75.2289 58.0685 76.432 58.1152 77.7986C58.2489 81.7415 56.8311 91.0788 45.0535 107.619L38.4016 107.368L44.577 86.0177L16.1411 83.8706L17.4199 71.4241Z" fill="#212B36"/>
<path d="M51.9557 110.455L53.9794 112.587C54.7499 113.4 55.185 114.473 55.1967 115.592L55.2136 117.204L61.1651 115.57C59.8672 114.184 58.5565 112.904 57.6768 111.221L55.8355 107.697L51.9546 110.456L51.9557 110.455Z" fill="white"/>
<path d="M55.2139 117.438C55.1641 117.438 55.1142 117.422 55.0728 117.391C55.0144 117.347 54.9805 117.278 54.9794 117.206L54.9624 115.594C54.9508 114.53 54.5411 113.519 53.8099 112.748L51.7862 110.616C51.7395 110.567 51.7161 110.499 51.7225 110.432C51.7288 110.364 51.7649 110.303 51.8201 110.263L55.701 107.505C55.7562 107.465 55.8252 107.451 55.891 107.467C55.9568 107.483 56.012 107.527 56.0438 107.587L57.884 111.111C58.6417 112.561 59.721 113.702 60.864 114.908C61.021 115.074 61.1781 115.241 61.3362 115.408C61.3925 115.468 61.4126 115.553 61.3914 115.632C61.3691 115.711 61.3065 115.774 61.228 115.795L55.2766 117.429C55.2564 117.434 55.2352 117.438 55.215 117.438H55.2139ZM52.3115 110.489L54.1485 112.424C54.9624 113.282 55.4177 114.406 55.4304 115.589L55.4442 116.897L60.726 115.447C60.6581 115.374 60.5902 115.303 60.5223 115.232C59.357 114.001 58.2555 112.837 57.468 111.328L55.752 108.043L52.3104 110.49L52.3115 110.489Z" fill="#212B36"/>
<path d="M54.1278 115.19C54.0058 116.057 54.0026 117.625 53.9867 119.066C53.9761 119.971 54.6553 120.734 55.552 120.849C58.0873 121.175 64.4197 121.496 69.3184 121.051C69.6537 121.02 70.247 120.776 70.4125 119.938C70.9676 117.125 66.0753 116.435 60.7118 114.394C60.5016 114.314 60.2639 114.361 60.1026 114.518L59.5242 115.079C58.9459 115.639 58.0873 115.799 57.3466 115.482L54.8123 114.805C54.5131 114.677 54.1745 114.868 54.1289 115.191L54.1278 115.19Z" fill="white"/>
<path d="M63.8264 121.502C60.5143 121.502 57.2956 121.309 55.5222 121.082C54.5013 120.95 53.7404 120.083 53.7521 119.063L53.7574 118.604C53.7712 117.297 53.7839 115.948 53.8964 115.158C53.9282 114.932 54.0609 114.736 54.2604 114.624C54.4536 114.514 54.6817 114.498 54.8876 114.581L57.407 115.255C57.4176 115.259 57.4282 115.262 57.4388 115.266C58.0947 115.546 58.8503 115.406 59.3618 114.909L59.9402 114.349C60.1652 114.131 60.5005 114.062 60.7955 114.174C62.0467 114.65 63.2491 115.045 64.4122 115.427C68.1531 116.655 71.1065 117.626 70.6428 119.983C70.4677 120.872 69.832 121.239 69.3406 121.284C67.6405 121.438 65.7186 121.5 63.8275 121.5L63.8264 121.502ZM54.617 114.998C54.5724 114.998 54.5289 115.01 54.4897 115.032C54.4186 115.073 54.3708 115.142 54.3602 115.224C54.253 115.983 54.2392 117.318 54.2265 118.609L54.2212 119.07C54.2127 119.851 54.7974 120.517 55.5817 120.617C57.8824 120.912 64.2668 121.274 69.2971 120.818C69.417 120.807 70.0209 120.711 70.1822 119.893C70.5664 117.942 67.9239 117.074 64.2658 115.873C63.0974 115.49 61.8897 115.093 60.6279 114.613C60.5026 114.565 60.3604 114.594 60.2649 114.686L59.6865 115.247C59.0424 115.871 58.0947 116.05 57.269 115.705L54.7507 115.03C54.7401 115.027 54.7295 115.024 54.7189 115.02C54.686 115.006 54.651 114.998 54.617 114.998Z" fill="#212B36"/>
<path d="M54.125 118.791C54.125 118.791 54.1218 118.938 54.1207 119.008C54.1101 119.912 54.7893 120.676 55.6861 120.791C58.2214 121.117 64.419 121.497 69.3187 121.053C69.6541 121.022 70.2473 120.778 70.4128 119.94C70.4638 119.683 70.432 119.22 70.432 119.22L70.0849 119.237C65.1343 119.481 60.173 119.362 55.2393 118.881L54.125 118.791Z" fill="white"/>
<path d="M64.2979 121.491C60.6282 121.491 57.1908 121.221 55.6563 121.023C54.6354 120.892 53.8744 120.024 53.8861 119.005L53.8893 118.786C53.8904 118.721 53.919 118.661 53.9668 118.617C54.0145 118.574 54.0761 118.551 54.1429 118.558L55.2572 118.648C60.1665 119.127 65.149 119.247 70.0721 119.003L70.4192 118.986C70.5518 118.984 70.6558 119.077 70.6643 119.204C70.6675 119.255 70.6961 119.707 70.641 119.985C70.4658 120.874 69.8302 121.241 69.3388 121.286C67.7172 121.432 65.9821 121.49 64.2969 121.49L64.2979 121.491ZM54.3552 119.045C54.3637 119.812 54.9431 120.459 55.7157 120.558C57.94 120.844 64.1854 121.284 69.2974 120.82C69.4173 120.809 70.0212 120.713 70.1825 119.895C70.2048 119.783 70.209 119.611 70.2069 119.466L70.0965 119.471C65.1512 119.715 60.1453 119.595 55.2169 119.114L54.3563 119.044L54.3552 119.045Z" fill="#212B36"/>
<path d="M10.4876 85.2328C14.0915 86.3775 17.738 86.2278 26.75 86.1056C29.3108 86.0706 32.9338 88.3505 34.0969 90.6325C36.766 95.8709 44.0768 107.007 53.4879 113.119L57.9822 110.696L44.9768 83.1514C43.9293 80.7919 41.9703 78.9591 39.5485 78.0703L16.8126 69.728C16.8126 69.728 10.8728 67.8718 7.41635 74.1688C6.79871 75.2934 6.37952 76.3075 6.10679 77.2154C5.17077 80.3268 7.39301 84.2505 10.4886 85.2338L10.4876 85.2328Z" fill="#212B36"/>
<path d="M51.2436 95.9661C51.1544 95.9661 51.0695 95.9152 51.0302 95.8281L45.4694 83.5589C44.5111 81.4001 42.0437 79.2338 39.467 78.2887L28.5787 74.2939C28.4577 74.2493 28.3951 74.1144 28.4397 73.9933C28.4842 73.8723 28.618 73.8096 28.74 73.8542L39.6283 77.8491C42.3143 78.8345 44.891 81.1038 45.896 83.3678L51.4558 95.6348C51.5089 95.7527 51.4569 95.8918 51.3391 95.9449C51.3072 95.9587 51.2743 95.9661 51.2425 95.9661H51.2436Z" fill="white"/>
<path d="M44.3424 105.828C44.2797 105.828 44.2171 105.802 44.1704 105.754C43.4265 104.953 42.5393 103.87 41.5343 102.535C41.4568 102.432 41.477 102.284 41.581 102.207C41.6839 102.129 41.8315 102.151 41.9089 102.254C42.9044 103.576 43.7799 104.646 44.5132 105.434C44.6013 105.528 44.596 105.677 44.5015 105.765C44.4559 105.807 44.3986 105.828 44.3424 105.828Z" fill="white"/>
<path d="M53.2715 29.927L55.4608 27.2829C55.6221 27.0875 55.9405 27.2075 55.9309 27.4613C55.9161 27.8797 55.8779 28.4032 55.7908 28.8535C55.7346 29.1434 55.9606 29.4099 56.2557 29.4004C56.3628 29.3972 56.4637 29.395 56.5581 29.394C57.0229 29.3908 57.4623 29.1943 57.7732 28.8482C58.1393 28.4415 58.5999 27.9413 58.775 27.799C59.0849 27.5505 59.4807 27.1682 59.9339 27.1151H59.9477C60.421 27.062 60.7489 27.5739 60.5048 27.9827L59.8479 29.0828C59.1114 30.3157 58.0014 31.2799 56.678 31.8363L54.7052 32.6657C54.3773 32.8037 54.165 33.1266 54.1682 33.4823L54.2382 41.1545L51.7114 38.5497C51.7114 38.5497 51.9502 33.9293 52.4469 31.6102C52.5795 30.9911 52.8671 30.4145 53.2704 29.927H53.2715Z" fill="white"/>
<path fill-rule="evenodd" clip-rule="evenodd" d="M54.2341 34.1103C53.7684 34.4491 53.2208 34.6924 52.6468 34.8153L51.7185 34.6333C51.7526 34.4828 51.7816 34.3208 51.8068 34.1668C51.8317 34.0141 51.8555 33.8519 51.8768 33.7064C51.8886 33.6257 51.8997 33.5502 51.9098 33.4843C51.9248 33.3867 51.9378 33.3082 51.9495 33.2498C51.9552 33.2213 51.9593 33.2044 51.9613 33.1964L51.9647 33.1893L52.5824 31.3173C53.1403 30.1624 54.0904 29.1989 55.347 28.538C55.347 28.538 55.347 28.538 55.347 28.538L56.5056 27.9286C56.5055 27.9287 56.5056 27.9286 56.5056 27.9286C56.6374 27.8595 56.8039 27.8617 56.9312 27.9325C57.0485 27.9976 57.0764 28.0829 57.0676 28.1539C57.054 28.2556 57.0033 28.373 56.9049 28.5133C56.8058 28.6545 56.6817 28.7874 56.5449 28.9322C56.5086 28.9695 56.4736 29.0071 56.4445 29.0384C56.4381 29.0452 56.4321 29.0518 56.4263 29.0579L56.4229 29.0616C56.328 29.1653 55.986 29.4575 55.3508 29.9598C54.9324 30.2906 54.6719 30.7798 54.6699 31.3124L54.6698 31.3168C54.669 31.405 54.6682 31.4903 54.6645 31.5798L54.6639 31.5951L54.6642 31.6104C54.6685 31.8228 54.7633 32.0275 54.9493 32.1657C55.1216 32.2938 55.3341 32.3356 55.5297 32.3029L55.533 32.3023C55.8922 32.2398 56.3482 32.1957 56.8915 32.1743L54.2341 34.1103ZM57.4672 31.9654C57.3848 31.7788 57.1838 31.663 56.9541 31.6716C56.3613 31.6922 55.8538 31.7389 55.4472 31.8098C55.3755 31.8217 55.3026 31.8054 55.2476 31.7644C55.1925 31.7235 55.1655 31.6669 55.1641 31.6003C55.1682 31.5017 55.169 31.4088 55.1698 31.3214L55.1699 31.3156C55.1709 30.9486 55.3501 30.5977 55.6609 30.352C56.2835 29.8597 56.6634 29.5394 56.7918 29.3991C56.7984 29.392 56.8051 29.3849 56.8118 29.3776C56.8416 29.3456 56.8729 29.312 56.9057 29.2783C57.1737 28.9947 57.5077 28.6412 57.5634 28.2184C57.6016 27.9208 57.4494 27.6483 57.1743 27.4956C56.8981 27.3419 56.553 27.3391 56.2733 27.4859L55.1143 28.0954C53.7606 28.8074 52.7241 29.8569 52.1176 31.1301L51.5 33.002C51.4635 33.0779 51.4258 33.3356 51.3809 33.6418C51.3381 33.9345 51.2887 34.2717 51.2277 34.5371C51.1656 34.8069 51.0915 35.0026 51 35.002L52.6483 35.3251C53.327 35.1957 53.9772 34.9156 54.5283 34.5145L57.3121 32.4865C57.4887 32.3577 57.5497 32.154 57.4672 31.9654Z" fill="#212B36"/>
<path d="M54.876 34.0597H51.3633C51.3633 34.0597 50.6236 42.2225 41.4248 44.1116C35.3206 45.3646 32.4276 44.1286 31.6031 43.6582C31.3696 43.5106 29.834 42.4858 28.7483 41.8996C25.6973 40.2516 20.2149 37.565 15.6357 40.3132C3.29877 47.7199 1.13702 64.6784 4.96597 76.4166C5.22279 77.2046 5.74917 80.4763 6.44322 80.9605C10.807 84.0007 17.8834 80.4094 17.8834 80.4094C23.0463 78.499 26.6099 74.45 28.1169 72.4664C28.4926 71.9726 28.3843 71.2792 27.8951 70.8958C27.0376 70.2247 25.9371 68.5002 25.8182 64.0763C25.7365 61.0478 26.8211 57.1251 28.0776 53.5285C30.9759 55.6172 35.6878 57.5722 42.1804 55.7203C58.3017 51.1201 54.876 34.0586 54.876 34.0586V34.0597Z" fill="white"/>
<path d="M10.8175 82.4282C9.25323 82.4282 7.66349 82.0979 6.31042 81.1539C5.77131 80.778 5.3988 79.2935 5.0019 77.5371C4.89896 77.0826 4.81089 76.6908 4.74509 76.4901C0.789855 64.3653 3.22115 47.4949 15.5167 40.1137C19.89 37.4876 24.9458 39.5795 28.8607 41.6948C29.7829 42.1929 31.0065 42.9903 31.5297 43.3312C31.6241 43.3928 31.6931 43.4374 31.7292 43.4608C32.4487 43.8707 35.2992 45.1301 41.378 43.8823C50.303 42.0495 51.1233 34.1193 51.1307 34.0396C51.1414 33.9186 51.2432 33.8262 51.3642 33.8262H54.8769C54.9883 33.8262 55.0849 33.9047 55.1061 34.0141C55.1146 34.0577 55.9594 38.386 54.8016 43.2208C53.7297 47.6978 50.6808 53.5403 42.245 55.9476C35.798 57.7879 31.084 55.8998 28.1974 53.9014C26.6883 58.2774 25.9868 61.6065 26.0537 64.0712C26.1694 68.3655 27.1977 70.0528 28.0403 70.7133C28.6399 71.1827 28.7556 72.0163 28.3035 72.6109C26.6469 74.7889 23.1045 78.7253 17.9766 80.6272C17.6752 80.7791 14.3111 82.4293 10.8164 82.4293L10.8175 82.4282ZM20.0545 39.3587C18.5858 39.3587 17.1308 39.69 15.7565 40.5161C3.66899 47.7731 1.29075 64.3929 5.18974 76.3456C5.26191 76.5676 5.34893 76.9499 5.45824 77.4351C5.69808 78.4949 6.14379 80.4679 6.57784 80.7706C10.775 83.695 17.7081 80.2375 17.7781 80.2024C17.7866 80.1982 17.7941 80.195 17.8026 80.1918C22.8254 78.3335 26.3041 74.4671 27.931 72.3274C28.226 71.9398 28.1475 71.3929 27.7517 71.0829C26.8294 70.3608 25.7056 68.5609 25.5846 64.085C25.5146 61.5067 26.2585 58.029 27.8567 53.4532C27.8811 53.3832 27.9374 53.329 28.0074 53.3067C28.0775 53.2844 28.1549 53.2971 28.2154 53.3396C30.9916 55.3413 35.6558 57.3398 42.1166 55.4963C48.709 53.6157 52.8224 49.4541 54.3431 43.1273C55.3449 38.9562 54.8249 35.1684 54.6806 34.2945H51.5701C51.3674 35.6102 49.8976 42.6113 41.4735 44.3411C35.4043 45.5878 32.4689 44.4218 31.4883 43.8622C31.4416 43.8324 31.3705 43.7868 31.2739 43.7241C30.756 43.3864 29.543 42.5953 28.6378 42.1068C26.0866 40.7285 23.0408 39.3587 20.0556 39.3587H20.0545Z" fill="#212B36"/>
<path d="M26.0178 46.4254C26.2969 48.8068 24.4238 55.7348 26.3712 58.5876C32.7652 67.9535 36.8074 70.1812 38.81 70.611L36.834 73.0155C36.834 73.0155 18.466 74.2807 15.9467 52.5284C15.9467 52.5284 13.5716 44.5224 18.8523 42.5443C19.9518 42.133 21.3961 41.8926 22.7789 42.4784C25.1741 43.4941 25.9244 46.0811 26.0189 46.4254H26.0178Z" fill="white"/>
<path d="M36.3127 73.2827C34.949 73.2827 31.172 73.0886 27.238 71.1625C22.7097 68.9452 17.0363 63.9214 15.7151 52.5831C15.5761 52.0862 13.4865 44.2847 18.7736 42.3031C19.7987 41.9184 21.3407 41.596 22.8615 42.2407C25.2896 43.2702 26.1025 45.8457 26.2404 46.3518C26.2436 46.3645 26.2468 46.3784 26.2489 46.3922C26.3445 47.2068 26.2033 48.4882 26.0388 49.9718C25.713 52.9251 25.3066 56.6005 26.5578 58.4342C33.0196 67.8995 37.0354 69.9689 38.8533 70.3606C38.936 70.3791 39.0029 70.4427 39.0305 70.5305C39.057 70.6171 39.039 70.713 38.9827 70.7812L37.0067 73.1857C36.9653 73.2353 36.908 73.2654 36.8465 73.27C36.8369 73.27 36.647 73.2827 36.3116 73.2827H36.3127ZM21.0032 42.384C20.2158 42.384 19.4889 42.5758 18.9264 42.7861C13.9216 44.6614 16.1449 52.3739 16.1682 52.4513C16.1725 52.4664 16.1757 52.4825 16.1778 52.4975C17.4651 63.6059 22.9984 68.5212 27.4131 70.6888C31.8311 72.8575 36.0463 72.794 36.7234 72.7662L38.3704 70.7627C36.0123 70.0741 32.0698 67.3657 26.1821 58.7404C24.8195 56.7438 25.2376 52.9563 25.574 49.9128C25.7332 48.4755 25.8701 47.2334 25.7862 46.4789C25.644 45.9693 24.8863 43.6481 22.6917 42.7168C22.1229 42.4753 21.5487 42.384 21.0032 42.384Z" fill="#212B36"/>
<path d="M12.8735 42.626C11.9587 43.0168 10.9218 43.072 10.006 42.6834C9.51039 42.4721 9.01373 42.1556 8.66139 41.681C6.61639 38.9221 6.37443 33.3801 17.6862 36.398C21.3782 37.3834 26.487 40.3695 26.487 40.3695L29.432 42.231C23.6174 40.5065 18.0618 40.4067 12.8735 42.626Z" fill="white"/>
<path d="M11.3365 43.1795C10.8419 43.1795 10.358 43.086 9.91441 42.897C9.29253 42.6326 8.80755 42.2694 8.47326 41.8181C7.44385 40.4302 6.84849 38.3754 7.83969 36.9153C8.72794 35.606 11.1677 34.4135 17.7464 36.1688C21.4257 37.1511 26.5536 40.135 26.6056 40.1647L29.5579 42.0294C29.6566 42.0921 29.6948 42.2174 29.646 42.3246C29.5983 42.4308 29.4794 42.485 29.3659 42.4531C23.2075 40.6267 17.8429 40.753 12.9655 42.8397C12.437 43.0658 11.8809 43.1795 11.3365 43.1795ZM12.1303 35.7621C10.2041 35.7621 8.86697 36.2368 8.22704 37.1787C7.36956 38.4423 7.94793 40.324 8.84893 41.5388C9.13334 41.9222 9.55359 42.2344 10.0969 42.4659C10.9099 42.811 11.8883 42.7908 12.7798 42.4085C17.3548 40.4515 22.3404 40.1807 27.9788 41.5888L26.3604 40.5661C26.3169 40.5407 21.2431 37.5886 17.6243 36.6223C15.4721 36.0478 13.6234 35.7632 12.1292 35.7632L12.1303 35.7621Z" fill="#212B36"/>
<path d="M35.9937 73.0021C36.1571 72.8958 37.6619 70.3573 39.3143 69.8281C40.9666 69.2989 44.5621 73.2482 44.5621 73.2482L35.9937 73.0009V73.0021Z" fill="white"/>
<path d="M44.5619 73.5021H44.5555L35.9871 73.2548C35.8831 73.2513 35.7929 73.1739 35.7664 73.0641C35.7419 72.9625 35.778 72.855 35.8544 72.7938C35.8873 72.758 35.9818 72.6274 36.0731 72.5014C36.61 71.7597 37.8655 70.0242 39.2472 69.5816C40.9845 69.0236 44.3486 72.6517 44.7275 73.0676C44.7954 73.1416 44.8145 73.2525 44.7763 73.3484C44.7391 73.442 44.6542 73.5021 44.5608 73.5021H44.5619ZM36.4848 72.7591L43.9665 72.9752C42.7663 71.7516 40.4729 69.7226 39.3809 70.0716C38.1764 70.4575 37.0154 72.0277 36.4848 72.7591Z" fill="#212B36"/>
<path d="M28.23 52.1169C28.2162 52.1169 28.2034 52.1159 28.1897 52.1138C28.0623 52.0915 27.9763 51.9704 27.9986 51.843L29.1617 45.0967C29.184 44.9693 29.3061 44.8844 29.4324 44.9056C29.5597 44.9279 29.6457 45.0489 29.6234 45.1764L28.4603 51.9226C28.4401 52.0362 28.3414 52.1169 28.23 52.1169Z" fill="#212B36"/>
<path d="M0 80.502L6 86.002V124.502L0 119.002V80.502Z" fill="#212B36"/>
<path d="M6.49186 24.5735C6.43364 24.5735 6.37431 24.5533 6.32729 24.5108C6.22654 24.4201 6.21758 24.2645 6.30826 24.1626C12.8125 16.8904 20.3544 10.9583 28.726 6.53071C28.8469 6.4669 28.9958 6.5128 29.0584 6.6337C29.1223 6.75349 29.0764 6.9035 28.9555 6.96619C20.6366 11.3658 13.1394 17.2621 6.67433 24.4906C6.6262 24.5455 6.55791 24.5723 6.49074 24.5723L6.49186 24.5735Z" fill="#212B36"/>
<path d="M5.19405 19.502C5.14818 19.502 5.10142 19.4886 5.06437 19.4603C4.98497 19.4001 4.97792 19.2968 5.04937 19.2291C10.1749 14.4002 16.1183 10.4611 22.7153 7.52105C22.8106 7.47867 22.9279 7.50916 22.9773 7.58944C23.0276 7.66898 22.9915 7.76859 22.8962 7.81022C16.3406 10.7317 10.4325 14.647 5.33785 19.4469C5.29992 19.4834 5.2461 19.5012 5.19317 19.5012L5.19405 19.502Z" fill="#212B36"/>
<path d="M1.24604 31.0414C1.19567 31.0414 1.14417 31.0257 1.10051 30.9932C0.990803 30.9126 0.967293 30.7593 1.0479 30.6496C1.8181 29.6006 2.62413 28.5539 3.44247 27.5374C3.52756 27.431 3.68317 27.4142 3.7884 27.5004C3.89475 27.5855 3.91154 27.7411 3.82534 27.8464C3.01147 28.8561 2.21104 29.8973 1.4442 30.9406C1.39606 31.0067 1.32105 31.0414 1.24604 31.0414Z" fill="#212B36"/>
<path d="M3.99939 4.30725C3.84114 4.30725 3.71167 4.17908 3.71167 4.01953V1.78968C3.71167 1.63143 3.83983 1.50195 3.99939 1.50195C4.15894 1.50195 4.2871 1.63012 4.2871 1.78968V4.01953C4.2871 4.17777 4.15894 4.30725 3.99939 4.30725Z" fill="#212B36"/>
<path d="M3.99939 9.50256C3.84114 9.50256 3.71167 9.37439 3.71167 9.21484V6.98499C3.71167 6.82674 3.83983 6.69727 3.99939 6.69727C4.15894 6.69727 4.2871 6.82543 4.2871 6.98499V9.21484C4.2871 9.37309 4.15894 9.50256 3.99939 9.50256Z" fill="#212B36"/>
<path d="M2.51757 5.78834H0.287716C0.129469 5.78834 0 5.66017 0 5.50061C0 5.34106 0.128161 5.21289 0.287716 5.21289H2.51757C2.67582 5.21289 2.80529 5.34106 2.80529 5.50061C2.80529 5.66017 2.67713 5.78834 2.51757 5.78834Z" fill="#212B36"/>
<path d="M7.71214 5.78834H5.48231C5.32406 5.78834 5.19458 5.66017 5.19458 5.50061C5.19458 5.34106 5.32276 5.21289 5.48231 5.21289H7.71214C7.87038 5.21289 7.99988 5.34106 7.99988 5.50061C7.99988 5.66017 7.87169 5.78834 7.71214 5.78834Z" fill="#212B36"/>
<path d="M25.0006 5.50195C24.7597 5.50195 24.5177 5.45768 24.2863 5.36913C23.782 5.17689 23.3857 4.79939 23.1686 4.30539C22.726 3.29758 23.1852 2.11733 24.1926 1.67342C24.6779 1.45904 25.2177 1.44506 25.7137 1.63498C26.218 1.82722 26.6143 2.20471 26.8314 2.69871C27.274 3.70653 26.8148 4.88678 25.8074 5.33068C25.5488 5.44486 25.2747 5.50195 25.0006 5.50195ZM25.0006 2.0148C24.7989 2.0148 24.5972 2.05674 24.4073 2.14063C23.6586 2.47035 23.3181 3.35117 23.6491 4.10266C23.8105 4.46967 24.1047 4.74929 24.4773 4.89144C24.8416 5.03008 25.2391 5.02076 25.5962 4.86348C26.345 4.53375 26.6855 3.65293 26.3544 2.90144C26.1931 2.53443 25.8988 2.25481 25.5262 2.11267C25.3554 2.04742 25.1786 2.0148 25.0018 2.0148H25.0006Z" fill="#212B36"/>
<path d="M62.1613 47.6014C62.2128 47.5097 62.2818 47.4272 62.3656 47.3583C62.548 47.2082 62.7792 47.1395 63.0173 47.1644C63.5028 47.2154 63.8623 47.6474 63.819 48.1278C63.7984 48.3593 63.6883 48.5679 63.5085 48.7154C63.3261 48.8656 63.0949 48.9343 62.8569 48.9094C62.3713 48.8584 62.0118 48.4264 62.0551 47.946C62.0662 47.8227 62.1027 47.7058 62.1613 47.6014ZM63.5138 48.3611C63.5569 48.2843 63.5838 48.1983 63.5919 48.1078C63.6242 47.7508 63.3554 47.4292 62.9931 47.3916C62.8162 47.3731 62.6448 47.4242 62.51 47.5352C62.3783 47.6437 62.2969 47.7971 62.2815 47.9674C62.2492 48.3243 62.518 48.6459 62.8803 48.6836C63.0571 48.7021 63.2285 48.6509 63.3634 48.54C63.4252 48.4891 63.4757 48.4289 63.5135 48.3616L63.5138 48.3611Z" fill="#212B36"/>
<path d="M42.0567 61.1364C42.0759 61.1021 42.1121 61.079 42.1541 61.0782C43.8959 61.0507 45.5822 60.8572 47.1664 60.5028C47.2276 60.489 47.2886 60.5275 47.3021 60.5891C47.3159 60.6504 47.2775 60.7114 47.2158 60.7249C45.6166 61.0828 43.9144 61.2781 42.1571 61.3058C42.0942 61.3067 42.0425 61.2569 42.0411 61.1937C42.041 61.1728 42.0461 61.1531 42.0555 61.1364L42.0567 61.1364Z" fill="#212B36"/>
<path d="M48.8514 60.0882C48.8651 60.0638 48.8878 60.0444 48.9168 60.0352C54.0456 58.4331 58.264 55.0483 61.8129 49.6877C61.8476 49.6353 61.9182 49.6208 61.9706 49.6556C62.023 49.6904 62.0387 49.7587 62.0027 49.8134C58.4235 55.2193 54.1654 58.6336 48.9846 60.2521C48.9247 60.2708 48.8609 60.2374 48.8418 60.1773C48.8319 60.1462 48.8365 60.1137 48.8512 60.0875L48.8514 60.0882Z" fill="#212B36"/>
<path d="M44.577 59.5794C44.5937 59.5495 44.624 59.5273 44.6603 59.5221C50.4744 58.6968 55.245 55.8878 59.2444 50.9349C59.2839 50.8857 59.3557 50.8785 59.4044 50.9177C59.4536 50.9572 59.4617 51.0284 59.4215 51.0778C55.3843 56.0779 50.5666 58.9138 44.6923 59.7476C44.6302 59.7567 44.5726 59.713 44.5636 59.6509C44.5602 59.6252 44.5653 59.6001 44.577 59.5794Z" fill="#212B36"/>
<path fill-rule="evenodd" clip-rule="evenodd" d="M140.387 5.00195C137.511 5.02367 134.702 5.87148 132.295 7.44447C131.77 7.78747 131.269 8.16179 130.794 8.56468L135.074 12.8492C135.241 12.7224 135.413 12.6013 135.589 12.4861C137.019 11.5523 138.684 11.0455 140.39 11.0247C140.388 11.0045 140.387 10.9839 140.387 10.963V5.00195ZM141.376 11.0668C142.769 11.2034 144.115 11.6643 145.305 12.4181C145.648 12.6354 145.974 12.8748 146.283 13.1344L150.55 8.86649C149.924 8.30081 149.248 7.78668 148.528 7.33093C146.377 5.96767 143.919 5.17766 141.387 5.02775V10.963C141.387 10.9986 141.383 11.0333 141.376 11.0668ZM151.27 9.56101L147.011 13.8204C147.679 14.5242 148.232 15.3352 148.644 16.2245C149.029 17.0532 149.282 17.9312 149.4 18.8277H155.454C155.315 17.0574 154.862 15.3171 154.108 13.6907C153.397 12.1571 152.435 10.7628 151.27 9.56101ZM155.499 19.8277H149.476C149.485 20.2955 149.457 20.7651 149.393 21.2323C149.157 22.9388 148.434 24.5414 147.312 25.8487L151.882 29.7711C153.757 27.5869 154.964 24.9093 155.358 22.058C155.461 21.3161 155.508 20.5707 155.499 19.8277ZM134.31 13.4992L130.053 9.23758C128.691 10.5591 127.587 12.1333 126.805 13.8816C126.104 15.4504 125.681 17.1198 125.547 18.816H131.601C131.714 17.9651 131.95 17.1305 132.304 16.3388C132.783 15.2658 133.466 14.3024 134.31 13.4992ZM131.524 19.816H125.501C125.491 20.6324 125.548 21.4517 125.672 22.2656C126.106 25.1112 127.35 27.7716 129.256 29.9294L133.77 25.9434C132.63 24.6519 131.885 23.0597 131.625 21.3566C131.547 20.8447 131.514 20.3293 131.524 19.816Z" fill="#212B36"/>
<path fill-rule="evenodd" clip-rule="evenodd" d="M141.387 10.9629C141.387 10.9985 141.383 11.0333 141.376 11.0668C141.385 11.0677 141.394 11.0686 141.404 11.0695C141.727 11.1022 142.048 11.1524 142.365 11.2197C143.403 11.4403 144.4 11.8443 145.305 12.4181C145.648 12.6354 145.974 12.8748 146.283 13.1343L150.55 8.86644C150.302 8.64251 150.047 8.42665 149.783 8.2193C149.382 7.90285 148.963 7.60621 148.528 7.33087C146.661 6.14788 144.563 5.39656 142.387 5.12058C142.055 5.07853 141.722 5.04751 141.387 5.02769V10.9629ZM142.387 6.12917V10.2039C143.608 10.4391 144.78 10.9016 145.84 11.5734C145.96 11.6493 146.078 11.7277 146.194 11.8084L149.071 8.93173C148.725 8.66368 148.365 8.41127 147.993 8.17558C146.287 7.09426 144.373 6.39936 142.387 6.12917ZM155.342 17.8277C155.39 18.1596 155.428 18.4931 155.454 18.8277H149.4C149.282 17.9312 149.029 17.0531 148.644 16.2244C148.232 15.3352 147.679 14.5242 147.011 13.8204L151.27 9.56096C151.503 9.80068 151.727 10.0481 151.943 10.3027C152.809 11.3246 153.538 12.463 154.108 13.6906C154.72 15.0097 155.133 16.4036 155.342 17.8277ZM154.33 17.8277C154.129 16.5489 153.751 15.2977 153.201 14.1114C152.681 12.9908 152.018 11.9498 151.233 11.0124L148.373 13.8723C148.836 14.4664 149.232 15.1139 149.552 15.8037C149.854 16.455 150.083 17.1337 150.238 17.8277H154.33ZM135.074 12.8491C135.241 12.7224 135.413 12.6013 135.589 12.4861C136.738 11.7354 138.04 11.2607 139.392 11.0925C139.713 11.0526 140.037 11.03 140.363 11.025C140.372 11.0249 140.381 11.0247 140.39 11.0246C140.388 11.0044 140.387 10.9838 140.387 10.9629V5.00195C140.052 5.00448 139.719 5.01811 139.387 5.04283C136.863 5.23061 134.423 6.05435 132.295 7.44441C132.053 7.60283 131.815 7.76792 131.583 7.93943C131.313 8.13927 131.05 8.34781 130.794 8.56463L135.074 12.8491ZM132.298 8.65535L135.193 11.5527C136.466 10.7529 137.9 10.2532 139.387 10.0862V6.04579C137.058 6.23155 134.807 6.99779 132.842 8.28155C132.658 8.40206 132.476 8.5267 132.298 8.65535ZM134.31 13.4992C134.206 13.5984 134.104 13.7001 134.005 13.8042C133.301 14.5421 132.724 15.3983 132.304 16.3387C131.95 17.1305 131.714 17.9651 131.601 18.816H125.547C125.573 18.4814 125.611 18.1479 125.66 17.8159C125.859 16.4651 126.242 15.1409 126.805 13.8816C127.449 12.4407 128.313 11.1181 129.359 9.95766C129.486 9.81685 129.616 9.67843 129.748 9.54248C129.848 9.4394 129.95 9.33774 130.053 9.23753L134.31 13.4992ZM132.916 13.5184L130.067 10.6662C129.106 11.7399 128.312 12.9609 127.718 14.2896C127.213 15.4197 126.863 16.6057 126.672 17.8159H130.765C130.91 17.1713 131.119 16.5396 131.391 15.9307C131.783 15.0532 132.298 14.2416 132.916 13.5184ZM125.501 19.816C125.5 19.9396 125.5 20.0634 125.501 20.1872C125.504 20.3967 125.511 20.6063 125.522 20.816C125.548 21.2999 125.598 21.7837 125.672 22.2656C126.056 24.7806 127.072 27.1511 128.619 29.1577C128.822 29.4214 129.034 29.6788 129.256 29.9294L133.77 25.9434C132.63 24.6519 131.885 23.0596 131.625 21.3566C131.566 20.968 131.532 20.5773 131.524 20.1871C131.522 20.0633 131.522 19.9396 131.524 19.816H125.501ZM130.556 20.816H126.524C126.549 21.2495 126.594 21.6829 126.66 22.1147C127.015 24.4399 127.95 26.6327 129.37 28.4942L132.396 25.8223C131.48 24.547 130.875 23.0691 130.637 21.5075C130.602 21.2775 130.575 21.0468 130.556 20.816ZM149.476 20.1754C149.478 20.0594 149.478 19.9435 149.476 19.8277H155.499C155.5 19.9435 155.5 20.0595 155.499 20.1754C155.496 20.3928 155.489 20.6102 155.477 20.8277C155.455 21.2382 155.415 21.6486 155.358 22.058C155.01 24.5781 154.026 26.9625 152.508 28.9906C152.309 29.2571 152.1 29.5174 151.882 29.7711L147.312 25.8486C148.434 24.5414 149.157 22.9388 149.393 21.2323C149.441 20.8808 149.469 20.5278 149.476 20.1754ZM150.443 20.8277C150.428 21.0084 150.408 21.1891 150.383 21.3694C150.167 22.9342 149.582 24.4203 148.684 25.7084L151.748 28.3377C153.142 26.4565 154.045 24.2509 154.368 21.9209C154.418 21.5571 154.454 21.1925 154.476 20.8277H150.443Z" fill="#212B36"/>
<path d="M148.025 22.3448L141.747 18.2488L140.681 20.8404L148.025 22.3448Z" fill="#212B36"/>
<path d="M143 19.502C143 20.6065 142.105 21.502 141 21.502C139.895 21.502 139 20.6065 139 19.502C139 18.3974 139.895 17.502 141 17.502C142.105 17.502 143 18.3974 143 19.502Z" fill="#212B36"/>
<path fill-rule="evenodd" clip-rule="evenodd" d="M141 21.302C141.994 21.302 142.8 20.4961 142.8 19.502C142.8 18.5078 141.994 17.702 141 17.702C140.006 17.702 139.2 18.5078 139.2 19.502C139.2 20.4961 140.006 21.302 141 21.302ZM141 21.502C142.105 21.502 143 20.6065 143 19.502C143 18.3974 142.105 17.502 141 17.502C139.895 17.502 139 18.3974 139 19.502C139 20.6065 139.895 21.502 141 21.502Z" fill="white"/>
<defs>
<clipPath id="clip0_1850_24445">
<rect width="25" height="20" fill="white" transform="translate(129 63.502)"/>
</clipPath>
</defs>
</svg>
