<svg width="181" height="126" viewBox="0 0 181 126" fill="none" xmlns="http://www.w3.org/2000/svg">
<path d="M178 19.8535C178 28.6901 170.837 35.8535 162 35.8535C153.163 35.8535 146 28.6901 146 19.8535C146 11.017 153.163 3.85352 162 3.85352C170.837 3.85352 178 11.017 178 19.8535Z" fill="#212B36"/>
<path d="M155.959 22.7902L156.507 23.8734C157.419 25.2912 158.909 26.2363 160.58 26.458L161.513 26.5818C162.853 26.7596 164.217 26.5685 165.457 26.029L166.117 25.7418C167.548 25.1192 168.664 23.941 169.207 22.4784C169.717 21.1092 169.744 19.5545 168.911 18.354C168.738 18.1042 168.551 17.8661 168.356 17.6648C167.608 16.8921 166.027 15.9264 166.027 15.9264L166.124 16.3652C166.208 16.7491 166.334 17.1225 166.5 17.4786L166.729 17.9682C166.907 18.3514 167 18.7691 167 19.192V19.725C167 20.1386 166.724 20.5014 166.326 20.6119C166.132 20.6656 165.927 20.6545 165.74 20.5804L165.23 20.3779C164.514 20.0933 164.095 19.3447 164.228 18.5852C164.32 18.0598 164.149 17.5227 163.77 17.1476L162.534 15.9264C161.959 15.2412 161.877 14.2686 162.328 13.4962L163.288 11.8535L161.584 12.484C160.56 12.8628 159.813 13.7546 159.62 14.8288C159.554 15.1933 159.555 15.5666 159.622 15.9308L160.25 19.3535L160.357 19.729C160.68 20.8686 159.273 21.6899 158.44 20.8473C158.136 20.5403 158.031 20.0889 158.168 19.6794L158.397 18.9939C158.735 17.98 158.338 16.8663 157.434 16.2955L156.849 15.9264C157.351 16.9871 157.193 18.2423 156.445 19.1463L156.355 19.2555C155.532 20.2502 155.377 21.638 155.959 22.7902Z" fill="white"/>
<path d="M102 31.8535C102 27.4352 105.582 23.8535 110 23.8535H152C156.418 23.8535 160 27.4352 160 31.8535V85.8535C160 90.2718 156.418 93.8535 152 93.8535H110C105.582 93.8535 102 90.2718 102 85.8535V31.8535Z" fill="white"/>
<path fill-rule="evenodd" clip-rule="evenodd" d="M152 24.3535H110C105.858 24.3535 102.5 27.7114 102.5 31.8535V85.8535C102.5 89.9957 105.858 93.3535 110 93.3535H152C156.142 93.3535 159.5 89.9957 159.5 85.8535V31.8535C159.5 27.7114 156.142 24.3535 152 24.3535ZM110 23.8535C105.582 23.8535 102 27.4352 102 31.8535V85.8535C102 90.2718 105.582 93.8535 110 93.8535H152C156.418 93.8535 160 90.2718 160 85.8535V31.8535C160 27.4352 156.418 23.8535 152 23.8535H110Z" fill="#212B36"/>
<path fill-rule="evenodd" clip-rule="evenodd" d="M110.37 51.3535H116.185C117.566 51.3535 118.685 52.4728 118.685 53.8535C118.685 55.2342 117.566 56.3535 116.185 56.3535H110.37C108.99 56.3535 107.87 55.2342 107.87 53.8535C107.87 52.4728 108.99 51.3535 110.37 51.3535ZM116.185 50.8535C117.842 50.8535 119.185 52.1967 119.185 53.8535C119.185 55.5104 117.842 56.8535 116.185 56.8535H110.37C108.714 56.8535 107.37 55.5104 107.37 53.8535C107.37 52.1967 108.714 50.8535 110.37 50.8535H116.185Z" fill="#212B36"/>
<path fill-rule="evenodd" clip-rule="evenodd" d="M109.37 59.1535H117.185C118.124 59.1535 118.885 59.9146 118.885 60.8535V65.8535C118.885 66.7924 118.124 67.5535 117.185 67.5535H109.37C108.432 67.5535 107.67 66.7924 107.67 65.8535V60.8535C107.67 59.9146 108.432 59.1535 109.37 59.1535ZM117.185 58.8535C118.29 58.8535 119.185 59.7489 119.185 60.8535V65.8535C119.185 66.9581 118.29 67.8535 117.185 67.8535H109.37C108.266 67.8535 107.37 66.9581 107.37 65.8535V60.8535C107.37 59.7489 108.266 58.8535 109.37 58.8535H117.185Z" fill="#212B36"/>
<path fill-rule="evenodd" clip-rule="evenodd" d="M109.37 70.1535H117.185C118.124 70.1535 118.885 70.9146 118.885 71.8535V76.8535C118.885 77.7924 118.124 78.5535 117.185 78.5535H109.37C108.432 78.5535 107.67 77.7924 107.67 76.8535V71.8535C107.67 70.9146 108.432 70.1535 109.37 70.1535ZM117.185 69.8535C118.29 69.8535 119.185 70.7489 119.185 71.8535V76.8535C119.185 77.9581 118.29 78.8535 117.185 78.8535H109.37C108.266 78.8535 107.37 77.9581 107.37 76.8535V71.8535C107.37 70.7489 108.266 69.8535 109.37 69.8535H117.185Z" fill="#212B36"/>
<path fill-rule="evenodd" clip-rule="evenodd" d="M109.37 81.1535H117.185C118.124 81.1535 118.885 81.9146 118.885 82.8535V87.8535C118.885 88.7924 118.124 89.5535 117.185 89.5535H109.37C108.432 89.5535 107.67 88.7924 107.67 87.8535V82.8535C107.67 81.9146 108.432 81.1535 109.37 81.1535ZM117.185 80.8535C118.29 80.8535 119.185 81.7489 119.185 82.8535V87.8535C119.185 88.9581 118.29 89.8535 117.185 89.8535H109.37C108.266 89.8535 107.37 88.9581 107.37 87.8535V82.8535C107.37 81.7489 108.266 80.8535 109.37 80.8535H117.185Z" fill="#212B36"/>
<path fill-rule="evenodd" clip-rule="evenodd" d="M127.555 51.3535H133.37C134.751 51.3535 135.87 52.4728 135.87 53.8535C135.87 55.2342 134.751 56.3535 133.37 56.3535H127.555C126.175 56.3535 125.055 55.2342 125.055 53.8535C125.055 52.4728 126.175 51.3535 127.555 51.3535ZM133.37 50.8535C135.027 50.8535 136.37 52.1967 136.37 53.8535C136.37 55.5104 135.027 56.8535 133.37 56.8535H127.555C125.898 56.8535 124.555 55.5104 124.555 53.8535C124.555 52.1967 125.898 50.8535 127.555 50.8535H133.37Z" fill="#212B36"/>
<path fill-rule="evenodd" clip-rule="evenodd" d="M126.555 59.1535H134.37C135.309 59.1535 136.07 59.9146 136.07 60.8535V65.8535C136.07 66.7924 135.309 67.5535 134.37 67.5535H126.555C125.616 67.5535 124.855 66.7924 124.855 65.8535V60.8535C124.855 59.9146 125.616 59.1535 126.555 59.1535ZM134.37 58.8535C135.475 58.8535 136.37 59.7489 136.37 60.8535V65.8535C136.37 66.9581 135.475 67.8535 134.37 67.8535H126.555C125.451 67.8535 124.555 66.9581 124.555 65.8535V60.8535C124.555 59.7489 125.451 58.8535 126.555 58.8535H134.37Z" fill="#212B36"/>
<path fill-rule="evenodd" clip-rule="evenodd" d="M126.555 70.1535H134.37C135.309 70.1535 136.07 70.9146 136.07 71.8535V76.8535C136.07 77.7924 135.309 78.5535 134.37 78.5535H126.555C125.616 78.5535 124.855 77.7924 124.855 76.8535V71.8535C124.855 70.9146 125.616 70.1535 126.555 70.1535ZM134.37 69.8535C135.475 69.8535 136.37 70.7489 136.37 71.8535V76.8535C136.37 77.9581 135.475 78.8535 134.37 78.8535H126.555C125.451 78.8535 124.555 77.9581 124.555 76.8535V71.8535C124.555 70.7489 125.451 69.8535 126.555 69.8535H134.37Z" fill="#212B36"/>
<path fill-rule="evenodd" clip-rule="evenodd" d="M126.555 81.1535H134.37C135.309 81.1535 136.07 81.9146 136.07 82.8535V87.8535C136.07 88.7924 135.309 89.5535 134.37 89.5535H126.555C125.616 89.5535 124.855 88.7924 124.855 87.8535V82.8535C124.855 81.9146 125.616 81.1535 126.555 81.1535ZM134.37 80.8535C135.475 80.8535 136.37 81.7489 136.37 82.8535V87.8535C136.37 88.9581 135.475 89.8535 134.37 89.8535H126.555C125.451 89.8535 124.555 88.9581 124.555 87.8535V82.8535C124.555 81.7489 125.451 80.8535 126.555 80.8535H134.37Z" fill="#212B36"/>
<path fill-rule="evenodd" clip-rule="evenodd" d="M145.815 51.3535H151.63C153.011 51.3535 154.13 52.4728 154.13 53.8535C154.13 55.2342 153.011 56.3535 151.63 56.3535H145.815C144.434 56.3535 143.315 55.2342 143.315 53.8535C143.315 52.4728 144.434 51.3535 145.815 51.3535ZM151.63 50.8535C153.287 50.8535 154.63 52.1967 154.63 53.8535C154.63 55.5104 153.287 56.8535 151.63 56.8535H145.815C144.158 56.8535 142.815 55.5104 142.815 53.8535C142.815 52.1967 144.158 50.8535 145.815 50.8535H151.63Z" fill="#212B36"/>
<path fill-rule="evenodd" clip-rule="evenodd" d="M144.815 59.1535H152.63C153.569 59.1535 154.33 59.9146 154.33 60.8535V65.8535C154.33 66.7924 153.569 67.5535 152.63 67.5535H144.815C143.876 67.5535 143.115 66.7924 143.115 65.8535V60.8535C143.115 59.9146 143.876 59.1535 144.815 59.1535ZM152.63 58.8535C153.734 58.8535 154.63 59.7489 154.63 60.8535V65.8535C154.63 66.9581 153.734 67.8535 152.63 67.8535H144.815C143.71 67.8535 142.815 66.9581 142.815 65.8535V60.8535C142.815 59.7489 143.71 58.8535 144.815 58.8535H152.63Z" fill="#212B36"/>
<path fill-rule="evenodd" clip-rule="evenodd" d="M144.815 70.1535H152.63C153.569 70.1535 154.33 70.9146 154.33 71.8535V76.8535C154.33 77.7924 153.569 78.5535 152.63 78.5535H144.815C143.876 78.5535 143.115 77.7924 143.115 76.8535V71.8535C143.115 70.9146 143.876 70.1535 144.815 70.1535ZM152.63 69.8535C153.734 69.8535 154.63 70.7489 154.63 71.8535V76.8535C154.63 77.9581 153.734 78.8535 152.63 78.8535H144.815C143.71 78.8535 142.815 77.9581 142.815 76.8535V71.8535C142.815 70.7489 143.71 69.8535 144.815 69.8535H152.63Z" fill="#212B36"/>
<path fill-rule="evenodd" clip-rule="evenodd" d="M144.815 81.1535H152.63C153.569 81.1535 154.33 81.9146 154.33 82.8535V87.8535C154.33 88.7924 153.569 89.5535 152.63 89.5535H144.815C143.876 89.5535 143.115 88.7924 143.115 87.8535V82.8535C143.115 81.9146 143.876 81.1535 144.815 81.1535ZM152.63 80.8535C153.734 80.8535 154.63 81.7489 154.63 82.8535V87.8535C154.63 88.9581 153.734 89.8535 152.63 89.8535H144.815C143.71 89.8535 142.815 88.9581 142.815 87.8535V82.8535C142.815 81.7489 143.71 80.8535 144.815 80.8535H152.63Z" fill="#212B36"/>
<path fill-rule="evenodd" clip-rule="evenodd" d="M151.011 28.3535H110.677C108.744 28.3535 107.177 29.9205 107.177 31.8535V43.8535C107.177 45.7865 108.744 47.3535 110.677 47.3535H151.011C152.944 47.3535 154.511 45.7865 154.511 43.8535V31.8535C154.511 29.9205 152.944 28.3535 151.011 28.3535ZM110.677 27.8535C108.468 27.8535 106.677 29.6444 106.677 31.8535V43.8535C106.677 46.0627 108.468 47.8535 110.677 47.8535H151.011C153.22 47.8535 155.011 46.0627 155.011 43.8535V31.8535C155.011 29.6444 153.22 27.8535 151.011 27.8535H110.677Z" fill="#212B36"/>
<path d="M121.47 33.1769H123.192V38.4629H124.53V39.9329H123.192V41.8529H121.506L121.512 39.9329H117.516V38.4929L121.47 33.1769ZM119.136 38.4629H121.512V35.2829L119.136 38.4629Z" fill="#212B36"/>
<path d="M128.751 33.0569C129.783 33.0569 130.597 33.4429 131.193 34.2149C131.789 34.9829 132.087 36.0889 132.087 37.5329C132.087 38.9689 131.793 40.0709 131.205 40.8389C130.617 41.6029 129.799 41.9849 128.751 41.9849C127.699 41.9849 126.877 41.6029 126.285 40.8389C125.697 40.0749 125.403 38.9749 125.403 37.5389C125.403 36.5789 125.539 35.7649 125.811 35.0969C126.083 34.4289 126.469 33.9229 126.969 33.5789C127.469 33.2309 128.063 33.0569 128.751 33.0569ZM128.751 40.5509C129.267 40.5509 129.645 40.3209 129.885 39.8609C130.125 39.3969 130.245 38.6229 130.245 37.5389C130.245 36.4309 130.123 35.6369 129.879 35.1569C129.635 34.6769 129.257 34.4369 128.745 34.4369C128.233 34.4369 127.851 34.6789 127.599 35.1629C127.351 35.6469 127.227 36.4389 127.227 37.5389C127.227 38.6189 127.351 39.3909 127.599 39.8549C127.847 40.3189 128.231 40.5509 128.751 40.5509Z" fill="#212B36"/>
<path d="M135.363 33.0449C135.775 33.0449 136.145 33.1549 136.473 33.3749C136.801 33.5949 137.061 33.8929 137.253 34.2689C137.445 34.6449 137.541 35.0649 137.541 35.5289C137.541 35.9889 137.447 36.4029 137.259 36.7709C137.071 37.1389 136.811 37.4309 136.479 37.6469C136.151 37.8589 135.779 37.9649 135.363 37.9649C134.947 37.9649 134.573 37.8589 134.241 37.6469C133.909 37.4309 133.647 37.1389 133.455 36.7709C133.263 36.4029 133.167 35.9889 133.167 35.5289C133.167 35.0649 133.263 34.6449 133.455 34.2689C133.651 33.8929 133.915 33.5949 134.247 33.3749C134.579 33.1549 134.951 33.0449 135.363 33.0449ZM135.351 37.0769C135.667 37.0769 135.895 36.9409 136.035 36.6689C136.179 36.3929 136.251 36.0129 136.251 35.5289C136.251 35.0289 136.177 34.6369 136.029 34.3529C135.881 34.0689 135.655 33.9269 135.351 33.9269C135.151 33.9269 134.985 33.9929 134.853 34.1249C134.721 34.2529 134.621 34.4369 134.553 34.6769C134.489 34.9169 134.457 35.2009 134.457 35.5289C134.457 36.0089 134.529 36.3869 134.673 36.6629C134.817 36.9389 135.043 37.0769 135.351 37.0769ZM141.057 37.0409C141.469 37.0409 141.839 37.1529 142.167 37.3769C142.499 37.5969 142.761 37.8949 142.953 38.2709C143.145 38.6469 143.241 39.0649 143.241 39.5249C143.241 39.9849 143.147 40.4009 142.959 40.7729C142.771 41.1409 142.511 41.4329 142.179 41.6489C141.851 41.8649 141.477 41.9729 141.057 41.9729C140.637 41.9729 140.261 41.8649 139.929 41.6489C139.597 41.4329 139.335 41.1409 139.143 40.7729C138.951 40.4009 138.855 39.9849 138.855 39.5249C138.855 39.0649 138.951 38.6469 139.143 38.2709C139.339 37.8949 139.603 37.5969 139.935 37.3769C140.271 37.1529 140.645 37.0409 141.057 37.0409ZM141.045 41.0669C141.249 41.0669 141.417 41.0049 141.549 40.8809C141.681 40.7569 141.779 40.5809 141.843 40.3529C141.911 40.1209 141.945 39.8489 141.945 39.5369C141.945 39.2049 141.911 38.9209 141.843 38.6849C141.775 38.4449 141.675 38.2609 141.543 38.1329C141.411 38.0009 141.245 37.9349 141.045 37.9349C140.845 37.9349 140.679 38.0009 140.547 38.1329C140.419 38.2609 140.321 38.4449 140.253 38.6849C140.189 38.9249 140.157 39.2089 140.157 39.5369C140.157 39.8489 140.189 40.1209 140.253 40.3529C140.317 40.5809 140.415 40.7569 140.547 40.8809C140.679 41.0049 140.845 41.0669 141.045 41.0669ZM141.555 33.0809L135.723 41.9009L134.691 41.8829L140.541 33.0809H141.555Z" fill="#212B36"/>
<path d="M81 91.3536C81 88.8683 83.0148 86.8535 85.5001 86.8535H176.002C178.487 86.8535 180.502 88.8683 180.502 91.3536V110.354C180.502 112.839 178.487 114.854 176.002 114.854H85.5001C83.0147 114.854 81 112.839 81 110.354V91.3536Z" fill="#212B36"/>
<path d="M88.9585 107.858V94.8441H93.6746C95.3786 94.8441 96.6416 95.1381 97.4636 95.7261C98.2917 96.3081 98.7057 97.1511 98.7057 98.2551C98.7057 98.9031 98.5407 99.4671 98.2107 99.9472C97.8807 100.421 97.2926 100.835 96.4466 101.189C96.9926 101.327 97.4336 101.513 97.7696 101.747C98.1057 101.981 98.3637 102.242 98.5437 102.53C98.7237 102.812 98.8467 103.109 98.9127 103.421C98.9787 103.727 99.0117 104.03 99.0117 104.33C99.0117 105.53 98.6037 106.418 97.7877 106.994C96.9716 107.57 95.6726 107.858 93.8906 107.858H88.9585ZM91.5775 105.824H93.9446C94.7366 105.824 95.3336 105.665 95.7356 105.347C96.1436 105.029 96.3476 104.603 96.3476 104.069C96.3476 103.685 96.2486 103.364 96.0506 103.106C95.8526 102.842 95.5826 102.644 95.2406 102.512C94.9046 102.38 94.5206 102.314 94.0886 102.314H91.5775V105.824ZM91.5775 100.226H94.0886C94.3586 100.226 94.6166 100.196 94.8626 100.136C95.1146 100.07 95.3366 99.9712 95.5286 99.8392C95.7266 99.7072 95.8826 99.5391 95.9966 99.3351C96.1106 99.1251 96.1676 98.8791 96.1676 98.5971C96.1676 98.0331 95.9546 97.6071 95.5286 97.3191C95.1086 97.0251 94.5686 96.8781 93.9086 96.8781H91.5775V100.226Z" fill="white"/>
<path d="M106.672 108.038C105.442 108.038 104.377 107.771 103.477 107.237C102.583 106.697 101.89 105.932 101.398 104.942C100.912 103.946 100.669 102.758 100.669 101.378C100.669 99.9922 100.915 98.7981 101.407 97.7961C101.905 96.7941 102.604 96.0231 103.504 95.4831C104.404 94.9371 105.46 94.6641 106.672 94.6641C107.879 94.6641 108.929 94.9341 109.823 95.4741C110.717 96.0141 111.407 96.7851 111.893 97.7871C112.385 98.7891 112.631 99.9862 112.631 101.378C112.631 102.752 112.388 103.937 111.902 104.933C111.422 105.929 110.735 106.697 109.841 107.237C108.947 107.771 107.891 108.038 106.672 108.038ZM106.672 105.878C107.309 105.878 107.858 105.728 108.32 105.428C108.788 105.122 109.148 104.642 109.4 103.988C109.652 103.328 109.778 102.47 109.778 101.414C109.778 100.328 109.649 99.4491 109.391 98.7771C109.139 98.1051 108.779 97.6131 108.311 97.3011C107.849 96.9831 107.303 96.8241 106.672 96.8241C106.042 96.8241 105.493 96.9831 105.025 97.3011C104.557 97.6131 104.194 98.1081 103.936 98.7861C103.678 99.4581 103.549 100.334 103.549 101.414C103.549 102.476 103.678 103.334 103.936 103.988C104.194 104.642 104.557 105.122 105.025 105.428C105.493 105.728 106.042 105.878 106.672 105.878Z" fill="white"/>
<path d="M114.957 94.8441C115.023 94.8441 115.206 94.8441 115.506 94.8441C115.812 94.8441 116.169 94.8441 116.577 94.8441C116.991 94.8441 117.402 94.8471 117.81 94.8531C118.224 94.8531 118.569 94.8561 118.845 94.8621C120.423 94.8981 121.71 95.1801 122.706 95.7081C123.702 96.2361 124.431 96.9741 124.893 97.9221C125.361 98.8701 125.595 99.9922 125.595 101.288C125.595 102.638 125.349 103.805 124.857 104.789C124.365 105.767 123.612 106.523 122.598 107.057C121.59 107.591 120.309 107.858 118.755 107.858H114.957V94.8441ZM117.603 96.9681V105.734H118.809C119.553 105.734 120.228 105.59 120.834 105.302C121.446 105.014 121.935 104.543 122.301 103.889C122.667 103.235 122.85 102.362 122.85 101.27C122.85 100.256 122.688 99.4341 122.364 98.8041C122.04 98.1681 121.578 97.7031 120.978 97.4091C120.378 97.1151 119.667 96.9681 118.845 96.9681H117.603Z" fill="white"/>
<path d="M137.455 94.8441L132.928 102.386V107.858H130.3V102.377L125.782 94.8441H128.626L131.623 100.118L134.584 94.8441H137.455Z" fill="white"/>
<path d="M142.467 94.8441H151.323L151.314 97.0401H145.113V100.307H150.486V102.458H145.113V107.858H142.467V94.8441Z" fill="white"/>
<path d="M151.331 107.858L155.993 94.8441H158.765L163.418 107.858H160.799L159.737 104.843H155.057L153.968 107.858H151.331ZM155.642 102.548H159.107L157.388 97.3821L155.642 102.548Z" fill="white"/>
<path d="M163.201 97.1841V94.8441H173.614V97.1841H169.771V107.858H167.134V97.1841H163.201Z" fill="white"/>
<path d="M92.9762 36.8516C98.4999 38.4417 97.491 46.3911 94.9611 50.4075C89.7392 58.7454 77.6192 63.0224 68.9891 62.8463C63.418 62.7327 58.6287 62.4882 55.3215 58.0549C55.0018 57.6263 54.7286 57.2089 54.5149 56.815C53.0812 54.4178 54.8859 49.1816 56.9326 50.6896C62.3066 54.6493 73.5574 54.8138 81.0135 52.2573C94.0566 47.3454 93.2227 41.3971 92.9762 36.8516Z" fill="#212B36"/>
<path fill-rule="evenodd" clip-rule="evenodd" d="M92.4389 36.1758L93.1145 36.3703C96.163 37.2478 97.361 39.8914 97.4883 42.6962C97.6151 45.4915 96.7007 48.5828 95.3845 50.6726C92.7038 54.9525 88.2743 58.1615 83.4541 60.2767C78.6317 62.3929 73.3724 63.4351 68.9789 63.3454C63.4403 63.2325 58.3924 63.0068 54.9207 58.3531L55.3215 58.0541C58.6287 62.4874 63.418 62.7319 68.9891 62.8455C77.6192 63.0216 89.7392 58.7446 94.9611 50.4067C97.4101 46.5189 98.4338 38.9456 93.4866 37.0226C93.3231 36.959 93.153 36.9017 92.9762 36.8508C92.9849 37.0113 92.9944 37.1735 93.0039 37.3374C93.0048 37.3525 93.0057 37.3676 93.0065 37.3827C93.2664 41.8535 93.5537 47.534 81.0135 52.2565C73.5574 54.813 62.3066 54.6485 56.9326 50.6888C54.8859 49.1808 53.0812 54.417 54.5149 56.8143C54.7286 57.2081 55.0018 57.6255 55.3215 58.0541L54.9207 58.353C54.5927 57.9132 54.3072 57.4786 54.0803 57.0617C53.6644 56.3611 53.5005 55.49 53.5 54.634C53.4995 53.7694 53.6655 52.8782 53.9499 52.1129C54.2296 51.3604 54.6473 50.6674 55.1955 50.2684C55.4771 50.0634 55.8079 49.9262 56.175 49.9208C56.5447 49.9154 56.9012 50.0447 57.2292 50.2863C59.8012 52.1815 63.8421 53.2024 68.2167 53.4168C72.5757 53.6305 77.185 53.0393 80.8443 51.7859C87.3046 49.3519 90.2249 46.6992 91.5351 44.1852C92.7618 41.8313 92.6287 39.5209 92.5037 37.3507C92.4945 37.1923 92.4855 37.0347 92.477 36.8778L92.4389 36.1758Z" fill="#212B36"/>
<path d="M8.18329 73.85C2.57301 73.9807 1.2052 65.9942 2.39716 61.3494C4.95186 51.2887 11.9399 48.3038 18.4085 45.4691C22.6506 43.61 27.2298 42.6947 31.8311 42.8736C34.4002 42.9735 36.6914 43.4067 37.6771 44.4002C39.7095 46.2841 39.2815 49.6442 37.2022 51.0492C30.3601 54.5737 24.6671 51.179 18.4596 55.9C7.72865 64.5835 6.63365 69.5318 8.18329 73.85Z" fill="#212B36"/>
<path fill-rule="evenodd" clip-rule="evenodd" d="M8.8881 74.3337L8.19493 74.3498C5.08006 74.4224 3.19675 72.217 2.26733 69.5553C1.33888 66.8965 1.29376 63.6381 1.91269 61.2257C3.21706 56.0894 5.66292 52.7368 8.61803 50.3129C11.4979 47.9507 14.8514 46.4815 18.0182 45.0942C18.0815 45.0664 18.1447 45.0388 18.2078 45.0111L18.4085 45.4691C18.3534 45.4932 18.2982 45.5174 18.243 45.5416C11.8211 48.3552 4.93008 51.3744 2.39716 61.3494C1.24397 65.8431 2.48672 73.4646 7.64917 73.8374C7.82276 73.8499 8.00078 73.8542 8.18328 73.85C8.124 73.6848 8.06859 73.5187 8.01744 73.3514C6.73153 69.1477 8.13918 64.2513 18.4596 55.9C21.8192 53.3449 25.0281 53.167 28.35 52.9829C31.1659 52.8268 34.0631 52.6662 37.2022 51.0492C39.2815 49.6442 39.7094 46.2841 37.6771 44.4002C36.6914 43.4067 34.4002 42.9735 31.8311 42.8736L31.8505 42.374C33.1537 42.4246 34.4043 42.5602 35.465 42.8157C36.5065 43.0665 37.4325 43.4484 38.0245 44.0404C40.2949 46.1541 39.8138 49.888 37.4821 51.4635L37.4576 51.4801L37.4312 51.4937C34.1934 53.1615 31.1949 53.3269 28.3851 53.4818C28.1294 53.4959 27.8753 53.51 27.6226 53.525C24.592 53.7056 21.7461 54.0311 18.7683 56.2934C13.426 60.6171 10.5372 63.9692 9.16404 66.7344C7.80784 69.4653 7.92136 71.6398 8.6539 73.6811L8.8881 74.3337ZM31.8311 42.8736L31.8505 42.374C27.1699 42.192 22.5157 43.1232 18.2078 45.0111L18.4085 45.4691C22.6506 43.61 27.2298 42.6947 31.8311 42.8736Z" fill="#212B36"/>
<path d="M63.2343 22.1923C64.0555 21.7106 55.8841 11.952 57.4196 10.4695C58.1674 9.74737 59.1907 8.10431 59.1028 6.73292C59.0004 5.13151 56.641 3.58305 54.6686 3.17337C52.6019 2.74459 50.0793 3.42248 49.0243 4.27656C47.796 5.27126 48.2239 6.08368 46.9268 7.07663C45.2517 8.35776 40.9534 5.07249 34.7997 9.64409C31.8429 11.8401 33.1319 15.5246 30.5141 17.2232C27.5066 19.1744 24.548 16.8239 20.8724 18.5738C17.4978 20.1804 17.2286 24.6634 18.4405 27.1345C19.2798 28.8462 19.3088 28.0824 21.0891 30.0049C23.8627 33.0011 21.748 35.2466 23.6488 37.9069C26.1959 41.4725 33.8915 42.0983 38.8016 41.0906C39.7116 40.904 49.2001 38.8348 52.4016 32.2651C56.2856 24.2937 58.9904 24.6808 63.2361 22.1932L63.2343 22.1923Z" fill="#212B36"/>
<path d="M34.222 41.7098C35.9097 41.7098 37.5195 41.5492 38.842 41.2776C39.9098 41.058 49.3656 38.9453 52.5807 32.3461C55.5991 26.1514 57.8797 25.0622 60.7685 23.6838C61.5788 23.2967 62.4173 22.8966 63.3391 22.3567C63.3899 22.3272 63.4551 22.269 63.4814 22.1614C63.5902 21.7109 62.7898 20.4758 61.2462 18.1496C59.4578 15.4555 56.7557 11.3838 57.5615 10.6052C58.3393 9.85445 59.3943 8.15237 59.3019 6.72282C59.1958 5.06153 56.7965 3.42193 54.7108 2.98881C52.6143 2.55396 50.0119 3.22925 48.8952 4.1328C48.2589 4.64751 48.0422 5.11794 47.832 5.57276C47.6235 6.02497 47.4259 6.45115 46.8014 6.9294C46.2874 7.32259 45.4553 7.22711 44.3032 7.09344C42.0988 6.84 38.7677 6.45549 34.6761 9.49425C33.1098 10.6573 32.7028 12.1893 32.3094 13.67C31.9532 15.0102 31.6169 16.2766 30.4005 17.0664C28.9284 18.0212 27.4455 17.9031 25.8756 17.7781C24.2839 17.6514 22.6378 17.5204 20.7824 18.4031C17.3434 20.0401 16.9944 24.6394 18.2589 27.2156C18.7637 28.245 19.0085 28.4307 19.4535 28.7675C19.7681 29.0062 20.1986 29.3326 20.9392 30.132C22.413 31.7247 22.4629 33.1134 22.51 34.4571C22.5508 35.5932 22.5925 36.7685 23.4835 38.0149C25.4233 40.7307 30.0596 41.7098 34.222 41.7098ZM63.0953 22.0512C62.2024 22.5719 61.383 22.9634 60.5899 23.3418C57.6322 24.754 55.2955 25.8694 52.2191 32.1847C49.0846 38.6172 39.8055 40.6899 38.7577 40.9052C34.1041 41.86 26.3206 41.3131 23.8116 37.8005C22.9859 36.6452 22.9478 35.5767 22.9079 34.4449C22.8581 33.0336 22.8055 31.5745 21.2365 29.8794C20.4733 29.0548 20.0264 28.7163 19.7001 28.4689C19.2777 28.1487 19.0846 28.0028 18.6196 27.0541C17.4249 24.6186 17.7368 20.2796 20.96 18.7451C22.7158 17.9092 24.3056 18.0359 25.8429 18.1583C27.4854 18.2885 29.0363 18.4118 30.6243 17.3824C31.9659 16.5118 32.3212 15.1768 32.6964 13.7647C33.0735 12.3455 33.4633 10.8787 34.9208 9.7963C38.8828 6.85302 41.9882 7.21149 44.2561 7.47275C45.4571 7.61162 46.4061 7.72098 47.0506 7.22711C47.7513 6.69071 47.9779 6.2003 48.1963 5.72639C48.3967 5.29241 48.5861 4.88186 49.1526 4.42357C50.1959 3.57817 52.6451 2.94976 54.6265 3.36118C56.5726 3.76565 58.8088 5.25508 58.904 6.74539C58.9883 8.05776 58.0039 9.63486 57.2778 10.3362C56.3234 11.2571 58.2676 14.374 60.909 18.3536C61.9423 19.9107 63.1107 21.671 63.0953 22.0512Z" fill="white"/>
<path d="M43.8938 109.252L42.7544 117.372L38.9157 117.112L38.7263 109.381L43.8938 109.252Z" fill="white"/>
<path d="M42.7541 117.562C42.8529 117.562 42.9381 117.492 42.9517 117.397L44.0911 109.277C44.0993 109.221 44.0811 109.166 44.0421 109.124C44.0032 109.082 43.9452 109.061 43.889 109.061L38.7214 109.19C38.6117 109.192 38.5247 109.28 38.5274 109.385L38.7169 117.116C38.7196 117.214 38.7994 117.295 38.9018 117.302L42.7396 117.561C42.7441 117.561 42.7496 117.561 42.7541 117.561V117.562ZM43.6651 109.449L42.5819 117.168L39.1112 116.934L38.9308 109.567L43.666 109.448L43.6651 109.449Z" fill="#212B36"/>
<path d="M42.3656 124.625C41.1546 124.753 39.1731 124.835 36.8636 124.444C36.1067 124.316 35.6272 123.576 35.8348 122.849C36.3813 120.94 37.2669 117.187 38.6837 115.303C38.7997 115.148 39.0417 115.174 39.1287 115.345L39.5765 116.232L40.0705 115.209C40.1457 115.086 40.2763 115.005 40.4213 114.992L41.616 115.011C41.8543 114.99 42.0692 115.151 42.1109 115.382L42.2631 116.232L42.817 115.542C42.9693 115.352 43.2793 115.453 43.2865 115.694L43.5077 123.238C43.5766 123.93 43.0681 124.55 42.3638 124.625H42.3656Z" fill="white"/>
<path d="M40.2981 124.92C41.1166 124.92 41.8245 124.873 42.3874 124.813C43.195 124.728 43.7869 124.013 43.7072 123.218L43.486 115.688C43.4805 115.494 43.3546 115.331 43.1642 115.273C42.9775 115.216 42.7799 115.275 42.6593 115.425L42.3829 115.769L42.3076 115.348C42.2496 115.025 41.9442 114.794 41.6097 114.819L40.425 114.801C40.4177 114.801 40.4105 114.801 40.4032 114.802C40.1947 114.821 40.0062 114.937 39.8993 115.112L39.5729 115.785L39.3083 115.262C39.2357 115.118 39.0943 115.025 38.9303 115.011C38.768 114.998 38.6167 115.065 38.5215 115.19C37.2779 116.844 36.4412 119.897 35.8874 121.916C35.7995 122.238 35.7179 122.535 35.6427 122.797C35.5275 123.2 35.5946 123.632 35.8267 123.984C36.0533 124.326 36.4186 124.562 36.8292 124.631C38.1072 124.848 39.2865 124.921 40.2981 124.921V124.92ZM43.0228 115.632C43.0291 115.632 43.0355 115.633 43.0427 115.636C43.059 115.641 43.0872 115.656 43.089 115.698L43.3101 123.242C43.37 123.842 42.9358 124.371 42.3439 124.434C41.1102 124.564 39.1641 124.638 36.8981 124.255C36.5926 124.203 36.3315 124.034 36.163 123.779C35.9907 123.519 35.9409 123.198 36.027 122.898C36.1022 122.634 36.1847 122.337 36.2735 122.013C36.8201 120.021 37.6459 117.01 38.846 115.414C38.8587 115.397 38.8759 115.388 38.8967 115.391C38.9076 115.392 38.9348 115.397 38.9502 115.427L39.398 116.314C39.4315 116.38 39.5086 116.423 39.5793 116.421C39.6563 116.421 39.7261 116.378 39.7588 116.31L40.2528 115.288C40.2854 115.237 40.3552 115.191 40.4322 115.182L41.6151 115.2C41.6224 115.2 41.6296 115.2 41.6369 115.199C41.7719 115.187 41.8925 115.279 41.9161 115.413L42.0683 116.262C42.0819 116.337 42.1399 116.397 42.217 116.415C42.2931 116.433 42.3747 116.407 42.4227 116.347L42.9766 115.657C42.9893 115.64 43.0047 115.632 43.0228 115.632Z" fill="#212B36"/>
<path d="M39.4909 123.545C41.2195 123.545 42.5483 123.225 42.6308 123.204C42.7377 123.178 42.8012 123.074 42.774 122.972C42.7468 122.87 42.6371 122.809 42.5311 122.835C42.5011 122.842 39.5154 123.558 36.7136 122.835C36.6067 122.808 36.4979 122.868 36.4698 122.969C36.4408 123.071 36.5042 123.176 36.6103 123.203C37.5992 123.459 38.5981 123.544 39.4909 123.544V123.545Z" fill="#212B36"/>
<path d="M55.0657 109.348L56.5359 118.994L61.0698 120.262L60.4544 109.057L55.0657 109.348Z" fill="white"/>
<path d="M61.0688 120.453C61.1132 120.453 61.1567 120.439 61.192 120.412C61.2428 120.374 61.2709 120.314 61.2673 120.253L60.6518 109.048C60.6491 108.998 60.6255 108.95 60.5856 108.916C60.5467 108.882 60.4941 108.865 60.4415 108.867L55.0528 109.158C54.9966 109.161 54.9449 109.187 54.9096 109.228C54.8742 109.269 54.8588 109.323 54.867 109.376L56.3372 119.022C56.3481 119.096 56.4034 119.156 56.4786 119.177L61.0126 120.445C61.0307 120.45 61.0497 120.453 61.0688 120.453ZM60.2648 109.259L60.8548 120.003L56.7134 118.846L55.293 109.528L60.2648 109.26V109.259Z" fill="#212B36"/>
<path d="M54.4627 122.606C54.4554 121.286 54.5633 118.94 55.312 117.348C55.4969 116.954 55.9456 116.774 56.3399 116.934L58.9178 117.981L58.9459 117.268C58.955 117.038 59.1226 116.854 59.3275 116.849L61.1503 116.808C61.8301 116.792 62.5009 116.96 63.1091 117.295C64.9446 118.305 68.8259 120.67 69.7106 123.034C69.9291 123.618 69.5321 124.255 68.9229 124.313C67.2234 124.477 63.1191 124.64 55.4353 123.718C54.8833 123.652 54.4672 123.176 54.4645 122.606H54.4627Z" fill="white"/>
<path d="M65.7836 124.631C67.2294 124.631 68.2591 124.568 68.9416 124.502C69.2833 124.469 69.5888 124.285 69.78 123.995C69.984 123.686 70.0266 123.312 69.8979 122.968C69.0123 120.604 65.3268 118.294 63.2084 117.128C62.5694 116.777 61.8561 116.601 61.1463 116.616L59.3235 116.658C59.0135 116.665 58.7606 116.929 58.7479 117.26L58.7307 117.698L56.4193 116.758C55.9262 116.558 55.3606 116.782 55.1322 117.269C54.3617 118.906 54.2584 121.315 54.2647 122.606C54.2684 123.27 54.7606 123.829 55.4105 123.907C60.1103 124.471 63.4768 124.631 65.7845 124.631H65.7836ZM61.2352 116.997C61.8461 116.997 62.4579 117.156 63.0081 117.46C64.675 118.377 68.6479 120.764 69.5217 123.097C69.6087 123.33 69.5797 123.582 69.4419 123.792C69.3169 123.981 69.1202 124.101 68.9008 124.123C67.1442 124.292 63.0616 124.441 55.4576 123.529C55.0062 123.475 54.6636 123.077 54.6608 122.604C54.6545 121.345 54.7542 118.997 55.4929 117.426C55.6325 117.13 55.9697 116.99 56.2616 117.109L58.8395 118.157C58.9002 118.181 58.9691 118.176 59.0244 118.142C59.0797 118.108 59.1141 118.051 59.1168 117.988L59.1449 117.275C59.1495 117.148 59.2338 117.042 59.3317 117.041L61.1545 116.999C61.1817 116.999 61.208 116.998 61.2352 116.998V116.997Z" fill="#212B36"/>
<path d="M64.2455 123.15C66.6566 123.15 68.1304 122.981 68.1576 122.977C68.2664 122.964 68.3443 122.869 68.3307 122.764C68.3171 122.659 68.2174 122.585 68.1087 122.599C68.057 122.605 62.8677 123.2 55.9607 122.127C55.851 122.111 55.7495 122.181 55.7323 122.285C55.7151 122.39 55.7885 122.488 55.8973 122.504C59.1858 123.015 62.09 123.151 64.2455 123.151V123.15Z" fill="#212B36"/>
<path d="M67.3394 51.4263C67.3394 51.4263 68.4616 75.7512 61.4223 112.873C60.0074 113.638 57.6606 113.427 54.8933 112.775C54.3395 109.905 51.0165 85.0315 50.8969 76.4516C50.8905 75.989 50.0793 76.0298 49.907 76.462C47.922 81.4572 44.8954 102.811 44.1811 111.505C44.0724 112.826 39.3399 112.759 38.06 111.604C36.811 98.327 30.4596 84.857 28.683 71.65C27.5011 62.867 28.0368 54.2724 31.0207 45.8574L67.3394 51.4254V51.4263Z" fill="#212B36"/>
<path d="M50.4763 74.8512C50.5643 74.8512 50.6449 74.7956 50.6685 74.7106L51.7453 70.9097C51.9266 70.211 52.3735 69.3265 53.4784 69.0557L54.5299 68.7979C54.6368 68.7719 54.7012 68.6677 54.6731 68.5653C54.6459 68.4629 54.538 68.4013 54.4302 68.4282L53.3787 68.686C52.3681 68.9333 51.6502 69.6893 51.3583 70.8134L50.2824 74.6099C50.2534 74.7114 50.3159 74.8164 50.4229 74.8442C50.4401 74.8486 50.4582 74.8512 50.4754 74.8512H50.4763Z" fill="white"/>
<path d="M76.3618 64.8056C76.3618 64.8056 76.0672 67.5666 75.5587 70.9595C75.4517 71.6729 72.7787 73.2691 73.0044 74.5528C73.1666 75.4755 74.9813 74.0147 74.9469 74.2439C74.6205 76.4181 74.3386 78.2955 74.2353 78.976C74.1546 79.509 74.6985 79.7633 75.2369 79.6105C76.0074 79.3918 77.2057 78.8493 77.755 77.7617C78.7366 75.8175 79.0013 71.8474 78.9315 70.6001C78.7801 67.873 79.0466 65.7603 79.0466 65.7603L76.3618 64.8047V64.8056Z" fill="white"/>
<path d="M74.9295 79.8453C75.0491 79.8453 75.1715 79.8279 75.2939 79.7941C75.8758 79.6291 77.2971 79.1092 77.9352 77.8455C78.9477 75.8413 79.2006 71.8435 79.1317 70.5901C78.983 67.9098 79.2432 65.8041 79.2459 65.7833C79.2568 65.6956 79.2042 65.6123 79.1172 65.5811L76.4323 64.6254C76.3743 64.6046 76.31 64.6107 76.2574 64.6428C76.2048 64.674 76.1704 64.727 76.164 64.7851C76.1613 64.8129 75.864 67.5809 75.3619 70.9312C75.3292 71.1465 74.8815 71.5744 74.4473 71.9893C73.6478 72.7531 72.6535 73.7035 72.8085 74.5845C72.8529 74.8371 72.9952 74.9499 73.1076 75.0003C73.5173 75.1851 74.1681 74.8275 74.6431 74.5654C74.6621 74.555 74.6829 74.5437 74.7029 74.5324C74.3965 76.5713 74.1364 78.3012 74.0385 78.9478C73.9968 79.2229 74.0856 79.4668 74.2877 79.6344C74.4536 79.7724 74.6829 79.8444 74.9304 79.8444L74.9295 79.8453ZM78.8326 65.8875C78.7764 66.4195 78.606 68.3082 78.7329 70.6101C78.799 71.7957 78.5425 75.7641 77.5753 77.6788C77.007 78.8054 75.7108 79.2768 75.1797 79.4278C74.9377 79.4964 74.6893 79.4651 74.547 79.3471C74.4482 79.2655 74.4092 79.15 74.431 79.0042C74.5343 78.3237 74.8162 76.4463 75.1425 74.272C75.1552 74.1896 75.1198 74.1106 75.0509 74.0655C74.9132 73.9769 74.7854 74.0472 74.4418 74.2356C74.1355 74.4048 73.4973 74.7572 73.2753 74.6557C73.2608 74.6496 73.2182 74.6305 73.1991 74.522C73.0786 73.8355 73.9922 72.9623 74.7265 72.261C75.2721 71.7402 75.7027 71.3288 75.7534 70.9876C76.1713 68.2041 76.4469 65.8215 76.5312 65.0707L78.8299 65.8892L78.8326 65.8875Z" fill="#212B36"/>
<path d="M23.3214 66.1914C23.3214 66.1914 23.4683 68.9628 23.7964 72.3766C23.8653 73.0944 26.4504 74.819 26.1558 76.0906C25.9446 77.0037 24.2106 75.4561 24.2324 75.687C24.4427 77.8743 24.6249 79.763 24.6919 80.4478C24.7445 80.9833 24.188 81.2116 23.6577 81.0328C22.8999 80.7768 21.7315 80.177 21.2412 79.0634C20.3638 77.074 20.3121 73.0961 20.4471 71.8532C20.7435 69.1364 20.5903 67.0142 20.5903 67.0142L23.3223 66.1914H23.3214Z" fill="white"/>
<path d="M24.0118 81.2841C24.2357 81.2841 24.4451 81.2225 24.6037 81.1045C24.8149 80.9465 24.9164 80.7078 24.8892 80.4309C24.8257 79.7799 24.6581 78.0397 24.4605 75.9887C24.4804 76.0008 24.4994 76.013 24.5185 76.0242C24.9789 76.3089 25.6089 76.6978 26.0286 76.5329C26.1428 76.4877 26.2914 76.3819 26.3495 76.1319C26.5516 75.2596 25.608 74.2623 24.8511 73.4603C24.4405 73.0254 24.0154 72.5758 23.9946 72.3597C23.671 68.9893 23.5214 66.2101 23.5205 66.1823C23.5178 66.1233 23.4861 66.0686 23.4353 66.0356C23.3845 66.0027 23.3211 65.9931 23.2613 66.0105L20.5293 66.8333C20.4414 66.8594 20.3843 66.9401 20.3906 67.0286C20.3924 67.0494 20.5393 69.1673 20.2483 71.8346C20.1123 73.0827 20.1531 77.0875 21.0568 79.1385C21.627 80.4309 23.0183 81.0203 23.5903 81.2138C23.7308 81.2616 23.874 81.2841 24.0118 81.2841ZM24.2493 75.4713C24.2103 75.4713 24.1731 75.4818 24.136 75.5043C24.0644 75.546 24.0254 75.6232 24.0335 75.7057C24.2438 77.8939 24.426 79.7825 24.4931 80.4665C24.5076 80.6132 24.4623 80.726 24.3589 80.8033C24.2103 80.9144 23.961 80.9335 23.7226 80.8536C23.2005 80.6774 21.9315 80.1428 21.4239 78.9901C20.5601 77.0311 20.5157 73.0549 20.6444 71.8745C20.8946 69.5822 20.8248 67.6874 20.7967 67.1536L23.1362 66.4488C23.1806 67.2022 23.3292 69.5952 23.5975 72.3961C23.6302 72.739 24.039 73.1712 24.5556 73.718C25.2518 74.455 26.1183 75.3715 25.9606 76.0511C25.9361 76.1588 25.8917 76.1761 25.8772 76.1813C25.6506 76.2707 25.0315 75.8888 24.7351 75.7048C24.4904 75.5538 24.3589 75.4722 24.2493 75.4722V75.4713Z" fill="#212B36"/>
<path d="M17.697 40.8394C17.6163 37.5888 20.7661 32.2899 22.0958 30.5383C24.8351 26.931 28.4771 24.0207 32.585 21.9376C40.8616 17.7401 50.8314 16.8582 59.892 18.9171C75.8071 22.5322 80.9075 41.2881 80.9075 41.2881L80.8513 41.2916C84.2414 51.3878 81.0798 60.4824 78.8672 69.6178L74.9904 69.7159C74.3441 58.5008 71.7454 49.8064 69.2237 42.0337L68.6644 42.0693C69.1748 44.707 70.3332 47.9602 70.5154 50.5381C70.7755 54.2165 71.0284 57.9722 70.0522 61.5396C69.7114 62.7851 69.2146 64.1938 68.3245 65.1885C67.4081 66.2127 66.7337 65.843 65.724 65.0149C63.176 62.924 58.3475 62.0664 55.1034 61.8347C51.7387 61.5951 48.9025 62.7816 45.7536 63.588C39.9769 65.067 33.951 65.9671 28.0801 64.3874C27.5054 64.2329 26.9162 64.0463 26.4775 63.6583C25.7143 62.983 25.9717 61.9796 26.1992 61.1282C27.1057 57.7344 28.0003 52.5379 28.7236 49.1033C29.3672 46.0437 29.4696 44.4458 30.4531 41.4799L30.1549 41.6457C26.5872 48.514 25.5765 60.9233 23.8779 71.2791L19.8851 71.0838C17.6924 62.03 15.9902 49.8393 17.6952 40.8402L17.697 40.8394Z" fill="white"/>
<path d="M24.1869 71.4507C24.2848 71.4507 24.3682 71.383 24.3836 71.2893C24.7689 68.9414 25.126 66.4382 25.4704 64.0183C26.5953 56.1293 27.7555 47.9878 30.1848 42.6533C29.7678 44.1071 29.553 45.2797 29.3119 46.5938C29.1741 47.3446 29.0318 48.1215 28.8369 49.045C28.6049 50.1464 28.3574 51.4215 28.0945 52.772C27.5489 55.5782 26.9298 58.7593 26.3152 61.0603C26.0941 61.8866 25.7922 63.0184 26.6506 63.7788C27.1292 64.2023 27.7709 64.3994 28.3347 64.5513C34.6698 66.256 41.1643 65.0191 46.1143 63.7519C46.8413 63.5661 47.5582 63.3578 48.2526 63.1556C50.6138 62.4699 52.8436 61.8224 55.3979 62.0046C57.1156 62.127 62.9494 62.7146 65.9043 65.1389C66.4582 65.5937 66.8914 65.8897 67.3347 65.9634C67.8395 66.0476 68.3 65.8341 68.7849 65.2916C69.7521 64.2101 70.2579 62.6478 70.5534 61.5672C71.5477 57.9339 71.2803 54.1573 71.022 50.5049C70.9078 48.8862 70.4138 47.0087 69.9352 45.1929C69.6606 44.1479 69.3995 43.1567 69.2101 42.2253L69.3877 42.2141C71.9348 50.077 74.4637 58.682 75.0991 69.7061C75.1055 69.8094 75.1979 69.8875 75.3031 69.8867L79.1799 69.7886C79.2705 69.786 79.3484 69.7252 79.3684 69.641C79.6412 68.5135 79.934 67.3661 80.2177 66.2568C82.2318 58.3609 84.3148 50.1985 81.3942 41.3513C81.4151 41.3105 81.4196 41.2636 81.4078 41.2194C81.3952 41.1725 80.0881 36.4447 76.8458 31.3384C73.8473 26.6166 68.5339 20.5938 60.2455 18.7103C50.8277 16.5708 40.8235 17.6783 32.7989 21.7482C28.5613 23.8973 24.9112 26.8909 22.2417 30.4053C21.0299 32.0007 17.7341 37.422 17.8048 40.8036C15.7716 51.5716 18.6622 65.5807 20.0001 71.1053C20.0201 71.1886 20.0953 71.2485 20.1841 71.2529L24.177 71.4482C24.177 71.4482 24.1842 71.4482 24.1869 71.4482V71.4507ZM30.7621 41.2697C30.7277 41.2697 30.6933 41.2784 30.6615 41.2958L30.3633 41.4615C30.3298 41.4798 30.3026 41.5084 30.2854 41.5414C27.5117 46.882 26.2726 55.5669 25.0752 63.9671C24.7389 66.3271 24.3909 68.7652 24.0174 71.0602L20.3546 70.8814C19.0076 65.2821 16.1895 51.4658 18.2009 40.8548C18.2036 40.8418 18.2045 40.8288 18.2036 40.8166C18.122 37.5348 21.3716 32.2029 22.5644 30.6319C25.1976 27.1643 28.8015 24.2098 32.9856 22.0876C40.9259 18.0602 50.8286 16.9657 60.1539 19.0835C68.3045 20.9349 73.5419 26.8736 76.5005 31.5294C79.4092 36.107 80.7471 40.3766 80.9846 41.182C80.9583 41.2272 80.9528 41.2819 80.97 41.3313C83.9241 50.1291 81.8438 58.2828 79.8316 66.1674C79.5605 67.2307 79.2805 68.3287 79.0167 69.4128L75.4871 69.5013C74.8281 58.4555 72.2792 49.8392 69.7231 41.958C69.6959 41.8738 69.6125 41.82 69.5191 41.8243L68.9599 41.8599C68.9028 41.8634 68.8511 41.8903 68.8158 41.9337C68.7804 41.9762 68.7668 42.0318 68.7768 42.0856C68.9708 43.0898 69.2518 44.1575 69.55 45.2875C70.024 47.0868 70.5135 48.9478 70.625 50.5318C70.8806 54.1539 71.1453 57.8991 70.1682 61.4717C69.8826 62.5167 69.3968 64.0235 68.4822 65.0451C67.9828 65.6032 67.6428 65.6293 67.4026 65.5894C67.0482 65.5303 66.6657 65.263 66.1636 64.8507C63.1162 62.351 57.1754 61.7503 55.4278 61.6253C52.7983 61.4387 50.534 62.0958 48.1375 62.7919C47.4468 62.9924 46.7325 63.1998 46.0119 63.3847C41.1108 64.6398 34.6852 65.8645 28.4435 64.185C27.9006 64.0392 27.3359 63.8656 26.9225 63.5001C26.2382 62.8943 26.4847 61.9717 26.7023 61.1575C27.3204 58.8444 27.9404 55.6563 28.487 52.8441C28.749 51.4953 28.9973 50.2211 29.2285 49.1222C29.4243 48.1935 29.5666 47.4149 29.7043 46.6615C30.0207 44.9369 30.27 43.5742 30.9525 41.5188C30.977 41.4433 30.9516 41.3617 30.8872 41.3122C30.851 41.2845 30.8066 41.2706 30.7621 41.2706V41.2697Z" fill="#212B36"/>
<path d="M69.1264 42.4112C69.1908 42.4112 69.2542 42.3808 69.2932 42.3252C72.2019 38.1173 70.361 31.999 64.8173 27.4465C64.7339 27.3779 64.6079 27.3866 64.5363 27.4673C64.4647 27.5472 64.4746 27.6678 64.558 27.7364C69.944 32.1596 71.7551 38.0722 68.9606 42.1152C68.8998 42.2029 68.9252 42.3218 69.0168 42.3799C69.0503 42.4016 69.0884 42.412 69.1264 42.412V42.4112Z" fill="#212B36"/>
<path d="M54.1298 11.6186L53.518 17.8706L58.313 18.5059C58.313 18.5059 51.0208 21.7478 42.9083 18.604L47.7105 17.5017L49.1825 10.5449L54.1307 11.6195L54.1298 11.6186Z" fill="white"/>
<path d="M50.3393 20.1556C54.9929 20.1556 58.3457 18.7 58.3956 18.6774C58.4754 18.6418 58.5216 18.5594 58.5089 18.4761C58.4962 18.3927 58.4264 18.3268 58.3394 18.3155L53.7339 17.7053L54.3285 11.6347C54.3375 11.5392 54.2714 11.4516 54.1744 11.4307L49.2262 10.3562C49.1736 10.3449 49.1192 10.3545 49.0739 10.3822C49.0286 10.41 48.9978 10.4543 48.9869 10.5046L47.5402 17.3416L42.8622 18.4162C42.7779 18.4353 42.7162 18.5047 42.7099 18.588C42.7035 18.6705 42.7534 18.7477 42.8341 18.779C45.4899 19.8084 48.0705 20.1556 50.3411 20.1556H50.3393ZM57.5345 18.5941C55.5975 19.2668 49.858 20.8491 43.5755 18.6444L47.7541 17.6853C47.8294 17.668 47.8874 17.6107 47.9028 17.5378L49.335 10.772L53.9133 11.7667L53.3178 17.852C53.3078 17.9535 53.3831 18.0447 53.4891 18.0586L57.5345 18.5941Z" fill="#212B36"/>
<path d="M49.4894 11.6556C49.4894 11.6556 48.5131 10.6105 48.64 9.44744C48.766 8.28436 49.9652 8.87111 49.9652 8.87111C49.9652 8.87111 49.7939 6.96591 51.9385 7.61863C54.0831 8.27047 56.5776 7.90506 56.5776 7.90506C56.5776 7.90506 56.3048 11.0202 55.8996 12.9801C55.6549 14.1622 55.1065 15.0649 53.9771 14.9226C50.8853 14.5337 49.4894 11.6556 49.4894 11.6556Z" fill="white"/>
<path d="M54.2018 15.1261C54.9161 15.1261 55.7428 14.7164 56.0954 13.0152C56.4987 11.0674 56.7734 7.95056 56.7761 7.91931C56.7815 7.86116 56.758 7.80387 56.7135 7.76395C56.6691 7.72402 56.6075 7.70579 56.5477 7.71447C56.5232 7.71794 54.0722 8.06513 51.9983 7.43412C51.2541 7.20758 50.6767 7.24663 50.2806 7.54955C49.9017 7.83946 49.7957 8.29688 49.7694 8.59459C49.5337 8.52863 49.192 8.48089 48.9065 8.62931C48.64 8.76818 48.4832 9.03639 48.4406 9.4261C48.3155 10.5788 49.1739 11.5952 49.3198 11.7592C49.4757 12.0682 50.9052 14.7268 53.9499 15.1096C54.0314 15.12 54.1148 15.1261 54.2 15.1261H54.2018ZM56.3573 8.12242C56.2848 8.88363 56.0392 11.3244 55.7038 12.9405C55.4319 14.2555 54.8753 14.8405 54.0033 14.7311C51.0538 14.3605 49.6833 11.6012 49.6697 11.5735C49.6615 11.5561 49.6507 11.5405 49.638 11.5266C49.6289 11.517 48.7225 10.5276 48.8376 9.46516C48.8657 9.20824 48.9527 9.03986 49.0968 8.96434C49.3914 8.81071 49.8691 9.03639 49.8736 9.03899C49.938 9.07024 50.0151 9.0659 50.0758 9.02771C50.1356 8.98865 50.1691 8.92182 50.1628 8.85325C50.1628 8.84717 50.1093 8.16755 50.5308 7.84727C50.8154 7.63027 51.2686 7.61378 51.8769 7.79866C53.668 8.34375 55.663 8.19793 56.3564 8.12329L56.3573 8.12242Z" fill="#212B36"/>
<path d="M82.0543 32.2005L82.0542 32.2003C77.9221 32.4759 73.7909 34.7933 69.712 38.2998C65.6364 41.8035 61.6411 46.4696 57.781 51.3941C55.8516 53.8555 53.958 56.3787 52.1062 58.8512L51.8453 59.1995C50.0848 61.5502 48.3622 63.8503 46.6853 65.9985C43.1734 70.4975 39.8442 74.354 36.7622 76.6253C27.2206 84.8617 17.8918 86.8134 11.2369 84.0279C4.56632 81.2359 0.704855 73.7389 1.99867 63.359L2.48445 63.3125C3.92495 67.7349 5.79796 70.8564 7.94355 72.9275L7.9436 72.9275C8.68383 73.6424 9.45764 74.2325 10.2583 74.7075L10.2587 74.7078C10.8158 75.0396 11.3874 75.3152 11.9703 75.5393L11.9707 75.5395C12.3927 75.7024 12.8215 75.8373 13.2563 75.9466C13.8368 76.0921 14.4276 76.191 15.0263 76.2465C15.6972 76.3077 16.3796 76.3142 17.0703 76.2698L17.0704 76.2698C17.8147 76.2222 18.5693 76.1139 19.3302 75.9512L19.3303 75.9511C20.0019 75.8078 20.6776 75.6215 21.3567 75.395L21.3572 75.3949C21.9648 75.1936 22.5747 74.9597 23.1843 74.6963L23.1847 74.6961C23.7746 74.4425 24.3642 74.161 24.9527 73.8547L24.9528 73.8547C25.7204 73.4557 26.4853 73.014 27.2441 72.5353L27.2445 72.5351C28.0007 72.0597 28.7508 71.5466 29.4923 71.0005L29.5026 70.9929L29.5027 70.9931C30.1322 70.5308 30.7546 70.0446 31.3691 69.5385L31.3694 69.5383C31.8994 69.103 32.4221 68.6529 32.9376 68.1895L33.1047 68.3754L32.9376 68.1895C33.4696 67.7114 33.9942 67.2193 34.509 66.7158L34.5093 66.7155C35.1691 66.0724 35.8126 65.4086 36.4382 64.7315C36.5345 64.6271 36.6298 64.5236 36.7243 64.4194L36.7281 64.4152L36.7282 64.4152C37.1215 64.001 37.5124 63.58 37.9009 63.1533L37.9011 63.1532C38.3894 62.6176 38.8739 62.0721 39.3551 61.5182L39.5439 61.6822L39.3552 61.5182C39.8779 60.9167 40.3974 60.3061 40.9135 59.6864L41.1056 59.8464L40.9135 59.6864C41.3131 59.2069 41.7103 58.7231 42.1068 58.2344C42.7564 57.4332 43.4012 56.6212 44.0429 55.8008L44.0429 55.8008C44.4942 55.2241 44.9438 54.6431 45.3919 54.0597L45.392 54.0595C45.9145 53.3801 46.4347 52.6964 46.9543 52.0109C47.5135 51.2728 48.0712 50.533 48.6273 49.7931L48.6274 49.793L48.9029 49.427C49.1929 49.0418 49.4826 48.6569 49.7722 48.2726C50.2739 47.6054 50.7763 46.94 51.2779 46.2778L51.278 46.2778C51.8536 45.5184 52.4293 44.7647 53.0049 44.0167L53.0052 44.0164C53.4167 43.4838 53.8283 42.9543 54.2407 42.4288L54.2408 42.4287C54.6847 41.8639 55.1296 41.3029 55.5755 40.7492C56.0007 40.221 56.4275 39.6985 56.8543 39.1834L56.8545 39.1832C57.4093 38.5149 57.9668 37.858 58.526 37.215L58.526 37.215C58.9831 36.6896 59.4419 36.174 59.9034 35.669C60.6075 34.8963 61.3171 34.1478 62.0354 33.4279M82.0543 32.2005L71.6775 26.3762C70.9613 26.7392 70.2542 27.14 69.5562 27.577L69.4237 27.365C69.4237 27.365 69.4236 27.3651 69.4236 27.3651C68.6311 27.8604 67.851 28.4 67.0809 28.9788L67.0807 28.9788C66.5433 29.3832 66.0111 29.8072 65.4835 30.2483C65.0289 30.6276 64.5779 31.0208 64.1304 31.4262C63.4249 32.0642 62.7263 32.7326 62.0354 33.4279M82.0543 32.2005L82.0658 32.1992M82.0543 32.2005L82.0658 32.1992M62.0354 33.4279C62.0355 33.4277 62.0356 33.4276 62.0357 33.4275L62.2127 33.6041M62.0354 33.4279C62.0354 33.4279 62.0354 33.4279 62.0354 33.4279L62.2127 33.6041M62.2127 33.6041C61.4974 34.3211 60.7903 35.0669 60.0882 35.8374M62.2127 33.6041L60.0882 35.8374M60.0882 35.8374C59.6281 36.3408 59.1706 36.855 58.7146 37.3791C58.1568 38.0206 57.6005 38.676 57.0468 39.3429C56.6207 39.8571 56.1947 40.3787 55.7703 40.906C55.3251 41.4588 54.8808 42.0189 54.4373 42.5832L60.0882 35.8374ZM82.0658 32.1992C83.4818 32.0387 85.1092 32.3809 86.7671 33.0468C88.422 33.7114 90.0892 34.6913 91.5774 35.7837C93.0659 36.8762 94.3677 38.0758 95.2946 39.1749C95.7582 39.7246 96.124 40.2445 96.3727 40.7093C96.6237 41.1784 96.7441 41.5706 96.7441 41.8704H96.9941M82.0658 32.1992L96.9941 41.8704M96.9941 41.8704H97.2441C97.2441 37.7551 96.3873 34.1938 94.8079 31.3433C94.5183 30.8202 94.2041 30.3211 93.8669 29.8476L93.6633 29.9926L93.8669 29.8475C93.4059 29.2004 92.9016 28.5994 92.3555 28.0476M96.9941 41.8704L81.8447 23.7837C82.5533 23.7987 83.2426 23.8519 83.9133 23.9445C84.735 24.0561 85.5264 24.2246 86.2858 24.4492M92.3555 28.0476C92.3555 28.0476 92.3556 28.0476 92.3556 28.0476L92.1778 28.2234L92.3555 28.0476ZM92.3555 28.0476C91.6601 27.3443 90.8979 26.722 90.0739 26.1849M90.0739 26.1849C90.0738 26.1849 90.0738 26.1848 90.0737 26.1848L89.9372 26.3942L90.0739 26.1849ZM90.0739 26.1849C89.4102 25.7515 88.7063 25.3744 87.9657 25.0543L87.9656 25.0542C87.4249 24.821 86.865 24.6188 86.2858 24.4492M86.2858 24.4492C86.2859 24.4493 86.2861 24.4493 86.2862 24.4494L86.2153 24.6891L86.2855 24.4492C86.2856 24.4492 86.2857 24.4492 86.2858 24.4492ZM27.3775 72.7467C26.6133 73.2289 25.8423 73.6741 25.0681 74.0765C24.4746 74.3853 23.8795 74.6695 23.2835 74.9258L27.3775 72.7467ZM27.3775 72.7467C28.1393 72.2679 28.8945 71.7513 29.6405 71.2018L27.3775 72.7467ZM10.1307 74.9226C10.7002 75.2618 11.2846 75.5435 11.8806 75.7727L36.6061 76.4297C17.7759 92.6904 0.0190322 84.1723 2.17878 63.9767C2.12154 63.8088 2.06496 63.639 2.00904 63.4673L2.24675 63.3899L2.49483 63.4208C2.4728 63.5976 2.45228 63.7734 2.43327 63.9484C3.85646 68.1043 5.67903 71.0891 7.76992 73.1074C8.52343 73.8351 9.31259 74.4372 10.1307 74.9226Z" fill="#C8FACD" stroke="#212B36" stroke-width="0.5"/>
<path d="M29.7456 70.9016L29.7456 70.9016L29.8177 71.0568L29.8177 71.0569C29.8445 71.1148 29.8189 71.1832 29.7609 71.2096M29.7456 70.9016L29.6077 71.1533M29.7456 70.9016C29.7187 70.8438 29.6501 70.8189 29.5924 70.8453M29.7456 70.9016L29.6077 71.1533M29.7609 71.2096C29.7453 71.2168 29.7288 71.2201 29.7127 71.2201C29.6694 71.2201 29.6274 71.1957 29.6077 71.1533M29.7609 71.2096C29.7609 71.2096 29.761 71.2096 29.761 71.2095L29.7401 71.1641L29.7608 71.2097C29.7608 71.2096 29.7609 71.2096 29.7609 71.2096ZM29.6077 71.1533C29.6077 71.1533 29.6077 71.1533 29.6077 71.1533M29.6077 71.1533L29.6077 71.1533M29.6077 71.1533L29.5356 70.9981C29.5356 70.9981 29.5356 70.9981 29.5356 70.9981C29.5087 70.9401 29.5344 70.8717 29.5924 70.8453M29.5924 70.8453C29.5923 70.8453 29.5923 70.8453 29.5923 70.8453L29.6131 70.8908L29.5924 70.8453C29.5924 70.8453 29.5924 70.8453 29.5924 70.8453Z" fill="#212B36" stroke="#212B36" stroke-width="0.1"/>
<path d="M7.88524 72.8466C7.88109 72.7827 7.82611 72.7354 7.76257 72.7393L7.76257 72.7393L7.7623 72.7393C7.69902 72.7435 7.65026 72.7978 7.65447 72.8616C7.7179 73.8238 7.6829 74.7718 7.64893 75.6914L7.64886 75.6932C7.6148 76.6148 7.57948 77.5706 7.64371 78.5446L7.64371 78.5446C7.64775 78.6059 7.69894 78.6521 7.75902 78.6521L7.76635 78.6519L7.76664 78.6519C7.82992 78.6477 7.87868 78.5934 7.87447 78.5296C7.81104 77.5675 7.84604 76.6194 7.88002 75.6998L7.88008 75.6981C7.91414 74.7764 7.94946 73.8206 7.88524 72.8466ZM7.88524 72.8466C7.88524 72.8466 7.88524 72.8466 7.88524 72.8466L7.83534 72.8498L7.88524 72.8466C7.88524 72.8466 7.88524 72.8466 7.88524 72.8466Z" fill="#212B36" stroke="#212B36" stroke-width="0.1"/>
<path d="M10.2353 77.3034L10.2353 77.3034C10.2061 76.9538 10.1768 76.6042 10.1475 76.2545C10.1412 76.1795 10.1349 76.1044 10.1286 76.0293M10.2353 77.3034L10.1286 76.0293M10.2353 77.3034C10.2403 77.3639 10.2913 77.4089 10.3505 77.4089C10.3537 77.4089 10.3568 77.4087 10.3595 77.4085L10.3595 77.4085L10.36 77.4085C10.4233 77.4033 10.4711 77.3481 10.4658 77.2843L10.4658 77.2843C10.4364 76.9323 10.4069 76.5802 10.3773 76.228C10.3713 76.1554 10.3652 76.0828 10.3591 76.0102C10.3214 75.5605 10.2836 75.1107 10.2461 74.6609M10.2353 77.3034L10.0156 74.6799M10.1286 76.0293C10.1242 75.9772 10.1198 75.9252 10.1155 75.8731M10.1286 76.0293L10.1155 75.8731M10.0156 74.6799L10.0156 74.6799C10.0103 74.6161 10.0581 74.5609 10.1214 74.5557L10.1227 74.5556L10.1227 74.5557C10.1846 74.5522 10.2408 74.5963 10.2461 74.6609M10.0156 74.6799C10.0487 75.0777 10.0821 75.4754 10.1155 75.8731M10.0156 74.6799L10.1155 75.8731M10.2461 74.6609L10.1963 74.6651L10.2461 74.6609Z" fill="#212B36" stroke="#212B36" stroke-width="0.1"/>
<path d="M11.8731 75.4072L11.8732 75.4072C11.9355 75.4034 11.9917 75.4507 11.9958 75.5148L11.9958 75.5148C12.0562 76.4717 12.1425 77.4344 12.2522 78.3762C12.2596 78.4397 12.2137 78.4964 12.1507 78.5037M11.8731 75.4072L12.1505 78.5037C12.1506 78.5037 12.1506 78.5037 12.1507 78.5037M11.8731 75.4072C11.8098 75.4112 11.7609 75.4654 11.7649 75.5293C11.8256 76.4902 11.9123 77.4569 12.0224 78.4027L11.8731 75.4072ZM12.1507 78.5037C12.1459 78.5043 12.1414 78.5045 12.1372 78.5045C12.0797 78.5045 12.0293 78.4618 12.0224 78.4027L12.1507 78.5037Z" fill="#212B36" stroke="#212B36" stroke-width="0.1"/>
<path d="M13.1822 75.8237L13.1822 75.8237C13.2436 75.8173 13.3022 75.8598 13.31 75.924C13.31 75.924 13.31 75.924 13.31 75.9241L13.1822 75.8237ZM13.1822 75.8237L13.1813 75.8238M13.1822 75.8237L13.1813 75.8238M13.1813 75.8238C13.1184 75.8314 13.0726 75.8885 13.0805 75.952L13.1301 75.9459L13.0805 75.952M13.1813 75.8238L13.0805 75.952M13.0805 75.952C13.1865 76.8124 13.2649 77.6892 13.3136 78.5579L13.0805 75.952Z" fill="#212B36" stroke="#212B36" stroke-width="0.1"/>
<path d="M14.9425 79.0429L14.9425 79.0429C14.9437 79.1061 14.9956 79.1557 15.0581 79.1557H15.0581H15.0581H15.0581H15.0581H15.0581H15.0581H15.0581H15.0581H15.0581H15.0581H15.0581H15.0581H15.0581H15.0581H15.0581H15.0581H15.0581H15.0581H15.0581H15.0581H15.0581H15.0581H15.0581H15.0581H15.0581H15.0581H15.0581H15.0581H15.0581H15.0581H15.0581H15.0581H15.0581H15.0581H15.0582H15.0582H15.0582H15.0582H15.0582H15.0582H15.0582H15.0582H15.0582H15.0582H15.0582H15.0582H15.0582H15.0582H15.0582H15.0582H15.0582H15.0582H15.0582H15.0582H15.0582H15.0582H15.0582H15.0582H15.0582H15.0582H15.0582H15.0582H15.0582H15.0582H15.0582H15.0582H15.0582H15.0582H15.0582H15.0582H15.0582H15.0582H15.0582H15.0583H15.0583H15.0583H15.0583H15.0583H15.0583H15.0583H15.0583H15.0583H15.0583H15.0583H15.0583H15.0583H15.0583H15.0583H15.0583H15.0583H15.0583H15.0583H15.0583H15.0583H15.0583H15.0583H15.0583H15.0583H15.0583H15.0583H15.0583H15.0583H15.0583H15.0583H15.0583H15.0583H15.0583H15.0583H15.0583H15.0583H15.0583H15.0583H15.0584H15.0584H15.0584H15.0584H15.0584H15.0584H15.0584H15.0584H15.0584H15.0584H15.0584H15.0584H15.0584H15.0584H15.0584H15.0584H15.0584H15.0584H15.0584H15.0584H15.0584H15.0584H15.0584H15.0584H15.0584H15.0584H15.0584H15.0584H15.0584H15.0584H15.0584H15.0584H15.0584H15.0584H15.0584H15.0584H15.0584H15.0584H15.0584H15.0585H15.0585H15.0585H15.0585H15.0585H15.0585H15.0585H15.0585H15.0585H15.0585H15.0585H15.0585H15.0585H15.0585H15.0585H15.0585H15.0585H15.0585H15.0585H15.0585H15.0585H15.0585H15.0585H15.0585H15.0585H15.0585H15.0585H15.0585H15.0585H15.0585H15.0585H15.0585H15.0585H15.0585H15.0585H15.0585H15.0585H15.0585H15.0585H15.0586H15.0586H15.0586H15.0586H15.0586H15.0586H15.0586H15.0586H15.0586H15.0586H15.0586H15.0586H15.0586H15.0586H15.0586H15.0586H15.0586H15.0586H15.0586H15.0586H15.0586H15.0586H15.0586H15.0586H15.0586H15.0586H15.0586H15.0586H15.0586H15.0586H15.0586H15.0586H15.0586H15.0586H15.0586H15.0586H15.0586H15.0586H15.0586H15.0587H15.0587H15.0587H15.0587H15.0587H15.0587H15.0587H15.0587H15.0587H15.0587H15.0587H15.0587H15.0587H15.0587H15.0587H15.0587H15.0587H15.0587H15.0587H15.0587H15.0587H15.0587H15.0587H15.0587H15.0587H15.0587H15.0587H15.0587H15.0587H15.0587H15.0587H15.0587H15.0587H15.0587H15.0587H15.0587H15.0587H15.0587H15.0587H15.0588H15.0588H15.0588H15.0588H15.0588H15.0588H15.0588H15.0588H15.0588H15.0588H15.0588H15.0588H15.0588H15.0588H15.0588H15.0588H15.0588H15.0588H15.0588H15.0588H15.0588H15.0588H15.0588H15.0588H15.0588H15.0588H15.0588H15.0588H15.0588H15.0588H15.0588H15.0588H15.0588H15.0588H15.0588H15.0588H15.0588H15.0588H15.0588H15.0589H15.0589H15.0589H15.0589H15.0589H15.0589H15.0589H15.0589H15.0589H15.0589H15.0589H15.0589H15.0589H15.0589H15.0589H15.0589H15.0589H15.0589H15.0589H15.0589H15.0589H15.0589H15.0589H15.0589H15.0589H15.0589H15.0589H15.0589H15.0589H15.0589H15.0589H15.0589H15.0589H15.0589H15.0589H15.0589H15.0589H15.0589H15.0589H15.059H15.059H15.059H15.059H15.059H15.059H15.059H15.059H15.059H15.059H15.059H15.059H15.059H15.059H15.059H15.059H15.059H15.059H15.059H15.059H15.059H15.059H15.059H15.059H15.059H15.059H15.059H15.059H15.059H15.059H15.059H15.059H15.059H15.059H15.059H15.059H15.059H15.059H15.059H15.0591H15.0591H15.0591H15.0591H15.0591H15.0591H15.0591H15.0591H15.0591H15.0591H15.0591H15.0591H15.0591H15.0591H15.0591H15.0591H15.0591H15.0591H15.0591H15.0591H15.0591H15.0591H15.0591H15.0591H15.0591H15.0591H15.0591H15.0591H15.0591H15.0591H15.0591H15.0591H15.0591H15.0591H15.0591H15.0591H15.0591H15.0591H15.0591H15.0592H15.0592H15.0592H15.0592H15.0592H15.0592H15.0592H15.0592H15.0592H15.0592H15.0592H15.0592H15.0592H15.0592H15.0592H15.0592H15.0592H15.0592H15.0592H15.0592H15.0592H15.0592H15.0592H15.0592H15.0592H15.0592H15.0592H15.0592H15.0592H15.0592H15.0592H15.0592H15.0592H15.0592H15.0592H15.0592H15.0592H15.0592H15.0592H15.0593H15.0593H15.0593H15.0593H15.0593H15.0593H15.0593H15.0593H15.0593H15.0593H15.0593H15.0593H15.0593H15.0593H15.0593H15.0593H15.0593H15.0593H15.0593H15.0593H15.0593H15.0593H15.0593H15.0593H15.0593H15.0593H15.0593H15.0593H15.0593H15.0593H15.0593H15.0593H15.0593H15.0593H15.0593H15.0593H15.0593H15.0593H15.0593H15.0594H15.0594H15.0594H15.0594H15.0594H15.0594H15.0594H15.0594H15.0594H15.0594V79.1557L15.0603 79.1557C15.1238 79.1545 15.1749 79.1023 15.1737 79.0384L15.1737 79.0384L15.119 76.2425C15.119 76.2425 15.119 76.2425 15.119 76.2425C15.1177 76.1778 15.0658 76.1306 15.0028 76.1297L15.0028 76.1297L15.0011 76.1297C14.9377 76.1309 14.8865 76.1831 14.8878 76.247L14.8878 76.247L14.9425 79.0429Z" fill="#212B36" stroke="#212B36" stroke-width="0.1"/>
<path d="M16.9715 76.2852L16.9715 76.2852C16.9632 76.2218 17.0081 76.1644 17.071 76.1561M16.9715 76.2852L17.5884 81.8513C17.6246 81.8496 17.6525 81.8191 17.6507 81.7832L17.7007 81.7808C17.7007 81.7808 17.7007 81.7808 17.7007 81.7807C17.6105 79.9414 17.4424 78.0824 17.2008 76.2551L17.2008 76.2551C17.1924 76.1921 17.1341 76.1476 17.071 76.1561M16.9715 76.2852C17.2122 78.1062 17.3798 79.959 17.4697 81.792C17.4727 81.8539 17.5242 81.9015 17.5851 81.9015L17.5908 81.9012L16.9715 76.2852ZM17.071 76.1561C17.071 76.1561 17.0709 76.1561 17.0709 76.1561L17.0776 76.2057L17.0711 76.1561C17.0711 76.1561 17.0711 76.1561 17.071 76.1561Z" fill="#212B36" stroke="#212B36" stroke-width="0.1"/>
<path d="M19.3672 75.8848C19.3321 75.8936 19.3108 75.9289 19.3196 75.9637C19.5563 76.8953 19.8179 77.8466 20.097 78.7916L19.3672 75.8848ZM19.3672 75.8848C19.4025 75.8761 19.438 75.8971 19.4469 75.932M19.3672 75.8848L19.4469 75.932M19.4469 75.932C19.6832 76.8619 19.9443 77.8117 20.223 78.7551C20.2332 78.7896 20.2132 78.8257 20.1784 78.8358L19.4469 75.932ZM19.2712 75.9761C19.508 76.9082 19.7697 77.8602 20.0491 78.8058C20.064 78.8563 20.1104 78.8884 20.16 78.8884C20.1708 78.8884 20.1816 78.8868 20.192 78.8839L20.1923 78.8838C20.2534 78.8661 20.2891 78.8023 20.2709 78.7409C19.9924 77.7982 19.7315 76.8489 19.4954 75.9197L19.4954 75.9197C19.4796 75.8578 19.4167 75.821 19.3552 75.8362L19.3552 75.8362L19.3551 75.8363C19.2935 75.8517 19.2554 75.914 19.2712 75.976L19.2712 75.9761Z" fill="#212B36" stroke="#212B36" stroke-width="0.1"/>
<path d="M21.4141 75.32C21.4485 75.3082 21.4857 75.3265 21.4974 75.3605C21.8237 76.3067 22.0944 77.2854 22.3019 78.2692C22.3093 78.3044 22.2866 78.3388 22.2511 78.3462C22.2466 78.3471 22.2421 78.3475 22.2377 78.3475C22.2072 78.3475 22.1799 78.3265 22.1735 78.2958C21.967 77.3172 21.6978 76.3437 21.3732 75.4025C21.3614 75.3685 21.3797 75.3316 21.4141 75.32ZM21.4141 75.32L21.3981 75.2726C21.3981 75.2726 21.3981 75.2726 21.398 75.2726C21.398 75.2726 21.398 75.2726 21.3979 75.2727L21.4141 75.32ZM21.5447 75.3442C21.5447 75.3442 21.5447 75.3442 21.5447 75.3442C21.5447 75.3442 21.5447 75.3442 21.5447 75.3442L21.4974 75.3605L21.5447 75.3442Z" fill="#212B36" stroke="#212B36" stroke-width="0.1"/>
<path d="M23.2222 74.6992L23.1754 74.7168C23.5579 75.7292 23.8684 76.7729 24.0983 77.8188L24.0983 77.8188C24.1102 77.873 24.1583 77.9093 24.2112 77.9093C24.2193 77.9093 24.2276 77.9085 24.236 77.9066C24.298 77.8931 24.338 77.8322 24.3243 77.7697L24.3243 77.7696C24.0919 76.7128 23.7783 75.6585 23.392 74.6359C23.3694 74.576 23.3027 74.5467 23.2434 74.5685L23.2434 74.5685L23.2433 74.5686C23.1837 74.5907 23.1527 74.657 23.1755 74.7169L23.2222 74.6992ZM23.2222 74.6992C23.2095 74.6656 23.2267 74.628 23.2607 74.6154C23.2947 74.6029 23.3325 74.6199 23.3452 74.6536C23.7306 75.674 24.0436 76.726 24.2754 77.7804C24.2831 77.8155 24.2607 77.8501 24.2253 77.8578C24.2205 77.8588 24.2158 77.8593 24.2112 77.8593C24.181 77.8593 24.1538 77.8385 24.1471 77.8081C23.9167 76.7598 23.6055 75.7138 23.2222 74.6992Z" fill="#212B36" stroke="#212B36" stroke-width="0.1"/>
<path d="M25.7571 75.9629C25.7643 75.9982 25.7414 76.0325 25.7059 76.0397C25.7014 76.0406 25.6971 76.041 25.6927 76.041C25.6621 76.041 25.6348 76.0198 25.6284 75.989M25.7571 75.9629L25.806 75.9529M25.7571 75.9629L25.806 75.9528C25.806 75.9528 25.806 75.9529 25.806 75.9529M25.7571 75.9629C25.6067 75.2336 25.3958 74.5065 25.1301 73.802C25.1174 73.7684 25.0795 73.7514 25.0456 73.7639L25.6284 75.989M25.806 75.9529C25.819 76.0156 25.778 76.0761 25.7158 76.0887L25.7154 76.0888C25.708 76.0902 25.7004 76.091 25.6927 76.091C25.6392 76.091 25.5908 76.0539 25.5795 75.9991M25.806 75.9529C25.6552 75.2209 25.4435 74.4913 25.1769 73.7844L25.1769 73.7844C25.1543 73.7246 25.0876 73.6951 25.0283 73.7169L25.0282 73.717C24.9686 73.7391 24.9377 73.8054 24.9603 73.8652C25.2227 74.561 25.431 75.2789 25.5795 75.9991M25.5795 75.9991L25.6284 75.989M25.5795 75.9991C25.5795 75.999 25.5795 75.999 25.5795 75.999L25.6284 75.989" fill="#212B36" stroke="#212B36" stroke-width="0.1"/>
<path d="M27.2767 72.5544L27.2767 72.5544C27.2456 72.4984 27.2663 72.4284 27.3222 72.3978M27.2767 72.5544L27.3222 72.3978M27.2767 72.5544C28.1377 74.1013 28.9288 75.7089 29.6283 77.3325M27.2767 72.5544L29.6283 77.3325M27.3222 72.3978C27.3222 72.3978 27.3222 72.3978 27.3222 72.3978L27.3462 72.4417L27.3222 72.3979C27.3222 72.3979 27.3222 72.3979 27.3222 72.3978ZM29.6283 77.3325C29.6472 77.3764 29.6901 77.4022 29.7346 77.4022C29.7495 77.4022 29.7649 77.3993 29.7798 77.393L29.6283 77.3325Z" fill="#212B36" stroke="#212B36" stroke-width="0.1"/>
<path d="M30.5542 73.0188L30.5542 73.0188C30.2219 72.3546 29.8896 71.6889 29.5581 71.0247L29.5453 70.999L29.5453 70.999C29.5168 70.9417 29.5406 70.8726 29.5978 70.8446L29.598 70.8445L29.598 70.8445C29.6548 70.817 29.7239 70.8395 29.7525 70.8966L29.7525 70.8967C30.0882 71.5694 30.4247 72.2436 30.7613 72.9163L30.5542 73.0188ZM30.5542 73.0188C30.5745 73.0594 30.6156 73.0826 30.6578 73.0826L30.5542 73.0188ZM30.7089 73.0707C30.7661 73.0427 30.7899 72.9735 30.7613 72.9163L30.7089 73.0707Z" fill="#212B36" stroke="#212B36" stroke-width="0.1"/>
<path d="M31.6232 69.4141C31.5871 69.3616 31.5153 69.3485 31.4628 69.3839L31.4628 69.3839L31.4627 69.384C31.41 69.4198 31.3961 69.4914 31.4324 69.5441L31.4324 69.5441L32.9602 71.7725L32.9147 71.7932L32.9602 71.7725C32.5879 70.955 32.1381 70.1616 31.6232 69.4141ZM31.6232 69.4141C31.6232 69.4141 31.6232 69.4141 31.6232 69.4142L31.582 69.4425L31.6232 69.4141C31.6232 69.4141 31.6232 69.4141 31.6232 69.4141ZM32.7496 71.8675L32.7951 71.8467L32.7496 71.8674C32.7496 71.8674 32.7496 71.8674 32.7496 71.8675ZM32.9023 71.9249C32.9023 71.9249 32.9023 71.9249 32.9024 71.9249C32.9024 71.9249 32.9024 71.9248 32.9025 71.9248L32.8819 71.8792L32.9023 71.9249Z" fill="#212B36" stroke="#212B36" stroke-width="0.1"/>
<path d="M33.0681 68.294L33.0681 68.294L33.0042 68.1825L33.0042 68.1825C32.9724 68.127 32.9923 68.0567 33.0478 68.0254L33.0478 68.0254C33.103 67.9944 33.1735 68.0134 33.2052 68.0686L33.2052 68.0686L33.269 68.1801L33.269 68.1801C33.3202 68.2694 33.3714 68.3588 33.4226 68.4481C33.6982 68.9294 33.9738 69.4106 34.2488 69.8912L33.0681 68.294ZM33.0681 68.294C33.395 68.8647 33.7218 69.4352 34.0479 70.0051L33.0681 68.294Z" fill="#212B36" stroke="#212B36" stroke-width="0.1"/>
<path d="M34.585 66.7031L34.585 66.703C34.5517 66.6485 34.5693 66.5776 34.624 66.5448M34.585 66.7031L35.4399 68.4181C35.4578 68.4639 35.5016 68.4913 35.5476 68.4913C35.5613 68.4913 35.5755 68.4889 35.5895 68.4834M34.585 66.7031C34.9203 67.2507 35.2079 67.8277 35.4398 68.4181L34.585 66.7031ZM34.624 66.5448C34.6785 66.5119 34.7493 66.5292 34.7826 66.5833L34.7826 66.5833C35.1248 67.1424 35.4184 67.7315 35.6553 68.3344L35.6553 68.3344C35.6786 68.3938 35.6488 68.4605 35.5895 68.4834M34.624 66.5448C34.624 66.5448 34.624 66.5448 34.624 66.5448L34.6498 66.5876L34.624 66.5447C34.624 66.5447 34.624 66.5448 34.624 66.5448ZM35.5895 68.4834C35.5895 68.4834 35.5896 68.4834 35.5897 68.4834L35.5714 68.4368L35.5893 68.4835C35.5893 68.4835 35.5894 68.4835 35.5895 68.4834Z" fill="#212B36" stroke="#212B36" stroke-width="0.1"/>
<path d="M38.5367 68.5866C38.57 68.5725 38.5855 68.5343 38.5714 68.5012C38.008 67.1882 37.3715 65.8817 36.6795 64.618C36.6623 64.5865 36.6224 64.5748 36.5905 64.5918C36.5586 64.609 36.5468 64.6484 36.5641 64.68L38.5367 68.5866ZM38.5367 68.5866C38.5283 68.59 38.5196 68.5917 38.511 68.5917C38.4855 68.5917 38.4612 68.5768 38.4505 68.5521L38.5367 68.5866ZM38.4046 68.5718L38.4046 68.5718C38.4235 68.6158 38.4664 68.6417 38.511 68.6417C38.526 68.6417 38.5412 68.6388 38.5557 68.6328L38.5561 68.6326C38.6147 68.6079 38.6425 68.5403 38.6173 68.4815L38.6173 68.4815C38.0534 67.167 37.4161 65.8591 36.7234 64.594C36.6928 64.5381 36.6227 64.5179 36.5669 64.5478L36.5668 64.5478C36.5107 64.578 36.4895 64.6479 36.5202 64.704L36.5203 64.7041C37.2095 65.9627 37.8435 67.264 38.4046 68.5718Z" fill="#212B36" stroke="#212B36" stroke-width="0.1"/>
<path d="M39.6483 65.3071L39.6483 65.3071C39.6269 65.3242 39.6012 65.3325 39.5758 65.3325L39.6483 65.3071ZM39.6483 65.3071C39.6982 65.2672 39.706 65.1945 39.6656 65.145C39.118 64.4743 38.6203 63.7578 38.1862 63.0151M39.6483 65.3071L39.486 65.29C38.931 64.6101 38.4263 63.8837 37.9862 63.1308C37.9539 63.0755 37.9731 63.005 38.0284 62.9733M38.0284 62.9733C38.0835 62.9416 38.1541 62.9601 38.1862 63.0151M38.0284 62.9733C38.0284 62.9733 38.0283 62.9733 38.0283 62.9733L38.0533 63.0166L38.0284 62.9733C38.0284 62.9733 38.0284 62.9733 38.0284 62.9733ZM38.1862 63.0151L38.143 63.0403L38.1862 63.0151C38.1862 63.0151 38.1862 63.0151 38.1862 63.0151Z" fill="#212B36" stroke="#212B36" stroke-width="0.1"/>
<path d="M39.4707 61.3432C39.4211 61.3836 39.4139 61.4563 39.4547 61.5055C39.4547 61.5055 39.4547 61.5055 39.4547 61.5055L40.2222 62.4312C40.2715 62.4907 40.3208 62.5501 40.3701 62.6096C40.6271 62.9196 40.8843 63.2298 41.1416 63.54L41.1416 63.54L39.6332 61.3591M39.4707 61.3432C39.5199 61.3031 39.5926 61.3101 39.6332 61.3591M39.4707 61.3432C39.4707 61.3433 39.4706 61.3433 39.4706 61.3433L39.5023 61.382L39.4707 61.3432C39.4707 61.3432 39.4707 61.3432 39.4707 61.3432ZM39.6332 61.3591L39.6331 61.3591L39.5947 61.391L39.6332 61.3591C39.6332 61.3591 39.6332 61.3591 39.6332 61.3591Z" fill="#212B36" stroke="#212B36" stroke-width="0.1"/>
<path d="M42.4145 61.2184C42.4341 61.2487 42.4252 61.2889 42.3946 61.3083L42.3593 61.3685C42.3806 61.3685 42.4022 61.3627 42.4214 61.3505L42.4215 61.3505C42.4752 61.3164 42.4913 61.2451 42.4565 61.1913L42.4145 61.2184ZM42.4145 61.2184L42.4565 61.1913M42.4145 61.2184C42.0395 60.6381 41.6159 60.0773 41.1555 59.5517C41.1317 59.5245 41.0902 59.5217 41.0629 59.5452C41.0355 59.5688 41.0326 59.6098 41.0564 59.637L42.4565 61.1913M42.4565 61.1913C42.0801 60.6089 41.6551 60.0462 41.1931 59.5187C41.1511 59.4708 41.0783 59.466 41.0303 59.5073L41.0303 59.5073C40.9819 59.549 40.9766 59.6218 41.0187 59.6699L41.0187 59.6699C41.4734 60.189 41.8917 60.7427 42.262 61.3157L42.4565 61.1913Z" fill="#212B36" stroke="#212B36" stroke-width="0.1"/>
<path d="M43.6193 59.6033C43.2497 59.0566 42.8346 58.5387 42.3857 58.0642L42.3856 58.0642C42.342 58.0182 42.2691 58.0159 42.2225 58.0591C42.1757 58.1025 42.1734 58.1756 42.2173 58.222L42.2173 58.222C42.6576 58.6873 43.0648 59.1953 43.4274 59.7318L43.4274 59.7318C43.4498 59.7649 43.4865 59.7826 43.5234 59.7826C43.5454 59.7826 43.5679 59.7763 43.5876 59.7631L43.5598 59.7216L43.5874 59.7633C43.6406 59.728 43.6551 59.6563 43.6193 59.6033ZM43.6193 59.6033L43.5778 59.6313L43.6193 59.6033C43.6193 59.6033 43.6193 59.6033 43.6193 59.6033Z" fill="#212B36" stroke="#212B36" stroke-width="0.1"/>
<path d="M46.4593 58.3029C46.4409 58.3029 46.4227 58.2953 46.4097 58.2805L45.9091 57.7096C45.3358 57.0558 44.7627 56.4023 44.1906 55.7483C44.1668 55.7211 44.1698 55.68 44.1972 55.6565C44.2247 55.633 44.2661 55.6359 44.2898 55.663C44.8619 56.317 45.4349 56.9705 46.0082 57.6243L46.5088 58.1952C46.5326 58.2223 46.5297 58.2634 46.5023 58.287C46.4898 58.2977 46.4745 58.3029 46.4593 58.3029Z" fill="#212B36"/>
<path fill-rule="evenodd" clip-rule="evenodd" d="M44.1971 55.6568C44.2246 55.6333 44.266 55.6363 44.2897 55.6634C44.8464 56.2997 45.404 56.9356 45.9618 57.5717L46.5087 58.1955C46.5325 58.2226 46.5296 58.2637 46.5022 58.2873C46.4898 58.298 46.4744 58.3032 46.4592 58.3032C46.4408 58.3032 46.4226 58.2956 46.4096 58.2808L45.8994 57.699C45.3293 57.0488 44.7594 56.399 44.1905 55.7486C44.1668 55.7214 44.1697 55.6804 44.1971 55.6568ZM44.1152 55.8144C44.0547 55.7453 44.0626 55.6406 44.1319 55.581C44.2009 55.522 44.305 55.529 44.365 55.5975C44.9215 56.2338 45.479 56.8695 46.0368 57.5056L46.0833 57.5587L46.5839 58.1296C46.5839 58.1296 46.5839 58.1296 46.5839 58.1296C46.6444 58.1986 46.6368 58.3032 46.5675 58.363C46.5362 58.3899 46.4974 58.4032 46.4592 58.4032C46.4134 58.4032 46.3672 58.3842 46.3344 58.3467M46.3344 58.3467L45.8338 57.7759L45.8241 57.7647C45.254 57.1146 44.6841 56.4648 44.1152 55.8144" fill="#212B36"/>
<path d="M46.9899 55.6772L46.9899 55.6772C46.7743 55.4396 46.559 55.2019 46.3438 54.9643C46.3438 54.9643 46.3438 54.9642 46.3438 54.9642L46.3067 54.9233C46.0394 54.6282 45.7722 54.3332 45.5045 54.0387C45.4616 53.9915 45.4654 53.9184 45.5131 53.8759M46.9899 55.6772L45.6761 53.8844C45.6334 53.8373 45.5604 53.8336 45.5131 53.8759M46.9899 55.6772C47.0128 55.7024 47.0444 55.7152 47.0758 55.7152C47.1032 55.7152 47.1309 55.7055 47.1529 55.6858L47.1529 55.6858M46.9899 55.6772L47.1529 55.6858M45.5131 53.8759C45.5131 53.8759 45.5131 53.8759 45.5131 53.876L45.5464 53.9132L45.5131 53.8759C45.5131 53.8759 45.5131 53.8759 45.5131 53.8759ZM47.1529 55.6858C47.2006 55.6433 47.2046 55.5703 47.1616 55.523L47.1616 55.523C46.9549 55.2952 46.7484 55.0672 46.542 54.8393L46.5156 54.8103L46.5156 54.8103M47.1529 55.6858L46.5156 54.8103M46.5156 54.8103L46.5132 54.8076C46.2343 54.4997 45.9555 54.1918 45.6761 53.8844L46.5156 54.8103Z" fill="#212B36" stroke="#212B36" stroke-width="0.1"/>
<path d="M48.3116 52.8351C48.3394 52.8583 48.3429 52.8993 48.3195 52.9268M48.3116 52.8351L48.3437 52.7967C48.3927 52.8376 48.399 52.9104 48.3576 52.9592L48.3575 52.9593C48.3345 52.9862 48.3019 52.9999 48.2692 52.9999L48.3195 52.9268M48.3116 52.8351L48.3436 52.7967M48.3116 52.8351L48.3436 52.7967M48.3195 52.9268C48.3064 52.9421 48.2879 52.9499 48.2692 52.9499C48.2543 52.9499 48.2393 52.9449 48.227 52.9346M48.3195 52.9268L48.227 52.9346M48.3436 52.7967C47.961 52.4773 47.5869 52.1507 47.2318 51.826L47.2318 51.826C47.1849 51.7832 47.1121 51.7861 47.0688 51.8325L47.0687 51.8325M48.3436 52.7967L47.0687 51.8325M47.0687 51.8325C47.0252 51.8793 47.0281 51.9523 47.0753 51.9954L47.0687 51.8325ZM48.227 52.9346C47.8423 52.6135 47.4661 52.2851 47.109 51.9585L47.0753 51.9954M48.227 52.9346L47.0753 51.9954M47.0753 51.9954C47.433 52.3225 47.8096 52.6514 48.1949 52.973L47.0753 51.9954Z" fill="#212B36" stroke="#212B36" stroke-width="0.1"/>
<path d="M50.3623 51.2283C50.3865 51.2016 50.3842 51.1605 50.3572 51.1365L50.3623 51.2283ZM50.3623 51.2283C50.3493 51.2427 50.3313 51.25 50.3134 51.25C50.2978 51.25 50.2821 51.2445 50.2696 51.2334M50.3623 51.2283L48.74 49.7657C49.2048 50.2955 49.7083 50.8018 50.2364 51.2707C50.2364 51.2708 50.2364 51.2708 50.2364 51.2708L50.2696 51.2334M50.2696 51.2334C49.743 50.7658 49.241 50.2609 48.7776 49.7327C48.7538 49.7056 48.7567 49.6645 48.7841 49.641L48.7514 49.6031L50.2696 51.2334ZM48.9143 49.6144L48.9142 49.6144L50.3134 51.3C50.3448 51.3 50.3764 51.2872 50.3993 51.262L50.3994 51.2619C50.4423 51.2145 50.4382 51.1415 50.3904 51.0991L50.3904 51.0991C49.8695 50.6366 49.3728 50.137 48.9143 49.6144Z" fill="#212B36" stroke="#212B36" stroke-width="0.1"/>
<path d="M50.0587 48.0985L50.0587 48.0985C50.3628 48.4424 50.6873 48.7842 51.023 49.1144L50.0587 48.0985ZM50.0587 48.0985C50.0167 48.0509 49.9439 48.046 49.8958 48.0878M50.0587 48.0985L50.8605 49.278C50.5209 48.9441 50.1928 48.5984 49.8851 48.2504C49.8427 48.2025 49.8477 48.1297 49.8958 48.0878M49.8958 48.0878C49.8958 48.0878 49.8958 48.0878 49.8958 48.0879L49.9286 48.1255L49.8959 48.0878C49.8958 48.0878 49.8958 48.0878 49.8958 48.0878ZM51.0238 49.2773C51.0011 49.3002 50.9712 49.3113 50.9418 49.3113L51.0238 49.2773ZM51.0238 49.2773C51.0689 49.2322 51.0686 49.1591 51.0231 49.1144L51.0238 49.2773Z" fill="#212B36" stroke="#212B36" stroke-width="0.1"/>
<path d="M54.4594 48.8213C54.4868 48.8449 54.4898 48.8859 54.466 48.9131M54.4594 48.8213L54.492 48.7834M54.4594 48.8213L54.492 48.7834C54.492 48.7834 54.492 48.7834 54.492 48.7834M54.4594 48.8213L54.492 48.7834M54.466 48.9131L54.4164 48.9854C54.4484 48.9854 54.4806 48.9722 54.5036 48.9461L54.5036 48.946C54.5457 48.8979 54.5405 48.825 54.492 48.7834M54.466 48.9131C54.453 48.9279 54.4347 48.9354 54.4164 48.9354C54.4011 48.9354 54.3858 48.9302 54.3734 48.9195M54.466 48.9131L54.3734 48.9195M54.492 48.7834C53.4816 47.9148 52.4945 47.01 51.5581 46.0944L54.492 48.7834ZM51.3959 46.2584L51.3959 46.2584C51.3503 46.2138 51.3498 46.1407 51.3949 46.0954C51.4396 46.0505 51.5126 46.0498 51.5581 46.0944L51.3959 46.2584ZM51.3959 46.2584C52.3359 47.1776 53.3267 48.0856 54.3408 48.9574L51.3959 46.2584ZM54.3734 48.9195C53.3601 48.0484 52.3701 47.1411 51.4309 46.2227L54.3734 48.9195ZM54.3734 48.9195L54.3408 48.9574L54.3734 48.9195Z" fill="#212B36" stroke="#212B36" stroke-width="0.1"/>
<path d="M54.491 45.2393C54.5371 45.1951 54.5381 45.122 54.4934 45.0764C54.2263 44.8036 53.9596 44.5304 53.6927 44.2571L53.6927 44.257L53.2859 43.8405L53.25 43.8753L53.2858 43.8404L53.2858 43.8404C53.2413 43.7946 53.1683 43.7939 53.1226 43.8377L53.1226 43.8377C53.0765 43.8819 53.0753 43.955 53.1199 44.0007C53.1199 44.0007 53.1199 44.0007 53.1199 44.0007L53.5268 44.4174C53.7937 44.6907 54.0606 44.964 54.3278 45.2369C54.3505 45.2602 54.3807 45.2717 54.4106 45.2717C54.4394 45.2717 54.4685 45.2611 54.491 45.2393ZM54.491 45.2393C54.491 45.2393 54.491 45.2393 54.4911 45.2393L54.4563 45.2033L54.4909 45.2394C54.4909 45.2394 54.491 45.2394 54.491 45.2393Z" fill="#212B36" stroke="#212B36" stroke-width="0.1"/>
<path d="M56.2905 43.9309C56.3137 43.9034 56.3102 43.8624 56.2824 43.8393L56.3143 43.8009M56.2905 43.9309L56.3143 43.8009M56.2905 43.9309C56.2774 43.9462 56.2589 43.9542 56.2401 43.9542C56.2252 43.9542 56.2102 43.9492 56.1979 43.9389L56.2905 43.9309ZM56.3143 43.8009C56.3635 43.8417 56.3699 43.9145 56.3286 43.9632L56.3285 43.9634C56.3056 43.9903 56.2729 44.0042 56.2401 44.0042C56.2141 44.0042 56.1876 43.9954 56.1659 43.9773C55.5502 43.465 54.9425 42.9404 54.3598 42.4181L54.3598 42.4181C54.3123 42.3755 54.3085 42.3025 54.3516 42.2553L54.3885 42.289L54.3516 42.2553C54.3945 42.2082 54.4674 42.2048 54.5146 42.2472L54.5146 42.2472C55.0953 42.7676 55.7008 43.2904 56.3143 43.8009Z" fill="#212B36" stroke="#212B36" stroke-width="0.1"/>
<path d="M57.2722 41.9566L57.2722 41.9566C57.2932 41.9728 57.3183 41.9806 57.3429 41.9806C57.377 41.9806 57.4112 41.9655 57.4341 41.9364L57.4342 41.9363C57.4736 41.886 57.4643 41.8136 57.4138 41.7746L57.4137 41.7746L56.9108 41.3875L56.9108 41.3875L56.9023 41.381C56.5486 41.1088 56.1948 40.8366 55.8414 40.564L55.8413 40.564C55.7911 40.5252 55.7187 40.534 55.6794 40.5841C55.6399 40.6343 55.6491 40.7068 55.6996 40.7458C56.0488 41.0152 56.3985 41.2842 56.7479 41.553L56.7692 41.5695L56.7692 41.5695L57.2722 41.9566ZM57.3832 41.8142C57.4119 41.8363 57.417 41.8771 57.3948 41.9054C57.3818 41.922 57.3625 41.9306 57.3429 41.9306C57.3288 41.9306 57.3146 41.9261 57.3027 41.9169L57.3832 41.8142Z" fill="#212B36" stroke="#212B36" stroke-width="0.1"/>
<path d="M58.6506 40.2889L58.6506 40.2889C58.6977 40.3318 58.701 40.4048 58.6576 40.4516M58.6506 40.2889L58.5726 40.4888C58.6034 40.4888 58.6347 40.4765 58.6576 40.4516M58.6506 40.2889C58.1633 39.8451 57.6478 39.412 57.1184 39.0017L58.6506 40.2889ZM58.6576 40.4516C58.6576 40.4516 58.6577 40.4516 58.6577 40.4515L58.6209 40.4177L58.6575 40.4517C58.6575 40.4517 58.6576 40.4517 58.6576 40.4516ZM56.9763 39.1832L56.9763 39.1832L56.9564 39.0214C56.9168 39.0716 56.9258 39.1441 56.9763 39.1832ZM58.4945 40.4586C58.4945 40.4586 58.4945 40.4586 58.4945 40.4586L58.5282 40.4216L58.4945 40.4586ZM57.1184 39.0017C57.0682 38.9627 56.9958 38.9714 56.9564 39.0214L57.1184 39.0017Z" fill="#212B36" stroke="#212B36" stroke-width="0.1"/>
<path d="M62.1527 39.7456C62.1751 39.7738 62.1701 39.8147 62.1416 39.8369M62.1527 39.7456L62.1919 39.7145L62.1416 39.8369M62.1527 39.7456C61.5298 38.9605 60.6737 38.3895 59.8458 37.8374L58.6231 37.0594C58.662 37.0089 58.7345 36.9998 58.7849 37.038C59.1334 37.3021 59.5089 37.5526 59.8736 37.7958L59.8736 37.7958L59.8769 37.798C60.7025 38.3486 61.564 38.9233 62.1919 39.7145M62.1527 39.7456L62.1919 39.7145M62.1416 39.8369C62.1295 39.8463 62.1152 39.8508 62.1011 39.8508C62.0816 39.8508 62.0624 39.8423 62.0494 39.826M62.1416 39.8369L62.1919 39.7145M62.1919 39.7145C62.2316 39.7647 62.2226 39.8372 62.1724 39.8764L62.1723 39.8765C62.151 39.8929 62.1258 39.9008 62.1011 39.9008C62.0672 39.9008 62.0332 39.886 62.0102 39.857M62.0102 39.857L62.0494 39.826M62.0102 39.857C62.0102 39.857 62.0102 39.857 62.0102 39.857L62.0494 39.826M62.0102 39.857C61.4058 39.0953 60.5655 38.5343 59.7448 37.9869L59.7448 37.9869L59.7429 37.9857C59.3776 37.7421 58.9986 37.4892 58.6447 37.221L58.6447 37.221C58.5939 37.1824 58.584 37.1101 58.6231 37.0595L62.0494 39.826" fill="#212B36" stroke="#212B36" stroke-width="0.1"/>
<path d="M61.3248 36.3502L61.3249 36.3503C61.3396 36.3565 61.355 36.3595 61.3701 36.3595C61.4146 36.3595 61.4575 36.3338 61.4764 36.2899C61.5018 36.2312 61.4742 36.1636 61.4156 36.1386L61.4156 36.1386C60.9799 35.9535 60.5537 35.7348 60.149 35.4884L60.149 35.4884C60.0948 35.4555 60.0238 35.472 59.9902 35.5261C59.9564 35.5805 59.9738 35.6515 60.0282 35.6846L60.0283 35.6847C60.4426 35.9368 60.8788 36.1607 61.3248 36.3502ZM61.3701 36.3095C61.3615 36.3095 61.3528 36.3078 61.3443 36.3042L61.396 36.1847C61.4294 36.1988 61.4448 36.2371 61.4305 36.2701C61.4199 36.2947 61.3956 36.3095 61.3701 36.3095Z" fill="#212B36" stroke="#212B36" stroke-width="0.1"/>
<path d="M63.8617 34.6227C63.8825 34.5933 63.8754 34.5528 63.8457 34.5321L63.8617 34.6227ZM63.8617 34.6227C63.8489 34.6407 63.8285 34.6503 63.8079 34.6503C63.7949 34.6503 63.7817 34.6465 63.7702 34.6385L63.8617 34.6227ZM63.8743 34.4911L63.8742 34.4911L62.1377 33.4413C62.6445 33.875 63.1842 34.2916 63.7417 34.6796L63.7417 34.6796C63.7619 34.6936 63.7851 34.7003 63.8079 34.7003C63.8439 34.7003 63.8798 34.6835 63.9024 34.6517L63.9024 34.6517C63.9395 34.5995 63.9266 34.5275 63.8743 34.4911Z" fill="#212B36" stroke="#212B36" stroke-width="0.1"/>
<path d="M65.6223 32.7364L65.6223 32.7364L65.5598 32.6789C65.1131 32.2677 64.6664 31.8564 64.2196 31.4443L64.2196 31.4443C64.1728 31.401 64.17 31.328 64.2139 31.2814C64.2574 31.2351 64.3303 31.2325 64.377 31.2757L64.3431 31.3124M65.6223 32.7364L65.7854 32.7305C65.8292 32.6839 65.8263 32.6108 65.7794 32.5676C65.7794 32.5676 65.7794 32.5676 65.7794 32.5676L65.7169 32.51L65.7169 32.51C65.2702 32.0988 64.8236 31.6876 64.377 31.2756L64.3431 31.3124M65.6223 32.7364C65.6446 32.7569 65.6728 32.767 65.7008 32.767M65.6223 32.7364L65.7008 32.767M64.3431 31.3124C64.3166 31.2879 64.275 31.2894 64.2503 31.3156C64.2255 31.3419 64.2271 31.3831 64.2535 31.4076C64.7002 31.8196 65.147 32.2309 65.5937 32.6421L64.3431 31.3124ZM65.7008 32.767C65.7316 32.767 65.7626 32.7548 65.7854 32.7305L65.7008 32.767Z" fill="#212B36" stroke="#212B36" stroke-width="0.1"/>
<path d="M66.9949 31.6485L66.9949 31.6485L66.8937 31.5511C66.4507 31.1252 66.0071 30.6987 65.5635 30.2728L66.9949 31.6485ZM66.9949 31.6485C67.0174 31.6701 67.0464 31.6808 67.0753 31.6808C67.1053 31.6808 67.1354 31.6692 67.1581 31.6461L67.1581 31.646C67.2027 31.6004 67.2017 31.5273 67.1557 31.4831C67.1557 31.4831 67.1557 31.4831 67.1556 31.483L67.0544 31.3857L67.0544 31.3857C67.0206 31.3532 66.9868 31.3207 66.9531 31.2882C66.5437 30.8947 66.1339 30.5006 65.7241 30.1072L65.724 30.1072M66.9949 31.6485L65.724 30.1072M65.724 30.1072C65.6782 30.0634 65.6053 30.0643 65.5609 30.1098C65.5163 30.1555 65.5173 30.2286 65.5635 30.2728L65.724 30.1072Z" fill="#212B36" stroke="#212B36" stroke-width="0.1"/>
<path d="M67.3151 28.8488L67.3151 28.8489C68.527 30.1132 69.7982 31.3617 71.0934 32.5598L71.0934 32.5599C71.1402 32.6031 71.143 32.6762 71.099 32.7228C71.099 32.7228 71.099 32.7228 71.099 32.7228L71.0627 32.6885L67.3151 28.8488ZM67.3151 28.8488C67.2711 28.8032 67.1982 28.8012 67.1519 28.8448L67.3151 28.8488ZM70.9359 32.7284L70.936 32.7284L67.1519 28.8448C67.1054 28.8886 67.1035 28.9616 67.1477 29.0077L67.1477 29.0077C68.3628 30.2753 69.6373 31.5271 70.9359 32.7284Z" fill="#212B36" stroke="#212B36" stroke-width="0.1"/>
<path d="M69.4765 27.246C69.4304 27.2903 69.4294 27.3633 69.474 27.409L69.474 27.409C69.9094 27.854 70.3524 28.3251 70.7905 28.8094L70.7906 28.8094L70.9203 28.7809L70.9535 28.8183C71.0012 28.7759 71.0054 28.7029 70.9625 28.6555L70.9625 28.6555C70.5223 28.169 70.0773 27.6957 69.6397 27.2485M69.4765 27.246C69.5223 27.2019 69.5954 27.2031 69.6397 27.2485M69.4765 27.246C69.4765 27.246 69.4765 27.2461 69.4765 27.2461L69.5112 27.2821M69.4765 27.246C69.4765 27.246 69.4765 27.246 69.4765 27.246L69.5112 27.2821M69.6397 27.2485C69.6398 27.2486 69.6398 27.2486 69.6398 27.2486L69.604 27.2835L69.6397 27.2485C69.6397 27.2485 69.6397 27.2485 69.6397 27.2485ZM69.5112 27.2821C69.4851 27.3071 69.4845 27.3482 69.5097 27.374C69.9456 27.8195 70.389 28.2911 70.8276 28.7759L69.5112 27.2821Z" fill="#212B36" stroke="#212B36" stroke-width="0.1"/>
<path d="M72.91 27.8793C72.9292 27.9098 72.9198 27.9499 72.889 27.9689M72.91 27.8793L72.9524 27.8527C72.9864 27.9069 72.9695 27.978 72.9153 28.0114L72.9152 28.0115C72.8962 28.0231 72.8751 28.0287 72.8543 28.0287C72.816 28.0287 72.7782 28.0097 72.7562 27.9746C72.3749 27.3675 71.9798 26.7673 71.5819 26.1907L72.889 27.9689M72.91 27.8793L72.9524 27.8527M72.91 27.8793C72.5274 27.27 72.1309 26.6676 71.7314 26.0889L72.9524 27.8527M72.889 27.9689C72.8781 27.9756 72.8662 27.9787 72.8543 27.9787C72.8324 27.9787 72.811 27.9678 72.7985 27.948L72.889 27.9689ZM72.9524 27.8527C72.5693 27.2428 72.1724 26.6398 71.7726 26.0605L71.7726 26.0605C71.7364 26.008 71.6647 25.995 71.6122 26.0304L71.6121 26.0305M72.9524 27.8527L71.6121 26.0305M71.6121 26.0305C71.5594 26.0662 71.5455 26.138 71.5819 26.1907L71.6121 26.0305Z" fill="#212B36" stroke="#212B36" stroke-width="0.1"/>
<path d="M74.9203 26.5898L74.9202 26.5897C74.6563 26.087 74.3534 25.5937 74.0198 25.1236L74.9203 26.5898ZM74.9203 26.5898C74.941 26.6293 74.9814 26.6515 75.0228 26.6515C75.0408 26.6515 75.059 26.6473 75.0759 26.6386M74.9203 26.5898L74.0478 24.963M74.0478 24.963L74.0479 24.963C74.0999 24.9268 74.1717 24.939 74.2086 24.9908L74.2087 24.9909C74.5482 25.4693 74.8566 25.9714 75.1253 26.4832L75.1253 26.4832C75.155 26.5399 75.1326 26.6095 75.0759 26.6386M74.0478 24.963C73.9956 24.9995 73.9827 25.0714 74.0198 25.1236L74.0478 24.963ZM75.0759 26.6386L75.053 26.5942L75.076 26.6386C75.0759 26.6386 75.0759 26.6386 75.0759 26.6386Z" fill="#212B36" stroke="#212B36" stroke-width="0.1"/>
<path d="M77.5251 26.5586C77.5408 26.591 77.527 26.6299 77.4943 26.6454C77.4852 26.6497 77.4755 26.6517 77.466 26.6517C77.4415 26.6517 77.418 26.6381 77.4067 26.6148C77.1351 26.053 76.8631 25.4917 76.591 24.9301L77.5251 26.5586ZM77.5251 26.5586L77.5701 26.5368M77.5251 26.5586L77.5701 26.5368C77.5701 26.5368 77.5701 26.5368 77.5701 26.5368M77.5701 26.5368C77.3132 26.0052 77.0558 25.4741 76.7983 24.9428L76.7543 24.852L76.7543 24.852L76.4916 24.31L76.4916 24.31C76.4638 24.2526 76.3948 24.229 76.3376 24.2562L76.3376 24.2562C76.28 24.2835 76.2554 24.3523 76.2832 24.4099L76.2833 24.4099L76.546 24.9519C76.8181 25.5135 77.0901 26.0748 77.3617 26.6365C77.3817 26.678 77.4232 26.7017 77.466 26.7017C77.4828 26.7017 77.4998 26.6981 77.5156 26.6906L77.5158 26.6905C77.5733 26.6632 77.598 26.5945 77.5701 26.5368Z" fill="#212B36" stroke="#212B36" stroke-width="0.1"/>
<path d="M79.5137 23.9058L79.5137 23.9058C79.487 23.8477 79.5131 23.7794 79.5711 23.7533M79.5137 23.9058L79.6786 23.8311M79.5137 23.9058C80.2227 25.4501 80.716 27.0785 80.9802 28.7458L81.0296 28.738L79.5137 23.9058ZM79.5711 23.7533C79.6289 23.7271 79.6975 23.7524 79.7241 23.8103M79.5711 23.7533C79.5711 23.7533 79.5711 23.7533 79.5711 23.7533L79.5917 23.7988L79.5712 23.7532C79.5712 23.7532 79.5712 23.7533 79.5711 23.7533ZM79.7241 23.8103C79.7241 23.8103 79.7241 23.8103 79.7241 23.8103L79.6786 23.8311M79.7241 23.8103C79.724 23.8103 79.724 23.8103 79.724 23.8102L79.6786 23.8311M79.7241 23.8103C80.4417 25.3735 80.9412 27.022 81.2086 28.71M79.6786 23.8311C80.3943 25.3902 80.8925 27.0343 81.1592 28.7178M81.2086 28.71C81.2086 28.7099 81.2086 28.7099 81.2086 28.7099L81.1592 28.7178M81.2086 28.71C81.2186 28.7731 81.175 28.8316 81.1125 28.8415M81.2086 28.71L81.1592 28.7178M81.1592 28.7178L81.1125 28.8415M81.1125 28.8415C81.1125 28.8415 81.1126 28.8414 81.1127 28.8414L81.1045 28.7921L81.1122 28.8415L81.1125 28.8415Z" fill="#212B36" stroke="#212B36" stroke-width="0.1"/>
<path d="M81.7308 23.8247L81.7307 23.8247C81.709 23.7645 81.7407 23.6987 81.8007 23.6774C81.8605 23.6561 81.9268 23.6869 81.9484 23.7469L81.9484 23.7469L81.9014 23.7639L81.9484 23.747L82.6521 25.696L82.6521 25.696C82.6739 25.7562 82.6421 25.8221 82.5821 25.8433L81.7308 23.8247ZM81.7308 23.8247L82.4345 25.7737L81.7308 23.8247Z" fill="#212B36" stroke="#212B36" stroke-width="0.1"/>
<path d="M84.4765 25.9733L84.4765 25.9733L84.4376 25.8636L84.4376 25.8636C84.2151 25.2365 83.9927 24.6093 83.771 23.9821L83.771 23.9821C83.7497 23.9218 83.7819 23.8562 83.842 23.8354M84.4765 25.9733L83.842 23.8354C83.842 23.8354 83.842 23.8354 83.842 23.8354M84.4765 25.9733C84.4933 26.0208 84.5381 26.05 84.5855 26.05C84.5981 26.05 84.6111 26.048 84.6238 26.0435C84.6839 26.0225 84.7159 25.957 84.6946 25.8967L84.6946 25.8967L84.6557 25.7871L84.6557 25.787L84.6217 25.6914C84.4106 25.0962 84.1996 24.501 83.9892 23.9058L83.9892 23.9058M84.4765 25.9733L83.9892 23.9058M83.842 23.8354C83.902 23.8145 83.968 23.8457 83.9892 23.9058M83.842 23.8354L83.9892 23.9058M84.4847 25.8469C84.2622 25.2198 84.0398 24.5926 83.8181 23.9655L84.4847 25.8469Z" fill="#212B36" stroke="#212B36" stroke-width="0.1"/>
<path d="M86.5602 26.8714L86.5602 26.8714C86.5575 26.8716 86.5538 26.8718 86.5497 26.8718C86.4914 26.8718 86.4408 26.828 86.4348 26.7683C86.3572 26.0031 86.2453 25.2262 86.1021 24.4591L86.5602 26.8714ZM86.5602 26.8714L86.5613 26.8713M86.5602 26.8714L86.5613 26.8713M86.5613 26.8713C86.6244 26.865 86.6713 26.8089 86.6648 26.7452M86.5613 26.8713L86.6648 26.7452M86.6648 26.7452C86.6648 26.7452 86.6648 26.7452 86.6648 26.7452L86.6151 26.7503L86.6648 26.7452ZM86.1948 24.325C86.1323 24.3365 86.0903 24.3962 86.1021 24.4591L86.1948 24.325Z" fill="#212B36" stroke="#212B36" stroke-width="0.1"/>
<path d="M87.9816 25.0212C87.9746 24.9571 87.9158 24.9128 87.8542 24.9194L87.8541 24.9194C87.791 24.9263 87.7447 24.9827 87.7517 25.0464L87.7517 25.0464L87.9184 26.5519L87.9681 26.5464L87.9184 26.5519C87.9249 26.6112 87.9754 26.6544 88.0332 26.6544C88.0374 26.6544 88.0413 26.6541 88.0449 26.6538L88.0449 26.6538L88.0459 26.6537C88.109 26.6468 88.1553 26.5904 88.1483 26.5268L88.1483 26.5267L87.9816 25.0212ZM87.9816 25.0212L87.9319 25.0267L87.9816 25.0212L87.9816 25.0212Z" fill="#212B36" stroke="#212B36" stroke-width="0.1"/>
<path d="M89.8723 26.1511L89.8227 26.1573C89.9839 27.4543 90.093 28.7619 90.1468 30.0437L90.1468 30.0437C90.1495 30.106 90.201 30.154 90.2623 30.154H90.2625C90.2631 30.154 90.2654 30.154 90.2681 30.1538C90.3311 30.1508 90.3806 30.0977 90.378 30.0341L90.378 30.0341C90.3238 28.746 90.2142 27.4322 90.0522 26.1291M89.8723 26.1511L89.8227 26.1574C89.8148 26.0939 89.8603 26.0367 89.9233 26.029M89.8723 26.1511C89.8679 26.1155 89.8934 26.083 89.9294 26.0786M89.8723 26.1511C90.0337 27.4495 90.1429 28.7584 90.1968 30.0416C90.1983 30.0766 90.2273 30.104 90.2623 30.104L90.2651 30.1039L89.9294 26.0786M89.9233 26.029C89.9863 26.0212 90.0444 26.0657 90.0522 26.1291M89.9233 26.029C89.9233 26.029 89.9232 26.029 89.9232 26.029L89.9294 26.0786M89.9233 26.029C89.9233 26.029 89.9234 26.029 89.9234 26.029L89.9294 26.0786M90.0522 26.1291C90.0522 26.1291 90.0522 26.1291 90.0522 26.1291L90.0026 26.1352L90.0522 26.1291C90.0522 26.1291 90.0522 26.1291 90.0522 26.1291ZM90.328 30.0362H90.328H90.328Z" fill="#212B36" stroke="#212B36" stroke-width="0.1"/>
<path d="M92.1128 27.981L92.0631 27.9869C92.1212 28.4696 92.1698 28.9422 92.2078 29.3915L92.2078 29.3916C92.213 29.452 92.2638 29.497 92.323 29.497C92.3263 29.497 92.3294 29.4968 92.3321 29.4966L92.3321 29.4966L92.3327 29.4966C92.396 29.4913 92.4436 29.436 92.4383 29.3723L92.4383 29.3723C92.4001 28.9202 92.3511 28.4449 92.2928 27.9596M92.1128 27.981L92.0631 27.987C92.0554 27.9234 92.1013 27.8665 92.1643 27.859M92.1128 27.981C92.1084 27.9453 92.1342 27.9129 92.1702 27.9087M92.1128 27.981C92.1709 28.4642 92.2196 28.9374 92.2576 29.3873C92.2605 29.4213 92.2892 29.447 92.323 29.447L92.3285 29.4467C92.3647 29.4437 92.3915 29.4123 92.3885 29.3765C92.3503 28.925 92.3014 28.4503 92.2431 27.9656C92.2389 27.9299 92.2061 27.9044 92.1702 27.9087M92.1643 27.859C92.2272 27.8515 92.2852 27.8962 92.2928 27.9596M92.1643 27.859C92.1643 27.859 92.1643 27.859 92.1643 27.859L92.1702 27.9087M92.1643 27.859C92.1643 27.859 92.1643 27.859 92.1643 27.859L92.1702 27.9087M92.2928 27.9596L92.2432 27.9656L92.2928 27.9596Z" fill="#212B36" stroke="#212B36" stroke-width="0.1"/>
<path d="M93.5774 31.9998L93.5774 31.9998C93.6227 31.5336 93.669 31.0559 93.6434 30.5779L93.6434 30.5778C93.6292 30.297 93.5899 30.0208 93.5493 29.7625L93.5493 29.7625C93.5394 29.6992 93.5831 29.6408 93.6458 29.631L93.6459 29.631C93.7083 29.6215 93.7679 29.6636 93.7778 29.7269L93.5774 31.9998ZM93.5774 31.9998C93.5713 32.0635 93.6184 32.1194 93.6816 32.1254L93.6863 32.0756L93.5774 31.9998ZM93.5987 29.7547C93.5931 29.7192 93.6176 29.686 93.6535 29.6805L93.6933 30.5752C93.679 30.2917 93.6393 30.0134 93.5987 29.7547ZM93.8744 30.5659C93.8595 30.2739 93.8191 29.9894 93.7778 29.727L93.8744 30.5659Z" fill="#212B36" stroke="#212B36" stroke-width="0.1"/>
<path d="M94.6344 33.5561L94.6344 33.556C94.5588 32.788 94.5049 32.0021 94.474 31.2199L94.474 31.2199C94.4715 31.156 94.5216 31.103 94.585 31.1005L94.5857 31.1004L94.5857 31.1004C94.6473 31.0988 94.7024 31.1463 94.7051 31.2108L94.7051 31.2109C94.7358 31.9886 94.7895 32.7701 94.8646 33.5336L94.8646 33.5336C94.8709 33.5972 94.8239 33.6531 94.7608 33.6593M94.6344 33.5561L94.7607 33.6593C94.7607 33.6593 94.7608 33.6593 94.7608 33.6593M94.6344 33.5561C94.6403 33.6158 94.6909 33.6598 94.7494 33.6598M94.6344 33.5561L94.7494 33.6598M94.7608 33.6593C94.7568 33.6597 94.7529 33.6598 94.7494 33.6598M94.7608 33.6593L94.7494 33.6598M94.587 31.1504C94.6227 31.1495 94.6537 31.177 94.6552 31.2129C94.6859 31.9916 94.7396 32.774 94.8149 33.5385L94.587 31.1504Z" fill="#212B36" stroke="#212B36" stroke-width="0.1"/>
<path d="M6.43577 71.5627L6.43578 71.5627C6.44607 71.4753 6.52558 71.414 6.61231 71.4237L6.61246 71.4237C6.69951 71.4337 6.76269 71.512 6.75247 71.5993L6.75247 71.5993C6.66268 72.3655 6.58365 73.1366 6.51752 73.8913L6.51752 73.8913C6.51014 73.9741 6.44029 74.0359 6.35879 74.0359L6.43577 71.5627ZM6.43577 71.5627C6.34566 72.3318 6.26627 73.106 6.19988 73.8638M6.43577 71.5627L6.19988 73.8638M6.19988 73.8638C6.19218 73.9514 6.25755 74.0277 6.3447 74.0353L6.19988 73.8638ZM6.34493 74.0353L6.34921 73.9855L6.34493 74.0353Z" fill="#212B36" stroke="#212B36" stroke-width="0.1"/>
<path d="M5.08206 69.7038L5.08206 69.7038C5.08773 69.6158 5.16346 69.5509 5.25088 69.5557L5.25126 69.5557L5.25126 69.5557C5.33867 69.5613 5.40588 69.6361 5.40023 69.7239C5.36148 70.328 5.31505 70.9288 5.26228 71.5096L5.08206 69.7038ZM5.08206 69.7038C5.04349 70.3051 4.99731 70.9031 4.94479 71.4811C4.93683 71.5687 5.00199 71.6453 5.08921 71.6531L5.08206 69.7038Z" fill="#212B36" stroke="#212B36" stroke-width="0.1"/>
<path d="M4.08576 69.703L4.08608 69.703C4.08994 69.7033 4.09413 69.7035 4.09855 69.7035C4.18048 69.7035 4.25057 69.641 4.25732 69.5577L4.25732 69.5577C4.29774 69.0568 4.35694 68.5551 4.43333 68.0663L4.43333 68.0663C4.44688 67.9794 4.38684 67.8987 4.30012 67.8854L4.30003 67.8854C4.21372 67.8724 4.13186 67.9308 4.1183 68.0177L4.1183 68.0177C4.04073 68.5142 3.98059 69.0238 3.93953 69.5324L3.93953 69.5324C3.93246 69.6201 3.99843 69.6961 4.08576 69.703Z" fill="#212B36" stroke="#212B36" stroke-width="0.1"/>
<path d="M3.25879 67.5419L3.25879 67.5419C3.25391 67.6266 3.18323 67.6914 3.09973 67.6914L3.25879 67.5419ZM3.25879 67.5419C3.2872 67.0462 3.36157 66.551 3.47991 66.07M3.25879 67.5419L3.17026 65.9947C3.19121 65.9095 3.27732 65.8576 3.36281 65.8784L3.35102 65.927L3.36276 65.8784C3.44798 65.899 3.501 65.9845 3.47991 66.07M3.47991 66.07L3.43136 66.058L3.47992 66.0699C3.47991 66.0699 3.47991 66.0699 3.47991 66.07ZM3.17026 65.9947C3.0473 66.4944 2.97 67.0089 2.9405 67.5239L3.17026 65.9947ZM2.9405 67.5239C2.93544 67.6117 3.0031 67.6861 3.09049 67.6911L2.9405 67.5239Z" fill="#212B36" stroke="#212B36" stroke-width="0.1"/>
<path d="M7.56796 4.00392C7.39326 4.00392 7.25293 3.86358 7.25293 3.68887V1.16856C7.25293 0.993853 7.39326 0.853516 7.56796 0.853516C7.74267 0.853516 7.88303 0.993853 7.88303 1.16856V3.68887C7.88303 3.86358 7.74267 4.00392 7.56796 4.00392Z" fill="#212B36"/>
<path d="M7.56796 9.67384C7.39326 9.67384 7.25293 9.5335 7.25293 9.3588V6.83848C7.25293 6.66378 7.39326 6.52344 7.56796 6.52344C7.74267 6.52344 7.88303 6.66378 7.88303 6.83848V9.3588C7.88303 9.5335 7.74267 9.67384 7.56796 9.67384Z" fill="#212B36"/>
<path d="M5.83537 5.42109H3.31503C3.14033 5.42109 3 5.28076 3 5.10606C3 4.93135 3.14033 4.79102 3.31503 4.79102H5.83537C6.01007 4.79102 6.1504 4.93135 6.1504 5.10606C6.1504 5.28076 6.01007 5.42109 5.83537 5.42109Z" fill="#212B36"/>
<path d="M11.5061 5.42109H9.30087C9.12617 5.42109 8.98584 5.28076 8.98584 5.10606C8.98584 4.93135 9.12617 4.79102 9.30087 4.79102H11.5061C11.6808 4.79102 11.8212 4.93135 11.8212 5.10606C11.8212 5.28076 11.6808 5.42109 11.5061 5.42109Z" fill="#212B36"/>
<path d="M21.5263 95.4935C21.5666 95.5125 21.601 95.5458 21.6197 95.5906C21.6599 95.6862 21.6153 95.7968 21.5194 95.8377C14.6479 98.7489 7.49523 100.395 0.25914 100.729C0.154677 100.734 0.0666217 100.653 0.0626645 100.549C0.0575659 100.445 0.138232 100.357 0.242329 100.353C7.43288 100.021 14.5429 98.3852 21.373 95.4914C21.4242 95.4691 21.4802 95.4728 21.5267 95.4947L21.5263 95.4935Z" fill="#212B36"/>
<path d="M27.2654 92.7284C27.3002 92.7448 27.3308 92.7725 27.3504 92.8092C27.4 92.9007 27.3663 93.0145 27.2747 93.0641C26.3998 93.5388 25.5008 94.0003 24.6032 94.4368C24.5096 94.4827 24.3965 94.4436 24.3518 94.3496C24.3059 94.2561 24.345 94.1429 24.439 94.0982C25.3314 93.6649 26.2246 93.2054 27.0954 92.7335C27.1503 92.7035 27.2135 92.704 27.2654 92.7284Z" fill="#212B36"/>
<path d="M29.4613 86.6773C29.4907 86.6912 29.5172 86.7132 29.5375 86.7426C29.595 86.8293 29.5725 86.9455 29.4861 87.0043C21.8157 92.1554 13.4911 95.3683 4.74493 96.5547C4.64146 96.5694 4.54707 96.4965 4.53317 96.3934C4.51928 96.2903 4.59138 96.1956 4.69448 96.1817C13.383 95.0031 21.6537 91.8103 29.2762 86.6924C29.3331 86.6539 29.4036 86.6511 29.4617 86.6785L29.4613 86.6773Z" fill="#212B36"/>
<path d="M78.4038 17.4374C77.7544 17.4877 77.2516 18.0288 77.2635 18.6906C77.2756 19.3877 77.8558 19.9582 78.555 19.9619C78.8882 19.9646 79.2018 19.8382 79.4358 19.6077C79.6774 19.3698 79.8073 19.049 79.8009 18.705C79.7888 18.0078 79.2087 17.4373 78.5094 17.4337C78.4733 17.4335 78.4379 17.4347 78.4032 17.4374L78.4038 17.4374ZM78.6377 19.6297C78.6087 19.632 78.579 19.6328 78.5492 19.6328C78.0028 19.6294 77.5509 19.2073 77.542 18.6916C77.5331 18.1758 77.9709 17.7599 78.5158 17.7619C79.0622 17.7654 79.5141 18.1875 79.523 18.7032C79.5273 18.9468 79.4317 19.1779 79.2543 19.3523C79.0892 19.5144 78.8729 19.6115 78.6371 19.6298L78.6377 19.6297Z" fill="#212B36"/>
<path d="M81.6522 18.7723C81.5842 18.7776 81.5303 18.8517 81.5277 18.9494C81.5252 19.0559 81.5852 19.1505 81.662 19.1597C86.9374 19.8037 91.9599 21.7347 96.5901 24.8968C96.661 24.9444 96.743 24.9062 96.7737 24.8108C96.805 24.7153 96.7724 24.5982 96.7021 24.5504C92.0397 21.3652 86.9826 19.4219 81.6719 18.7725C81.6649 18.7722 81.6585 18.7718 81.6516 18.7723L81.6522 18.7723Z" fill="#212B36"/>
<path d="M78.402 15.2117C78.3339 15.217 78.2801 15.2912 78.2775 15.3889C78.2749 15.4954 78.3349 15.59 78.4117 15.5991C83.6871 16.2432 88.7096 18.1741 93.3399 21.3362C93.4108 21.3839 93.4928 21.3456 93.5234 21.2502C93.5547 21.1547 93.5222 21.0376 93.4519 20.9899C88.7895 17.8046 83.7324 15.8613 78.4217 15.212C78.4147 15.2116 78.4083 15.2112 78.4014 15.2118L78.402 15.2117Z" fill="#212B36"/>
<path d="M176.284 58.3058C176.1 58.3058 175.948 58.16 175.945 57.9785L175.906 56.1958C175.902 56.0112 176.05 55.858 176.237 55.8535H176.245C176.428 55.8535 176.578 55.9993 176.583 56.1809L176.622 57.9636C176.627 58.1481 176.478 58.3014 176.291 58.3058H176.284Z" fill="#212B36"/>
<path d="M176.419 64.5442C176.235 64.5442 176.085 64.3984 176.08 64.2169L176.041 62.4341C176.037 62.2496 176.186 62.0964 176.372 62.0919C176.556 62.0874 176.714 62.2348 176.718 62.4193L176.757 64.202C176.762 64.3865 176.613 64.5398 176.426 64.5442H176.419Z" fill="#212B36"/>
<path d="M172.338 60.5658C172.152 60.5658 172.002 60.417 172 60.234C172 60.048 172.149 59.8977 172.335 59.8962L174.11 59.8828H174.113C174.3 59.8828 174.45 60.0316 174.452 60.2147C174.452 60.3992 174.303 60.551 174.116 60.5524L172.341 60.5658H172.338Z" fill="#212B36"/>
<path d="M178.552 60.519C178.365 60.519 178.215 60.3702 178.213 60.1871C178.213 60.0026 178.362 59.8508 178.549 59.8493L180.324 59.8359H180.327C180.513 59.8359 180.664 59.9847 180.665 60.1678C180.665 60.3538 180.516 60.5041 180.33 60.5056L178.555 60.519H178.552Z" fill="#212B36"/>
<path fill-rule="evenodd" clip-rule="evenodd" d="M178 71.5535C178.939 71.5535 179.7 70.7924 179.7 69.8535C179.7 68.9146 178.939 68.1535 178 68.1535C177.061 68.1535 176.3 68.9146 176.3 69.8535C176.3 70.7924 177.061 71.5535 178 71.5535ZM178 71.8535C179.105 71.8535 180 70.9581 180 69.8535C180 68.7489 179.105 67.8535 178 67.8535C176.895 67.8535 176 68.7489 176 69.8535C176 70.9581 176.895 71.8535 178 71.8535Z" fill="#212B36"/>
<circle cx="7.5" cy="17.3535" r="1.35" stroke="#212B36" stroke-width="0.3"/>
</svg>
