<svg width="179" height="127" viewBox="0 0 179 127" fill="none" xmlns="http://www.w3.org/2000/svg">
<path fill-rule="evenodd" clip-rule="evenodd" d="M137.964 8.85352H21.4614C17.0431 8.85352 13.4614 12.4352 13.4614 16.8535V108.912C13.4614 113.33 17.0432 116.912 21.4614 116.912H137.964C142.383 116.912 145.964 113.33 145.964 108.912V16.8535C145.964 12.4352 142.383 8.85352 137.964 8.85352ZM21.4614 7.85352C16.4909 7.85352 12.4614 11.8829 12.4614 16.8535V108.912C12.4614 113.882 16.4909 117.912 21.4614 117.912H137.964C142.935 117.912 146.964 113.882 146.964 108.912V16.8535C146.964 11.883 142.935 7.85352 137.964 7.85352H21.4614Z" fill="#212B36"/>
<path d="M12.9282 16.8535C12.9282 11.8829 16.9577 7.85352 21.9282 7.85352H50.3463V117.912H21.9282C16.9577 117.912 12.9282 113.882 12.9282 108.912V16.8535Z" fill="#212B36"/>
<path d="M168.408 77.8426C169.589 78.3496 170.296 79.487 170.303 80.6836C170.697 80.7274 171.092 80.8288 171.475 80.9934C173.544 81.8816 174.492 84.2604 173.594 86.3059C173.579 86.3406 173.562 86.3742 173.546 86.4079C173.723 86.4125 173.901 86.4497 174.074 86.5235C174.795 86.8329 175.125 87.662 174.812 88.3749C174.805 88.3912 174.797 88.4075 174.789 88.4233C174.999 88.457 175.207 88.5161 175.411 88.6032C176.724 89.1673 177.326 90.6773 176.756 91.9757C176.707 92.0878 176.649 92.1943 176.587 92.2952C176.604 92.3019 176.621 92.308 176.637 92.3151C177.95 92.8792 178.552 94.3892 177.982 95.6876C177.719 96.2879 177.251 96.7374 176.695 96.9922C177.414 97.5701 177.689 98.5704 177.302 99.4525C177.015 100.108 176.429 100.544 175.771 100.673C175.736 100.967 175.658 101.262 175.532 101.548C175.099 102.534 174.212 103.187 173.218 103.37C173.175 103.55 173.117 103.728 173.04 103.903C172.672 104.743 171.975 105.34 171.163 105.613C171.172 105.818 171.129 106.042 171.041 106.243C170.729 106.956 169.885 107.296 169.164 106.986C169.164 106.986 169.164 106.986 169.163 106.986C168.02 107.998 166.321 108.335 164.805 107.684C163.783 107.244 163.037 106.435 162.65 105.488C160.962 104.754 160.027 103.021 160.242 101.295C158.132 99.6972 154.663 96.7904 152.872 93.7654C151.075 92.9159 150.265 90.8031 151.065 88.9803C151.098 88.9069 151.133 88.8351 151.169 88.7648C150.051 87.7445 149.579 86.1602 150.016 84.6722C148.525 83.5786 147.935 81.5779 148.705 79.8218C149.307 78.4505 150.586 77.5776 151.987 77.4181C152.346 76.8147 153.112 76.5573 153.778 76.8432C153.937 76.9115 154.076 77.0053 154.195 77.1169C154.9 76.1945 156.173 75.8317 157.293 76.3127C157.32 76.3239 157.346 76.3367 157.371 76.3489C157.766 75.8893 158.433 75.7175 159.021 75.9703C159.377 76.1232 159.638 76.4029 159.773 76.7326C160.442 76.3876 161.257 76.3326 162.004 76.6537C162.604 76.9115 163.054 77.3671 163.313 77.9093C163.808 77.8716 164.319 77.9491 164.806 78.158C164.917 78.2054 165.023 78.2589 165.125 78.317C166.01 77.5801 167.274 77.3549 168.408 77.8415V77.8426Z" fill="#212B36"/>
<path d="M165.302 103.447C165.302 103.447 159.145 100.448 157.083 102.448C155.021 104.447 146.163 114.664 146.163 114.664L136.428 108.816C136.428 108.816 149.823 101.307 151.333 96.6366C152.844 91.9662 152.334 84.6152 152.334 84.6152L153.773 85.2339C153.773 85.2339 153.168 92.2031 154.389 92.1624C155.611 92.1221 157.296 88.6976 157.914 86.3183C159.832 86.2403 162.317 87.3676 162.317 87.3676C162.317 87.3676 155.627 93.3294 157.448 93.7503C159.267 94.1712 164.245 90.7197 164.245 90.7197L164.778 92.6893C164.778 92.6893 156.132 96.0705 157.724 97.8357C159.315 99.6015 164.325 95.3825 164.839 95.1817C165.399 95.8432 161.905 98.1287 163.552 98.115C165.199 98.1012 166.904 97.8123 166.904 97.8123L167.357 101.072C167.357 101.072 161.908 99.0919 161.662 100.068C161.416 101.045 166.078 102.326 166.078 102.326L165.302 103.447H165.302Z" fill="white"/>
<path d="M146.163 114.778C146.142 114.778 146.121 114.773 146.102 114.762L136.367 108.914C136.332 108.892 136.311 108.854 136.311 108.813C136.312 108.772 136.334 108.734 136.37 108.715C136.504 108.64 149.742 101.175 151.222 96.6005C152.708 92.0054 152.222 84.6952 152.217 84.6219C152.214 84.5816 152.233 84.5429 152.266 84.5194C152.3 84.496 152.343 84.4914 152.381 84.5077L153.82 85.1259C153.866 85.1457 153.894 85.1921 153.89 85.242C153.749 86.8697 153.532 91.2512 154.217 91.9647C154.289 92.0396 154.348 92.0457 154.386 92.0452C155.458 92.0095 157.131 88.8668 157.802 86.2882C157.815 86.2388 157.859 86.2037 157.911 86.2016C159.835 86.1231 162.265 87.2147 162.367 87.2611C162.403 87.2774 162.428 87.31 162.434 87.3487C162.44 87.3875 162.426 87.4262 162.396 87.4522C160.21 89.4004 157.039 92.6088 157.261 93.4639C157.275 93.52 157.314 93.5989 157.475 93.6361C159.227 94.0418 164.13 90.6575 164.179 90.6234C164.21 90.6015 164.25 90.5964 164.286 90.6096C164.322 90.6224 164.349 90.6519 164.359 90.6886L164.892 92.6582C164.907 92.7153 164.877 92.7744 164.822 92.7958C164.755 92.8223 158.086 95.4488 157.665 97.2023C157.615 97.4107 157.663 97.5927 157.812 97.7573C159.029 99.1077 162.54 96.6305 164.039 95.5726C164.475 95.2643 164.69 95.1145 164.797 95.0727C164.844 95.0543 164.897 95.0681 164.929 95.1058C165.252 95.487 164.656 96.1316 164.026 96.8145C163.658 97.2125 163.155 97.7573 163.229 97.9219C163.246 97.9601 163.345 97.9973 163.551 97.9983C165.169 97.9845 166.868 97.7002 166.885 97.6971C166.917 97.6915 166.948 97.6992 166.974 97.718C167 97.7364 167.017 97.7644 167.021 97.7955L167.474 101.055C167.479 101.096 167.463 101.136 167.431 101.161C167.399 101.187 167.356 101.193 167.317 101.18C166.049 100.719 162.599 99.6066 161.872 99.9883C161.801 100.026 161.782 100.067 161.776 100.095C161.625 100.693 164.219 101.693 166.11 102.213C166.146 102.223 166.176 102.249 166.189 102.285C166.201 102.32 166.197 102.359 166.175 102.389L165.399 103.511C165.366 103.558 165.303 103.575 165.251 103.549C165.19 103.519 159.145 100.609 157.166 102.528C155.131 104.501 146.341 114.635 146.252 114.737C146.23 114.764 146.197 114.777 146.163 114.777L146.163 114.778ZM136.658 108.818L146.138 114.513C146.948 113.58 155.052 104.254 157.001 102.364C158.984 100.44 164.456 102.917 165.261 103.298L165.889 102.392C164.83 102.092 161.301 101.016 161.548 100.039C161.575 99.9292 161.647 99.8435 161.761 99.7834C162.636 99.3248 166.267 100.561 167.214 100.896L166.804 97.9438C166.386 98.009 164.94 98.2174 163.552 98.2291C163.443 98.2317 163.112 98.2327 163.015 98.0156C162.885 97.7272 163.248 97.3119 163.852 96.658C164.262 96.2142 164.807 95.6236 164.783 95.3418C164.65 95.4238 164.424 95.5833 164.173 95.7606C162.491 96.947 158.992 99.416 157.636 97.9106C157.435 97.6879 157.368 97.4316 157.436 97.1478C157.861 95.3774 163.77 92.9635 164.638 92.618L164.175 90.9062C163.342 91.4703 159.12 94.2548 157.42 93.8609C157.158 93.8002 157.065 93.6423 157.033 93.521C156.723 92.3265 161.133 88.2747 162.104 87.4002C161.532 87.1607 159.578 86.3937 158.005 86.4294C157.352 88.8704 155.685 92.2332 154.393 92.276C154.268 92.2811 154.147 92.2291 154.046 92.1237C153.197 91.2385 153.587 86.0569 153.649 85.3047L152.46 84.7946C152.526 85.9794 152.809 92.4498 151.443 96.6703C150.012 101.096 138.299 107.884 136.657 108.818L136.658 108.818Z" fill="#212B36"/>
<path d="M167.199 94.5807C167.365 94.5888 167.532 94.626 167.694 94.6953C168.323 94.9654 168.654 95.6309 168.52 96.27C168.858 96.2873 169.199 96.3632 169.527 96.5049C171.003 97.1383 171.679 98.8353 171.039 100.295C170.576 101.349 169.552 101.991 168.463 102.027C169.097 102.793 169.286 103.873 168.86 104.843C168.303 106.113 166.888 106.751 165.578 106.382C165.2 106.601 164.726 106.644 164.294 106.458C163.573 106.149 163.243 105.321 163.556 104.609C163.585 104.543 163.618 104.481 163.655 104.423C163.511 103.858 163.547 103.245 163.799 102.67C164.227 101.695 165.161 101.093 166.165 101.033C165.457 100.221 165.236 99.0493 165.697 98.0001C165.844 97.6637 166.049 97.3702 166.295 97.1241C165.969 96.8912 165.764 96.5355 165.717 96.1523C165.55 96.1441 165.383 96.1069 165.221 96.0376C164.501 95.7283 164.171 94.9002 164.484 94.1883C164.796 93.4758 165.633 93.1492 166.353 93.4585C166.833 93.6649 167.139 94.1016 167.198 94.5807H167.199Z" fill="#212B36"/>
<path d="M164.294 106.577C164.279 106.577 164.263 106.574 164.248 106.567C163.871 106.405 163.58 106.108 163.43 105.73C163.279 105.352 163.286 104.939 163.45 104.566C163.474 104.511 163.501 104.458 163.531 104.407C163.389 103.808 163.445 103.193 163.693 102.627C164.097 101.706 164.946 101.075 165.94 100.941C165.299 100.088 165.159 98.9397 165.591 97.9572C165.723 97.656 165.902 97.3819 166.123 97.1398C165.86 96.9146 165.68 96.6042 165.616 96.2638C165.464 96.247 165.316 96.2078 165.175 96.1471C164.398 95.8128 164.04 94.9149 164.377 94.1454C164.541 93.7724 164.841 93.485 165.223 93.3362C165.284 93.3127 165.352 93.3423 165.375 93.4014C165.399 93.461 165.37 93.5283 165.309 93.5517C164.985 93.6781 164.73 93.9217 164.592 94.2382C164.453 94.5541 164.447 94.9047 164.575 95.2253C164.703 95.5458 164.949 95.798 165.269 95.9351C165.413 95.9973 165.566 96.0325 165.723 96.0401C165.78 96.0432 165.827 96.086 165.834 96.142C165.877 96.4992 166.071 96.8244 166.364 97.0338C166.391 97.0537 166.409 97.0843 166.412 97.1179C166.415 97.1515 166.402 97.1847 166.378 97.2086C166.135 97.4522 165.942 97.735 165.804 98.0494C165.379 99.0182 165.555 100.161 166.253 100.96C166.282 100.993 166.29 101.04 166.272 101.081C166.255 101.122 166.216 101.149 166.172 101.151C165.172 101.211 164.304 101.812 163.906 102.719C163.671 103.253 163.623 103.833 163.768 104.397C163.775 104.428 163.77 104.46 163.753 104.487C163.719 104.541 163.688 104.599 163.662 104.658C163.523 104.974 163.517 105.324 163.645 105.645C163.773 105.966 164.019 106.218 164.339 106.355C164.398 106.38 164.425 106.449 164.4 106.507C164.381 106.551 164.337 106.577 164.292 106.577H164.294Z" fill="white"/>
<path d="M155.75 84.1921C156.229 84.5218 156.424 85.1501 156.182 85.7C155.907 86.3268 155.17 86.6147 154.536 86.3421C154.404 86.285 154.287 86.208 154.187 86.1168C153.502 86.4226 152.695 86.4526 151.952 86.1336C150.554 85.5333 149.913 83.926 150.52 82.5435C151.126 81.161 152.751 80.5265 154.148 81.1268C155.372 81.6522 156.015 82.9491 155.75 84.1921H155.75Z" fill="#212B36"/>
<path d="M155.015 86.6103C154.831 86.6103 154.645 86.5736 154.468 86.4971C154.35 86.4467 154.242 86.3809 154.144 86.3009C153.422 86.6011 152.603 86.5975 151.883 86.2882C151.179 85.9855 150.636 85.4295 150.353 84.7227C150.072 84.0159 150.084 83.2428 150.39 82.5457C150.737 81.7553 151.418 81.1693 152.258 80.9379C152.32 80.9206 152.385 80.9568 152.402 81.0184C152.42 81.0801 152.383 81.1438 152.321 81.1611C151.549 81.3736 150.924 81.9123 150.605 82.6385C150.325 83.2785 150.312 83.9889 150.571 84.6381C150.83 85.2873 151.329 85.7985 151.976 86.0762C152.658 86.3692 153.439 86.3631 154.117 86.0604C154.159 86.0416 154.21 86.0492 154.244 86.0808C154.338 86.1664 154.444 86.2347 154.561 86.2851C155.016 86.4803 155.541 86.3636 155.867 85.9947C155.909 85.9468 155.983 85.9417 156.032 85.9835C156.08 86.0252 156.085 86.0986 156.043 86.1465C155.777 86.4482 155.401 86.6103 155.015 86.6103H155.015Z" fill="white"/>
<path d="M162.341 85.2583C162.892 84.9959 163.551 84.9628 164.156 85.2227C165.122 85.6375 165.631 86.6597 165.425 87.6407C165.668 87.6738 165.911 87.7396 166.147 87.841C167.544 88.4413 168.185 90.0486 167.579 91.4311C166.972 92.8136 165.347 93.4476 163.95 92.8478C162.552 92.2475 161.912 90.6402 162.518 89.2577C162.522 89.248 162.527 89.2388 162.531 89.2296C162.494 89.2159 162.456 89.2011 162.418 89.1848C161.729 88.8887 161.273 88.2833 161.143 87.604C160.386 88.1157 159.388 88.2441 158.485 87.8563C157.088 87.256 156.447 85.6487 157.053 84.2662C157.66 82.8836 159.285 82.2492 160.682 82.8495C161.69 83.2826 162.305 84.2402 162.341 85.2589V85.2583Z" fill="#212B36"/>
<path d="M165.143 93.2298C164.758 93.2298 164.37 93.1539 164.005 92.9969C162.578 92.3839 161.906 90.7562 162.478 89.336C162.477 89.3355 162.475 89.3345 162.474 89.334C161.827 89.0562 161.348 88.5028 161.167 87.8337C160.37 88.3087 159.401 88.3749 158.54 88.0054C157.836 87.7027 157.293 87.1468 157.011 86.44C156.729 85.7331 156.742 84.9601 157.048 84.263C157.202 83.9108 157.422 83.599 157.701 83.3365C157.748 83.2927 157.821 83.2942 157.866 83.3406C157.911 83.387 157.909 83.4598 157.862 83.5042C157.606 83.7457 157.404 84.0321 157.262 84.3557C156.981 84.9958 156.969 85.7061 157.228 86.3554C157.487 87.0046 157.986 87.5157 158.633 87.7934C159.471 88.1532 160.422 88.063 161.178 87.5519C161.21 87.53 161.252 87.5254 161.288 87.5407C161.325 87.5555 161.351 87.5876 161.358 87.6258C161.486 88.2929 161.937 88.8519 162.566 89.122C162.601 89.1373 162.637 89.151 162.673 89.1643C162.703 89.1755 162.728 89.1984 162.74 89.2275C162.752 89.257 162.752 89.2901 162.739 89.3192L162.726 89.3472C162.146 90.6686 162.762 92.2106 164.097 92.7844C165.094 93.2125 166.276 92.9847 167.037 92.2162C167.083 92.1709 167.157 92.1699 167.203 92.2147C167.249 92.2596 167.249 92.3329 167.204 92.3783C166.655 92.9333 165.903 93.2298 165.142 93.2298H165.143Z" fill="white"/>
<path d="M154.362 82.3371C153.824 82.1062 153.199 82.3503 152.966 82.8818C152.732 83.4138 152.979 84.032 153.516 84.2628C154.054 84.4937 154.679 84.2496 154.912 83.7181C155.146 83.186 154.899 82.5679 154.362 82.3371Z" fill="white"/>
<path d="M156.915 80.8632C156.578 80.7185 156.187 80.8714 156.041 81.2041C155.895 81.5369 156.049 81.9237 156.386 82.0684C156.722 82.2131 157.113 82.0603 157.259 81.7275C157.406 81.3947 157.251 81.0079 156.915 80.8632Z" fill="white"/>
<path d="M168.364 103.971C167.87 103.759 167.295 103.983 167.081 104.471C166.866 104.96 167.093 105.528 167.587 105.741C168.081 105.953 168.655 105.729 168.87 105.24C169.084 104.751 168.858 104.183 168.364 103.971Z" fill="white"/>
<path d="M165.496 103.099C165.185 102.966 164.824 103.107 164.689 103.414C164.554 103.721 164.697 104.079 165.008 104.212C165.318 104.346 165.679 104.204 165.814 103.897C165.949 103.59 165.807 103.233 165.496 103.099Z" fill="white"/>
<path d="M146.409 114.225C147.175 112.479 145.414 110.041 142.475 108.779C139.537 107.516 136.533 107.908 135.767 109.654C135.001 111.399 136.762 113.838 139.701 115.1C142.64 116.363 145.643 115.971 146.409 114.225Z" fill="white"/>
<path d="M143.066 115.95C142.011 115.95 140.826 115.708 139.654 115.205C136.661 113.919 134.869 111.408 135.659 109.606C136.45 107.805 139.528 107.385 142.521 108.671C145.515 109.957 147.307 112.468 146.516 114.27C146.035 115.366 144.707 115.95 143.066 115.95ZM139.094 108.152C137.554 108.152 136.318 108.688 135.874 109.699C135.135 111.383 136.873 113.758 139.748 114.993C142.622 116.228 145.563 115.862 146.302 114.177C147.041 112.493 145.304 110.118 142.429 108.883C141.28 108.389 140.119 108.151 139.094 108.151L139.094 108.152Z" fill="#212B36"/>
<path d="M137.007 112.423C136.971 112.423 136.935 112.406 136.912 112.375C136.358 111.617 136.199 110.868 136.464 110.263C136.747 109.619 137.471 109.215 138.503 109.127C139.508 109.041 140.695 109.266 141.843 109.76C142.66 110.111 143.401 110.576 143.987 111.105C144.035 111.148 144.038 111.221 143.995 111.269C143.951 111.316 143.877 111.319 143.829 111.276C143.263 110.764 142.543 110.314 141.749 109.973C140.636 109.495 139.491 109.277 138.522 109.359C137.58 109.439 136.926 109.793 136.678 110.356C136.448 110.882 136.598 111.551 137.102 112.239C137.139 112.291 137.128 112.363 137.076 112.401C137.055 112.416 137.031 112.423 137.007 112.423Z" fill="#212B36"/>
<path d="M144.705 114.529C144.674 114.529 144.643 114.517 144.62 114.493C144.575 114.447 144.577 114.373 144.624 114.33C144.757 114.205 144.86 114.062 144.929 113.904C145.044 113.642 145.066 113.347 144.994 113.025C144.98 112.963 145.019 112.901 145.083 112.887C145.146 112.874 145.208 112.913 145.222 112.976C145.305 113.345 145.279 113.689 145.144 113.997C145.062 114.183 144.941 114.352 144.785 114.498C144.763 114.519 144.734 114.529 144.705 114.529H144.705Z" fill="#212B36"/>
<path d="M131.367 91.231C134.32 88.1214 139.634 83.0055 148.337 88.1703C157.04 93.3351 152.303 105.601 142.654 112.233C133.004 118.865 121.458 121.665 121.58 115.532C121.689 110.022 123.349 99.6755 131.367 91.231Z" fill="white"/>
<path d="M125.873 119.046C124.733 119.046 123.785 118.858 123.069 118.479C121.976 117.899 121.435 116.907 121.462 115.528C121.547 111.218 122.675 100.214 131.282 91.1501C133.041 89.2977 135.03 87.4504 137.655 86.4878C140.967 85.2729 144.581 85.8049 148.397 88.0696C151.312 89.7991 152.91 92.4424 153.021 95.713C153.209 101.286 149.07 107.963 142.721 112.326C139.059 114.843 135.045 116.867 131.417 118.025C129.291 118.704 127.409 119.046 125.873 119.046ZM131.367 91.2296L131.452 91.3086C122.902 100.315 121.781 111.25 121.696 115.533C121.671 116.817 122.17 117.739 123.18 118.274C123.865 118.638 124.773 118.811 125.849 118.811C129.979 118.811 136.585 116.262 142.587 112.136C148.873 107.815 152.972 101.218 152.786 95.7202C152.679 92.5316 151.119 89.9546 148.276 88.2673C139.362 82.9767 134.02 88.6041 131.452 91.3081L131.367 91.2291L131.367 91.2296Z" fill="#212B36"/>
<path d="M135.065 111.781C134.943 111.766 134.827 111.707 134.742 111.607C131.794 108.143 124.647 107.063 124.575 107.052C124.299 107.012 124.108 106.758 124.149 106.484C124.189 106.214 124.44 106.027 124.713 106.061C124.716 106.061 124.719 106.062 124.723 106.062C125.031 106.107 132.32 107.207 135.516 110.962C135.695 111.173 135.668 111.489 135.454 111.667C135.342 111.761 135.2 111.798 135.064 111.781H135.065Z" fill="#212B36"/>
<path d="M144.03 103.533C143.924 103.503 143.827 103.438 143.758 103.343C139.124 96.9525 132.582 95.7216 132.517 95.7096C132.241 95.6606 132.059 95.4003 132.107 95.1283C132.156 94.8563 132.418 94.6756 132.693 94.7246C132.765 94.7376 134.48 95.0518 136.808 96.2007C138.949 97.2568 142.035 99.2529 144.579 102.761C144.742 102.986 144.691 103.299 144.464 103.459C144.334 103.552 144.174 103.574 144.031 103.533L144.03 103.533Z" fill="#212B36"/>
<path d="M148.977 97.8978C148.876 97.869 148.783 97.809 148.714 97.7197C146.293 94.5855 143.075 92.6633 140.802 91.603C138.323 90.4465 136.395 90.0331 136.376 90.0291C136.103 89.9723 135.927 89.7058 135.984 89.4357C136.042 89.1655 136.309 88.9927 136.582 89.0497C136.665 89.0669 138.624 89.4846 141.204 90.6847C143.587 91.7937 146.965 93.8088 149.517 97.1128C149.687 97.333 149.645 97.6467 149.423 97.8146C149.292 97.9141 149.126 97.9395 148.977 97.8973L148.977 97.8978Z" fill="#212B36"/>
<path d="M133.084 118.057C135.522 122.622 140.212 123.877 144.089 121.851C147.965 119.825 149.56 115.284 147.122 110.719C144.684 106.154 139.137 103.294 135.26 105.32C131.384 107.346 130.646 113.492 133.084 118.057L133.084 118.057Z" fill="white"/>
<path d="M140.36 122.904C139.566 122.904 138.776 122.783 138.011 122.536C135.904 121.859 134.165 120.328 132.981 118.112C131.781 115.866 131.311 113.172 131.689 110.72C132.086 108.151 133.335 106.197 135.206 105.219C137.078 104.24 139.413 104.32 141.782 105.445C144.042 106.517 146.027 108.42 147.226 110.666C148.41 112.883 148.707 115.167 148.086 117.27C147.495 119.271 146.095 120.934 144.143 121.955C142.937 122.585 141.644 122.905 140.36 122.905V122.904ZM138.065 104.77C137.079 104.77 136.148 104.987 135.315 105.423C133.511 106.366 132.305 108.259 131.92 110.754C131.55 113.158 132.012 115.8 133.188 118.003C135.466 122.268 140.027 123.844 144.035 121.749C148.042 119.655 149.297 115.038 147.019 110.773C145.843 108.57 143.897 106.704 141.681 105.652C140.443 105.065 139.216 104.77 138.066 104.77L138.065 104.77Z" fill="#212B36"/>
<path fill-rule="evenodd" clip-rule="evenodd" d="M140.36 122.904C140.389 122.904 140.419 122.904 140.448 122.904C140.519 122.903 140.589 122.901 140.66 122.898C141.845 122.853 143.03 122.535 144.142 121.954C144.143 121.954 144.143 121.954 144.143 121.954C146.095 120.934 147.495 119.27 148.086 117.27C148.707 115.166 148.41 112.882 147.226 110.665C147.225 110.664 147.225 110.663 147.224 110.663C146.025 108.418 144.041 106.516 141.782 105.444C141.781 105.444 141.78 105.443 141.78 105.443C141.78 105.443 141.78 105.443 141.78 105.443C140.51 104.841 139.25 104.538 138.066 104.538C138.066 104.538 138.066 104.538 138.065 104.538C138 104.538 137.935 104.539 137.87 104.541C136.919 104.568 136.02 104.793 135.208 105.217C135.208 105.217 135.208 105.217 135.208 105.217C135.208 105.217 135.207 105.218 135.206 105.218C133.335 106.196 132.086 108.149 131.689 110.718C131.689 110.718 131.689 110.718 131.689 110.718C131.689 110.718 131.689 110.719 131.689 110.719C131.311 113.171 131.781 115.865 132.981 118.111C132.981 118.111 132.982 118.112 132.982 118.112C134.165 120.328 135.905 121.858 138.011 122.536C138.776 122.782 139.566 122.904 140.36 122.904V122.904ZM131.393 110.673C131.004 113.191 131.487 115.951 132.716 118.252L131.393 110.673ZM131.393 110.673C131.8 108.034 133.092 105.985 135.067 104.952C137.042 103.92 139.479 104.019 141.91 105.173C144.23 106.273 146.261 108.222 147.49 110.524C148.706 112.799 149.02 115.164 148.374 117.355C147.758 119.438 146.302 121.164 144.282 122.22L144.282 122.22C143.035 122.872 141.694 123.204 140.36 123.204H140.06V123.198C139.336 123.171 138.617 123.046 137.919 122.821C135.728 122.116 133.931 120.528 132.716 118.252M131.92 110.753C132.305 108.259 133.51 106.367 135.313 105.423C135.314 105.423 135.315 105.422 135.315 105.422C136.148 104.987 137.078 104.77 138.065 104.77L138.066 104.769C139.216 104.769 140.443 105.064 141.681 105.651C141.681 105.652 141.682 105.652 141.683 105.652C141.683 105.652 141.683 105.652 141.683 105.652C143.898 106.704 145.843 108.57 147.019 110.772C147.02 110.773 147.02 110.774 147.02 110.775C147.02 110.775 147.02 110.775 147.02 110.775C148.183 112.952 148.424 115.221 147.848 117.199C147.297 119.095 145.996 120.723 144.036 121.748C144.036 121.748 144.036 121.748 144.036 121.748C144.035 121.748 144.035 121.748 144.035 121.748C142.932 122.325 141.787 122.623 140.66 122.664C140.559 122.668 140.459 122.669 140.36 122.669C139.585 122.666 138.82 122.541 138.086 122.302C138.086 122.302 138.086 122.302 138.086 122.302C136.11 121.657 134.351 120.18 133.188 118.002C133.188 118.002 133.187 118.001 133.187 118.001C133.187 118.001 133.187 118.001 133.187 118.001C132.012 115.799 131.55 113.158 131.92 110.755C131.92 110.755 131.92 110.755 131.92 110.755C131.92 110.754 131.92 110.754 131.92 110.753ZM133.246 117.971L133.453 117.861C135.662 121.998 140.051 123.492 143.896 121.483C147.738 119.474 148.963 115.049 146.754 110.914C145.608 108.766 143.709 106.946 141.552 105.922C140.378 105.365 139.223 105.083 138.147 105.07H138.065C137.123 105.07 136.241 105.277 135.454 105.688M132.217 110.799L132.217 110.799C131.856 113.137 132.306 115.714 133.453 117.861L133.246 117.971M132.217 110.799C132.591 108.373 133.755 106.576 135.454 105.688L132.217 110.799Z" fill="#212B36"/>
<path d="M143.686 111.63C142.821 116.721 145.776 120.537 150.099 121.257C154.423 121.976 158.477 119.326 159.343 114.235C160.208 109.144 157.557 103.539 153.233 102.819C148.91 102.1 144.551 106.539 143.686 111.63H143.686Z" fill="white"/>
<path d="M151.49 121.488C151.025 121.488 150.554 121.449 150.08 121.37C147.904 121.008 146.047 119.864 144.851 118.148C143.593 116.343 143.15 114.083 143.571 111.61C143.996 109.105 145.276 106.682 147.082 104.961C148.975 103.158 151.166 102.357 153.253 102.704C155.34 103.051 157.147 104.519 158.339 106.835C159.476 109.045 159.885 111.749 159.459 114.254C159.038 116.726 157.873 118.719 156.087 120.018C154.759 120.984 153.164 121.488 151.49 121.488V121.488ZM152.293 102.856C150.565 102.856 148.803 103.643 147.244 105.128C145.474 106.815 144.219 109.192 143.802 111.648C143.392 114.06 143.821 116.262 145.043 118.016C146.203 119.68 148.006 120.79 150.119 121.142C152.232 121.493 154.303 121.028 155.949 119.831C157.684 118.569 158.818 116.627 159.228 114.215C159.646 111.758 159.245 109.106 158.13 106.939C156.973 104.69 155.227 103.267 153.215 102.932C152.909 102.881 152.602 102.856 152.293 102.856Z" fill="#212B36"/>
<path d="M156.927 113.03H156.926C156.861 113.029 156.81 112.977 156.81 112.913C156.829 111.271 156.445 109.603 155.731 108.215C154.818 106.442 153.5 105.329 152.02 105.083C151.956 105.073 151.913 105.013 151.924 104.95C151.935 104.887 151.994 104.845 152.059 104.855C153.614 105.114 154.992 106.27 155.94 108.11C156.671 109.531 157.063 111.237 157.044 112.915C157.043 112.979 156.991 113.03 156.927 113.03Z" fill="#212B36"/>
<path fill-rule="evenodd" clip-rule="evenodd" d="M156.925 113.231C156.75 113.229 156.609 113.087 156.61 112.912C156.628 111.301 156.252 109.665 155.553 108.308C154.659 106.57 153.386 105.514 151.987 105.281C151.816 105.253 151.697 105.091 151.727 104.917C151.757 104.742 151.921 104.632 152.09 104.658L152.092 104.659C153.728 104.931 155.151 106.142 156.118 108.02C156.864 109.47 157.263 111.209 157.244 112.918C157.242 113.094 157.098 113.231 156.927 113.231H156.925ZM155.94 108.111C156.671 109.531 157.063 111.238 157.044 112.916C157.044 112.98 156.991 113.031 156.927 113.031H156.926C156.861 113.03 156.81 112.978 156.81 112.914C156.829 111.272 156.446 109.604 155.731 108.216C154.818 106.443 153.5 105.33 152.02 105.084C151.956 105.073 151.913 105.014 151.924 104.951C151.935 104.887 151.994 104.846 152.059 104.856C153.614 105.115 154.992 106.271 155.94 108.111Z" fill="#212B36"/>
<path d="M135.694 115.144C135.694 115.144 133.174 123.465 122.278 123.601C110.465 123.748 104.416 110.81 106.813 101.308C108.027 96.4939 110.448 95.6816 110.448 95.6816L135.694 115.144Z" fill="#212B36"/>
<path d="M122.072 123.716C116.231 123.716 112.518 120.617 110.424 117.998C106.756 113.413 105.294 106.85 106.699 101.278C107.915 96.4582 110.309 95.6046 110.41 95.5705C110.448 95.5582 110.489 95.5649 110.519 95.5888L135.766 115.051C135.804 115.08 135.82 115.13 135.806 115.175C135.8 115.196 135.145 117.306 133.157 119.399C131.324 121.329 127.948 123.644 122.279 123.715C122.21 123.716 122.14 123.716 122.072 123.716L122.072 123.716ZM110.43 95.8125C110.064 95.9735 108.005 97.0554 106.926 101.334C105.538 106.839 106.983 113.324 110.607 117.855C112.669 120.433 116.325 123.485 122.073 123.485C122.141 123.485 122.208 123.485 122.277 123.484C127.864 123.414 131.185 121.138 132.987 119.241C134.729 117.408 135.425 115.572 135.558 115.184L110.43 95.813V95.8125Z" fill="white"/>
<path d="M133.834 117.544C133.834 117.544 126.346 124.818 115.885 113.923C105.425 103.028 108.288 95.1437 111.733 95.3679C115.178 95.5922 120.861 101.046 128.4 104.491C135.939 107.936 138.043 113.767 133.834 117.544Z" fill="white"/>
<path d="M127.331 120.036C127.271 120.036 127.212 120.036 127.152 120.034C123.401 119.97 119.582 117.94 115.801 114.001C108.511 106.409 107.603 100.173 109.041 97.1395C109.635 95.8854 110.644 95.1801 111.741 95.251C113.628 95.3738 116.111 96.9984 119.256 99.0551C121.94 100.81 124.981 102.8 128.449 104.384C132.795 106.37 135.554 109.239 136.022 112.257C136.331 114.255 135.602 116.111 133.914 117.626C133.831 117.706 131.337 120.036 127.331 120.036V120.036ZM111.59 95.4772C110.645 95.4772 109.779 96.1259 109.252 97.2379C107.846 100.205 108.762 106.334 115.97 113.842C119.707 117.734 123.471 119.74 127.156 119.803C127.215 119.804 127.273 119.805 127.331 119.805C131.292 119.805 133.727 117.483 133.752 117.459C133.753 117.458 133.754 117.457 133.755 117.456C135.383 115.996 136.086 114.21 135.79 112.292C135.334 109.353 132.623 106.547 128.35 104.595C124.865 103.002 121.816 101.008 119.126 99.2482C116.011 97.2104 113.549 95.6011 111.725 95.4818C111.679 95.4788 111.634 95.4772 111.59 95.4772H111.59Z" fill="#212B36"/>
<path fill-rule="evenodd" clip-rule="evenodd" d="M127.331 120.036C127.365 120.036 127.4 120.035 127.433 120.035C127.5 120.034 127.565 120.033 127.631 120.031C131.42 119.921 133.781 117.751 133.911 117.629C133.912 117.628 133.914 117.627 133.914 117.626C133.914 117.626 133.914 117.626 133.914 117.626C133.915 117.625 133.916 117.625 133.916 117.624C133.917 117.623 133.918 117.622 133.919 117.621C135.604 116.107 136.331 114.252 136.022 112.257C135.554 109.239 132.794 106.369 128.449 104.384C128.449 104.383 128.448 104.383 128.447 104.383C124.983 102.8 121.945 100.813 119.264 99.0592L119.253 99.052C116.11 96.9964 113.628 95.373 111.741 95.2502C111.741 95.2502 111.742 95.2503 111.741 95.2502C111.741 95.2502 111.74 95.2502 111.74 95.2502C111.69 95.247 111.64 95.2454 111.59 95.2454C111.59 95.2454 111.59 95.2454 111.59 95.2454C110.553 95.2458 109.609 95.9421 109.042 97.1374C109.042 97.1374 109.042 97.1374 109.042 97.1374C109.042 97.1379 109.041 97.1383 109.041 97.1388C107.604 100.172 108.512 106.408 115.801 114C115.802 114.001 115.802 114.001 115.803 114.002C119.583 117.939 123.402 119.969 127.152 120.033C127.212 120.035 127.272 120.036 127.331 120.036ZM111.745 95.1818C111.693 95.1783 111.642 95.1765 111.59 95.1765L111.745 95.1818ZM127.031 120.331C123.208 120.225 119.358 118.138 115.585 114.208C111.917 110.388 109.84 106.894 108.864 103.954C107.889 101.019 108.008 98.6177 108.77 97.0103C109.4 95.6813 110.506 94.8698 111.761 94.9509C112.772 95.0167 113.913 95.4805 115.17 96.1635C116.43 96.8474 117.844 97.7723 119.408 98.7954L119.42 98.8033C122.106 100.56 125.129 102.537 128.574 104.111C132.957 106.114 135.828 109.046 136.318 112.211C136.318 112.211 136.318 112.211 136.318 112.211C136.645 114.321 135.868 116.274 134.118 117.846C134.119 117.845 134.121 117.844 134.121 117.843L133.961 117.674M127.146 120.333C127.108 120.333 127.069 120.332 127.031 120.331V120.336H127.331C131.415 120.336 133.97 117.986 134.118 117.846M111.59 95.4765C110.645 95.4767 109.779 96.1254 109.252 97.2372C109.252 97.2376 109.252 97.2381 109.252 97.2386C107.847 100.206 108.763 106.334 115.968 113.84C115.969 113.84 115.97 113.841 115.97 113.841C119.707 117.734 123.471 119.739 127.156 119.803C127.156 119.803 127.156 119.803 127.156 119.803C127.157 119.803 127.158 119.803 127.158 119.803C127.216 119.804 127.273 119.804 127.331 119.804C127.331 119.804 127.331 119.804 127.331 119.804C127.432 119.804 127.532 119.803 127.631 119.8C131.414 119.687 133.728 117.482 133.752 117.459L133.755 117.455C133.757 117.454 133.758 117.453 133.759 117.452C135.384 115.993 136.086 114.208 135.79 112.292C135.335 109.353 132.624 106.547 128.353 104.595C128.352 104.595 128.351 104.595 128.351 104.594C124.867 103.002 121.818 101.009 119.129 99.2494C119.129 99.2494 119.129 99.2494 119.129 99.2494C119.128 99.249 119.128 99.2487 119.127 99.2483L119.126 99.2475C116.012 97.2102 113.551 95.6013 111.726 95.4812C111.726 95.4812 111.726 95.4812 111.726 95.4812C111.726 95.4812 111.725 95.4811 111.725 95.4811C111.68 95.478 111.634 95.4765 111.59 95.4765C111.59 95.4765 111.59 95.4765 111.59 95.4765ZM128.323 104.656L128.226 104.867C124.721 103.265 121.656 101.261 118.97 99.5038L118.962 99.4986C117.401 98.4776 116.018 97.5732 114.798 96.9082C113.572 96.2402 112.549 95.8356 111.705 95.7805C111.666 95.7778 111.628 95.7765 111.59 95.7765V95.5454M133.544 117.243L133.544 117.242L133.55 117.237L133.555 117.232C135.119 115.829 135.772 114.141 135.493 112.338C135.061 109.545 132.462 106.803 128.226 104.867L128.323 104.656M133.544 117.243C133.543 117.243 133.544 117.243 133.544 117.243C133.522 117.264 132.931 117.82 131.878 118.375C130.803 118.941 129.252 119.504 127.331 119.504C127.275 119.504 127.218 119.504 127.161 119.503C123.586 119.441 119.894 117.495 116.186 113.634C112.605 109.903 110.602 106.531 109.665 103.741C108.727 100.947 108.864 98.7576 109.523 97.3656C110.018 96.3218 110.797 95.7765 111.59 95.7765" fill="#212B36"/>
<path d="M128.4 112.701C128.4 112.701 126.35 115.336 120.958 111.171C115.567 107.007 118.489 102.94 123.183 104.563C127.877 106.186 129.709 110.365 128.4 112.701Z" fill="#212B36"/>
<path d="M127.522 109.703C127.475 109.703 127.43 109.675 127.413 109.629C126.735 107.873 125.017 106.369 122.814 105.607C122.231 105.406 121.675 105.304 121.16 105.304C121.095 105.304 121.043 105.252 121.043 105.188C121.043 105.124 121.096 105.072 121.16 105.072C121.701 105.072 122.284 105.179 122.891 105.389C125.158 106.173 126.93 107.727 127.631 109.547C127.654 109.607 127.624 109.673 127.564 109.696C127.55 109.701 127.536 109.704 127.522 109.704V109.703Z" fill="white"/>
<path fill-rule="evenodd" clip-rule="evenodd" d="M30.5298 104.896C34.1196 104.896 37.0298 101.986 37.0298 98.3965C37.0298 94.8066 34.1196 91.8965 30.5298 91.8965C26.9399 91.8965 24.0298 94.8066 24.0298 98.3965C24.0298 101.986 26.9399 104.896 30.5298 104.896ZM30.5298 106.896C35.2242 106.896 39.0298 103.091 39.0298 98.3965C39.0298 93.7021 35.2242 89.8965 30.5298 89.8965C25.8354 89.8965 22.0298 93.7021 22.0298 98.3965C22.0298 103.091 25.8354 106.896 30.5298 106.896Z" fill="#C8FACD"/>
<path d="M30.5299 89.8965C31.7997 89.8965 33.0533 90.181 34.1988 90.7291C35.3442 91.2772 36.3523 92.0749 37.1489 93.0637C37.9456 94.0526 38.5106 95.2073 38.8024 96.4431C39.0942 97.6789 39.1054 98.9644 38.8352 100.205C38.565 101.446 38.0203 102.61 37.241 103.613C36.4617 104.615 35.4677 105.431 34.332 105.999C33.1964 106.567 31.9478 106.873 30.6782 106.895C29.4086 106.917 28.1502 106.655 26.9954 106.127L30.5299 98.3965V89.8965Z" fill="#C8FACD"/>
<path fill-rule="evenodd" clip-rule="evenodd" d="M30.5298 67.877C34.1196 67.877 37.0298 64.9668 37.0298 61.377C37.0298 57.7871 34.1196 54.877 30.5298 54.877C26.9399 54.877 24.0298 57.7871 24.0298 61.377C24.0298 64.9668 26.9399 67.877 30.5298 67.877ZM30.5298 69.877C35.2242 69.877 39.0298 66.0714 39.0298 61.377C39.0298 56.6825 35.2242 52.877 30.5298 52.877C25.8354 52.877 22.0298 56.6825 22.0298 61.377C22.0298 66.0714 25.8354 69.877 30.5298 69.877Z" fill="#C8FACD"/>
<path d="M30.5298 52.877C31.8549 52.877 33.1617 53.1868 34.3458 53.7817C35.53 54.3766 36.5586 55.2402 37.3495 56.3034C38.1405 57.3666 38.6719 58.6 38.9014 59.9051C39.1308 61.2103 39.052 62.551 38.6711 63.8202L30.5298 61.377V52.877Z" fill="#C8FACD"/>
<path d="M59.7324 93.3256H67.6044L67.5964 95.2776H62.0844V98.1816H66.8604V100.094H62.0844V104.894H59.7324V93.3256Z" fill="#212B36"/>
<path d="M67.6108 104.894L71.7548 93.3256H74.2188L78.3548 104.894H76.0268L75.0828 102.214H70.9228L69.9548 104.894H67.6108ZM71.4428 100.174H74.5228L72.9948 95.5816L71.4428 100.174Z" fill="#212B36"/>
<path d="M78.1623 95.4056V93.3256H87.4183V95.4056H84.0023V104.894H81.6583V95.4056H78.1623Z" fill="#212B36"/>
<path d="M93.3264 105.054C92.7558 105.054 92.1958 104.982 91.6464 104.838C91.0971 104.694 90.5958 104.478 90.1424 104.19C89.6891 103.902 89.3131 103.542 89.0144 103.11C88.7211 102.678 88.5451 102.171 88.4864 101.59H90.8784C90.9584 101.942 91.1104 102.238 91.3344 102.478C91.5584 102.718 91.8411 102.902 92.1824 103.03C92.5238 103.158 92.9024 103.222 93.3184 103.222C93.7451 103.222 94.1344 103.168 94.4864 103.062C94.8384 102.955 95.1211 102.795 95.3344 102.582C95.5478 102.363 95.6544 102.091 95.6544 101.766C95.6544 101.472 95.5664 101.232 95.3904 101.046C95.2198 100.859 94.9878 100.707 94.6944 100.59C94.4011 100.472 94.0678 100.376 93.6944 100.302L91.6944 99.8936C90.8198 99.7283 90.1264 99.3816 89.6144 98.8536C89.1024 98.3203 88.8384 97.611 88.8224 96.7256C88.8171 96.0003 89.0091 95.3736 89.3984 94.8456C89.7931 94.3123 90.3264 93.9016 90.9984 93.6136C91.6758 93.3256 92.4331 93.1816 93.2704 93.1816C94.2678 93.1816 95.1051 93.339 95.7824 93.6536C96.4651 93.963 96.9824 94.3843 97.3344 94.9176C97.6918 95.4456 97.8758 96.035 97.8864 96.6856H95.5424C95.4998 96.2803 95.3771 95.9576 95.1744 95.7176C94.9718 95.4776 94.7104 95.3043 94.3904 95.1976C94.0758 95.091 93.7158 95.0376 93.3104 95.0376C93.0011 95.0376 92.7184 95.0723 92.4624 95.1416C92.2118 95.211 91.9984 95.3096 91.8224 95.4376C91.6464 95.5603 91.5104 95.707 91.4144 95.8776C91.3184 96.0483 91.2704 96.2403 91.2704 96.4536C91.2704 96.7896 91.3824 97.0616 91.6064 97.2696C91.8304 97.4776 92.2491 97.6483 92.8624 97.7816L94.8464 98.1896C95.5558 98.3283 96.1184 98.5336 96.5344 98.8056C96.9558 99.0776 97.2704 99.3843 97.4784 99.7256C97.6918 100.067 97.8304 100.416 97.8944 100.774C97.9638 101.126 97.9984 101.451 97.9984 101.75C97.9984 102.374 97.8011 102.936 97.4064 103.438C97.0171 103.934 96.4731 104.328 95.7744 104.622C95.0758 104.91 94.2598 105.054 93.3264 105.054Z" fill="#212B36"/>
<path d="M63.9778 56.1484C64.8471 56.1484 65.6205 56.3244 66.2978 56.6764C66.9805 57.0231 67.5298 57.4978 67.9458 58.1004C68.3671 58.7031 68.6151 59.3831 68.6898 60.1404H66.2418C66.1671 59.7404 66.0311 59.3858 65.8338 59.0764C65.6365 58.7618 65.3778 58.5164 65.0578 58.3404C64.7378 58.1591 64.3538 58.0684 63.9058 58.0684C63.3671 58.0684 62.9031 58.1991 62.5138 58.4604C62.1245 58.7218 61.8258 59.1431 61.6178 59.7244C61.4098 60.3058 61.3058 61.0738 61.3058 62.0284C61.3058 63.4684 61.5351 64.5111 61.9938 65.1564C62.4578 65.7964 63.0951 66.1164 63.9058 66.1164C64.3538 66.1164 64.7378 66.0151 65.0578 65.8124C65.3778 65.6044 65.6365 65.3324 65.8338 64.9964C66.0311 64.6551 66.1671 64.2818 66.2418 63.8764H68.6898C68.6205 64.4258 68.4871 64.9511 68.2898 65.4524C68.0925 65.9484 67.8125 66.3911 67.4498 66.7804C67.0871 67.1698 66.6205 67.4764 66.0498 67.7004C65.4791 67.9244 64.7885 68.0364 63.9778 68.0364C62.9005 68.0364 61.9698 67.7858 61.1858 67.2844C60.4018 66.7831 59.7965 66.0791 59.3698 65.1724C58.9485 64.2658 58.7378 63.2071 58.7378 61.9964C58.7378 60.7804 58.9485 59.7378 59.3698 58.8684C59.7911 57.9938 60.3938 57.3218 61.1778 56.8524C61.9618 56.3831 62.8951 56.1484 63.9778 56.1484Z" fill="#212B36"/>
<path d="M69.5348 67.8764L73.6788 56.3084H76.1428L80.2788 67.8764H77.9508L77.0068 65.1964H72.8468L71.8788 67.8764H69.5348ZM73.3668 63.1564H76.4468L74.9188 58.5644L73.3668 63.1564Z" fill="#212B36"/>
<path d="M90.9918 67.8764H88.5678L86.6878 63.4204H84.3438V67.8764H82.0158V56.3084H86.8958C87.8185 56.3084 88.5731 56.4551 89.1598 56.7484C89.7465 57.0418 90.1785 57.4498 90.4558 57.9724C90.7331 58.4898 90.8718 59.0871 90.8718 59.7644C90.8718 60.3724 90.7758 60.8871 90.5838 61.3084C90.3971 61.7244 90.1491 62.0711 89.8398 62.3484C89.5358 62.6258 89.2025 62.8524 88.8398 63.0284L90.9918 67.8764ZM86.4798 61.6204C87.1038 61.6204 87.5971 61.4524 87.9598 61.1164C88.3278 60.7804 88.5118 60.3484 88.5118 59.8204C88.5118 59.2871 88.3358 58.8658 87.9838 58.5564C87.6318 58.2471 87.1865 58.0924 86.6478 58.0924H84.3438V61.6204H86.4798Z" fill="#212B36"/>
<path d="M93.1564 67.8764V56.3084H97.3484C98.8631 56.3084 99.9857 56.5698 100.716 57.0924C101.452 57.6098 101.82 58.3591 101.82 59.3404C101.82 59.9164 101.674 60.4178 101.38 60.8444C101.087 61.2658 100.564 61.6338 99.8124 61.9484C100.298 62.0711 100.69 62.2364 100.988 62.4444C101.287 62.6524 101.516 62.8844 101.676 63.1404C101.836 63.3911 101.946 63.6551 102.004 63.9324C102.063 64.2044 102.092 64.4738 102.092 64.7404C102.092 65.8071 101.73 66.5964 101.004 67.1084C100.279 67.6204 99.1244 67.8764 97.5404 67.8764H93.1564ZM95.4844 66.0684H97.5884C98.2924 66.0684 98.8231 65.9271 99.1804 65.6444C99.5431 65.3618 99.7244 64.9831 99.7244 64.5084C99.7244 64.1671 99.6364 63.8818 99.4604 63.6524C99.2844 63.4178 99.0444 63.2418 98.7404 63.1244C98.4417 63.0071 98.1004 62.9484 97.7164 62.9484H95.4844V66.0684ZM95.4844 61.0924H97.7164C97.9564 61.0924 98.1857 61.0658 98.4044 61.0124C98.6284 60.9538 98.8258 60.8658 98.9964 60.7484C99.1724 60.6311 99.3111 60.4818 99.4124 60.3004C99.5138 60.1138 99.5644 59.8951 99.5644 59.6444C99.5644 59.1431 99.3751 58.7644 98.9964 58.5084C98.6231 58.2471 98.1431 58.1164 97.5564 58.1164H95.4844V61.0924Z" fill="#212B36"/>
<path d="M108.563 68.0364C107.992 68.0364 107.432 67.9644 106.883 67.8204C106.334 67.6764 105.832 67.4604 105.379 67.1724C104.926 66.8844 104.55 66.5244 104.251 66.0924C103.958 65.6604 103.782 65.1538 103.723 64.5724H106.115C106.195 64.9244 106.347 65.2204 106.571 65.4604C106.795 65.7004 107.078 65.8844 107.419 66.0124C107.76 66.1404 108.139 66.2044 108.555 66.2044C108.982 66.2044 109.371 66.1511 109.723 66.0444C110.075 65.9378 110.358 65.7778 110.571 65.5644C110.784 65.3458 110.891 65.0738 110.891 64.7484C110.891 64.4551 110.803 64.2151 110.627 64.0284C110.456 63.8418 110.224 63.6898 109.931 63.5724C109.638 63.4551 109.304 63.3591 108.931 63.2844L106.931 62.8764C106.056 62.7111 105.363 62.3644 104.851 61.8364C104.339 61.3031 104.075 60.5938 104.059 59.7084C104.054 58.9831 104.246 58.3564 104.635 57.8284C105.03 57.2951 105.563 56.8844 106.235 56.5964C106.912 56.3084 107.67 56.1644 108.507 56.1644C109.504 56.1644 110.342 56.3218 111.019 56.6364C111.702 56.9458 112.219 57.3671 112.571 57.9004C112.928 58.4284 113.112 59.0178 113.123 59.6684H110.779C110.736 59.2631 110.614 58.9404 110.411 58.7004C110.208 58.4604 109.947 58.2871 109.627 58.1804C109.312 58.0738 108.952 58.0204 108.547 58.0204C108.238 58.0204 107.955 58.0551 107.699 58.1244C107.448 58.1938 107.235 58.2924 107.059 58.4204C106.883 58.5431 106.747 58.6898 106.651 58.8604C106.555 59.0311 106.507 59.2231 106.507 59.4364C106.507 59.7724 106.619 60.0444 106.843 60.2524C107.067 60.4604 107.486 60.6311 108.099 60.7644L110.083 61.1724C110.792 61.3111 111.355 61.5164 111.771 61.7884C112.192 62.0604 112.507 62.3671 112.715 62.7084C112.928 63.0498 113.067 63.3991 113.131 63.7564C113.2 64.1084 113.235 64.4338 113.235 64.7324C113.235 65.3564 113.038 65.9191 112.643 66.4204C112.254 66.9164 111.71 67.3111 111.011 67.6044C110.312 67.8924 109.496 68.0364 108.563 68.0364Z" fill="#212B36"/>
<path fill-rule="evenodd" clip-rule="evenodd" d="M30.5298 30.8574C34.1196 30.8574 37.0298 27.9473 37.0298 24.3574C37.0298 20.7676 34.1196 17.8574 30.5298 17.8574C26.9399 17.8574 24.0298 20.7676 24.0298 24.3574C24.0298 27.9473 26.9399 30.8574 30.5298 30.8574ZM30.5298 32.8574C35.2242 32.8574 39.0298 29.0518 39.0298 24.3574C39.0298 19.663 35.2242 15.8574 30.5298 15.8574C25.8354 15.8574 22.0298 19.663 22.0298 24.3574C22.0298 29.0518 25.8354 32.8574 30.5298 32.8574Z" fill="#C8FACD"/>
<path d="M30.5298 15.8574C32.4334 15.8574 34.2819 16.4964 35.7791 17.672C37.2763 18.8476 38.3356 20.4918 38.7872 22.341C39.2387 24.1903 39.0565 26.1376 38.2696 27.871C37.4827 29.6043 36.1368 31.0234 34.4475 31.9008L30.5298 24.3574V15.8574Z" fill="#C8FACD"/>
<path d="M59.2661 30.8569V19.2889H63.5221C64.3648 19.2889 65.1194 19.4356 65.7861 19.7289C66.4528 20.0169 66.9781 20.4436 67.3621 21.0089C67.7514 21.5742 67.9461 22.2649 67.9461 23.0809C67.9461 23.8489 67.7754 24.5049 67.4341 25.0489C67.0928 25.5929 66.6128 26.0089 65.9941 26.2969C65.3808 26.5849 64.6581 26.7289 63.8261 26.7289H61.6181V30.8569H59.2661ZM61.5941 24.9209H63.7621C64.3488 24.9209 64.8288 24.7342 65.2021 24.3609C65.5754 23.9822 65.7621 23.5156 65.7621 22.9609C65.7621 22.3849 65.5648 21.9289 65.1701 21.5929C64.7754 21.2516 64.2954 21.0809 63.7301 21.0809H61.5941V24.9209Z" fill="#212B36"/>
<path d="M78.6796 30.8569H76.2556L74.3756 26.4009H72.0316V30.8569H69.7036V19.2889H74.5836C75.5063 19.2889 76.2609 19.4356 76.8476 19.7289C77.4343 20.0222 77.8663 20.4302 78.1436 20.9529C78.4209 21.4702 78.5596 22.0676 78.5596 22.7449C78.5596 23.3529 78.4636 23.8676 78.2716 24.2889C78.0849 24.7049 77.8369 25.0516 77.5276 25.3289C77.2236 25.6062 76.8903 25.8329 76.5276 26.0089L78.6796 30.8569ZM74.1676 24.6009C74.7916 24.6009 75.2849 24.4329 75.6476 24.0969C76.0156 23.7609 76.1996 23.3289 76.1996 22.8009C76.1996 22.2676 76.0236 21.8462 75.6716 21.5369C75.3196 21.2276 74.8743 21.0729 74.3356 21.0729H72.0316V24.6009H74.1676Z" fill="#212B36"/>
<path d="M85.4022 31.0169C84.3089 31.0169 83.3622 30.7796 82.5622 30.3049C81.7676 29.8249 81.1516 29.1449 80.7142 28.2649C80.2822 27.3796 80.0662 26.3236 80.0662 25.0969C80.0662 23.8649 80.2849 22.8036 80.7222 21.9129C81.1649 21.0222 81.7862 20.3369 82.5862 19.8569C83.3862 19.3716 84.3249 19.1289 85.4022 19.1289C86.4742 19.1289 87.4076 19.3689 88.2022 19.8489C88.9969 20.3289 89.6102 21.0142 90.0422 21.9049C90.4796 22.7956 90.6982 23.8596 90.6982 25.0969C90.6982 26.3182 90.4822 27.3716 90.0502 28.2569C89.6236 29.1422 89.0129 29.8249 88.2182 30.3049C87.4236 30.7796 86.4849 31.0169 85.4022 31.0169ZM85.4022 29.0969C85.9676 29.0969 86.4556 28.9636 86.8662 28.6969C87.2822 28.4249 87.6022 27.9982 87.8262 27.4169C88.0502 26.8302 88.1622 26.0676 88.1622 25.1289C88.1622 24.1636 88.0476 23.3822 87.8182 22.7849C87.5942 22.1876 87.2742 21.7502 86.8582 21.4729C86.4476 21.1902 85.9622 21.0489 85.4022 21.0489C84.8422 21.0489 84.3542 21.1902 83.9382 21.4729C83.5222 21.7502 83.1996 22.1902 82.9702 22.7929C82.7409 23.3902 82.6262 24.1689 82.6262 25.1289C82.6262 26.0729 82.7409 26.8356 82.9702 27.4169C83.1996 27.9982 83.5222 28.4249 83.9382 28.6969C84.3542 28.9636 84.8422 29.0969 85.4022 29.0969Z" fill="#212B36"/>
<path d="M91.8366 21.3689V19.2889H101.093V21.3689H97.6766V30.8569H95.3326V21.3689H91.8366Z" fill="#212B36"/>
<path d="M102.688 30.8569V19.2889H110.632L110.624 21.2569H105.032V24.0649H109.888V25.9929H105.016V28.8649L110.712 28.8729V30.8569H102.688Z" fill="#212B36"/>
<path d="M112.938 19.2889H115.266V30.8569H112.938V19.2889Z" fill="#212B36"/>
<path d="M125.452 19.2889H127.788V30.8569H125.684L120.188 22.8969V30.8569H117.86V19.2889H120.172L125.452 26.9449V19.2889Z" fill="#212B36"/>
<path d="M175.129 78.3225C175.154 78.3618 175.14 78.4167 175.093 78.4534C175.039 78.4947 174.964 78.4965 174.923 78.4575C169.975 73.6448 164.53 71.8323 160.833 71.1598C156.833 70.4323 153.972 70.844 153.943 70.8484C153.876 70.8582 153.821 70.8208 153.821 70.7651C153.82 70.7086 153.874 70.6552 153.941 70.6454C153.97 70.641 156.877 70.2221 160.92 70.9577C164.646 71.6359 170.134 73.4615 175.116 78.3075C175.121 78.3123 175.125 78.3172 175.129 78.3228L175.129 78.3225Z" fill="#212B36"/>
<path d="M165.385 70.1648C165.404 70.1948 165.401 70.235 165.374 70.2705C165.334 70.3216 165.259 70.3426 165.204 70.3177C160.314 68.0393 153.267 68.6174 153.197 68.6236C153.13 68.6294 153.079 68.588 153.084 68.5312C153.088 68.4745 153.146 68.4238 153.213 68.418C153.284 68.4118 160.4 67.8281 165.347 70.1323C165.363 70.1401 165.376 70.1514 165.385 70.1648Z" fill="#212B36"/>
<path d="M152.978 70.4345C153.224 70.827 153.01 71.3736 152.501 71.6532C151.992 71.9328 151.377 71.841 151.131 71.4484C151.101 71.4018 151.127 71.3375 151.187 71.3045C151.247 71.2715 151.32 71.2824 151.349 71.3287C151.537 71.6286 152.007 71.6985 152.395 71.4851C152.784 71.2717 152.948 70.8538 152.76 70.5543C152.572 70.2547 152.102 70.1845 151.713 70.3979C151.652 70.4311 151.58 70.42 151.551 70.3737C151.522 70.3274 151.547 70.2627 151.607 70.2298C152.117 69.9502 152.731 70.042 152.978 70.4345Z" fill="#212B36"/>
<path d="M5.7563 3.88467C5.52949 3.88467 5.34172 3.70441 5.338 3.48002L5.28967 1.27655C5.2841 1.04848 5.46814 0.859034 5.69867 0.853516H5.70797C5.93478 0.853516 6.12069 1.03376 6.12627 1.25815L6.17459 3.46163C6.18017 3.6897 5.99613 3.87915 5.7656 3.88467H5.7563Z" fill="#212B36"/>
<path d="M5.9233 11.5977C5.69649 11.5977 5.51058 11.4174 5.505 11.193L5.45667 8.98956C5.45109 8.76149 5.63514 8.57205 5.86567 8.56653C6.09248 8.56101 6.28768 8.7431 6.29326 8.97118L6.3416 11.1746C6.34718 11.4027 6.16312 11.5922 5.93259 11.5977H5.9233Z" fill="#212B36"/>
<path d="M0.879722 6.67823C0.649194 6.67823 0.463285 6.4943 0.461426 6.26807C0.461426 6.03815 0.645473 5.85238 0.876001 5.85054L3.06974 5.83398H3.07345C3.30398 5.83398 3.48989 6.01792 3.49175 6.24415C3.49175 6.47223 3.3077 6.65983 3.07718 6.66167L0.883444 6.67823H0.879722Z" fill="#212B36"/>
<path d="M8.55941 6.61767C8.32888 6.61767 8.14297 6.43374 8.14111 6.20751C8.14111 5.97944 8.32516 5.79182 8.55569 5.78998L10.7494 5.77344H10.7531C10.9837 5.77344 11.1696 5.95736 11.1714 6.1836C11.1714 6.41351 10.9874 6.59928 10.7569 6.60112L8.56313 6.61767H8.55941Z" fill="#212B36"/>
</svg>
